<?xml version="1.0" encoding="UTF-8" standalone="no"?>
<!-- Created with Inkscape (http://www.inkscape.org/) -->

<svg
   width="512"
   height="512"
   viewBox="0 0 135.46667 135.46666"
   version="1.1"
   id="svg5"
   inkscape:version="1.1.2 (0a00cf5339, 2022-02-04)"
   sodipodi:docname="ab-logo-color.svg"
   xmlns:inkscape="http://www.inkscape.org/namespaces/inkscape"
   xmlns:sodipodi="http://sodipodi.sourceforge.net/DTD/sodipodi-0.dtd"
   xmlns="http://www.w3.org/2000/svg"
   xmlns:svg="http://www.w3.org/2000/svg">
  <sodipodi:namedview
     id="namedview7"
     pagecolor="#ffffff"
     bordercolor="#666666"
     borderopacity="1.0"
     inkscape:pageshadow="2"
     inkscape:pageopacity="0.0"
     inkscape:pagecheckerboard="0"
     inkscape:document-units="mm"
     showgrid="false"
     inkscape:zoom="0.64052329"
     inkscape:cx="-565.94351"
     inkscape:cy="180.32131"
     inkscape:window-width="2560"
     inkscape:window-height="1372"
     inkscape:window-x="0"
     inkscape:window-y="0"
     inkscape:window-maximized="1"
     inkscape:current-layer="layer1"
     fit-margin-top="0"
     fit-margin-left="0"
     fit-margin-right="0"
     fit-margin-bottom="0"
     units="px" />
  <defs
     id="defs2">
    <marker
       style="overflow:visible"
       id="Arrow1Lstart"
       refX="0.0"
       refY="0.0"
       orient="auto"
       inkscape:stockid="Arrow1Lstart"
       inkscape:isstock="true">
      <path
         transform="scale(0.8) translate(12.5,0)"
         style="fill-rule:evenodd;fill:context-stroke;stroke:context-stroke;stroke-width:1.0pt"
         d="M 0.0,0.0 L 5.0,-5.0 L -12.5,0.0 L 5.0,5.0 L 0.0,0.0 z "
         id="path23745" />
    </marker>
  </defs>
  <g
     inkscape:label="Layer 1"
     inkscape:groupmode="layer"
     id="layer1"
     transform="translate(-48.3982,-17.533533)">
    <path
       style="fill:#a3a3a3;fill-opacity:1;stroke:none;stroke-width:0.1;stroke-linecap:square;stroke-miterlimit:4;stroke-dasharray:none;paint-order:markers fill stroke;stroke-opacity:1"
       d="m 139.77654,17.533533 c -24.34941,9.9e-5 -44.088483,20.094998 -44.08836,44.883214 0.0074,9.238888 2.814439,18.250489 8.03915,25.804745 2.63421,9.105012 1.10774,18.431658 -4.732136,27.987728 5.419016,-0.44888 11.297556,-1.42311 25.317996,-11.70722 4.96052,1.90706 10.1609,2.7912 15.46335,2.79795 24.34945,-7e-5 44.08849,-20.094976 44.08833,-44.883203 1.6e-4,-24.788228 -19.73888,-44.883153 -44.08833,-44.883214 z"
       id="path14987" />
    <path
       style="fill:#b61010;fill-opacity:1;stroke:#ff261e;stroke-width:0.1;stroke-linecap:square;stroke-miterlimit:4;stroke-dasharray:none;paint-order:markers fill stroke;stroke-opacity:1"
       d="m 159.34172,79.303972 c 1.54579,0 2.7903,1.244511 2.7903,2.790292 v 9.693925 c 0,1.545781 -1.24451,2.78965 -2.7903,2.78965 -1.54578,0 -2.79025,-1.243869 -2.79029,-2.78965 v -9.693925 c 4e-5,-1.545781 1.24451,-2.790292 2.79029,-2.790292 z"
       id="path18899" />
    <path
       style="fill:#b61010;fill-opacity:1;stroke:#ff261e;stroke-width:0.1;stroke-linecap:square;stroke-miterlimit:4;stroke-dasharray:none;paint-order:markers fill stroke;stroke-opacity:1"
       d="m 120.21133,79.303972 c 1.54579,0 2.7903,1.244511 2.7903,2.790292 v 9.693925 c 0,1.545781 -1.24451,2.78965 -2.7903,2.78965 -1.54578,0 -2.79027,-1.243869 -2.79027,-2.78965 v -9.693925 c 0,-1.545781 1.24449,-2.790292 2.79027,-2.790292 z"
       id="path18897" />
    <path
       style="fill:#b61010;fill-opacity:1;stroke:#ff261e;stroke-width:0.1;stroke-linecap:square;stroke-miterlimit:4;stroke-dasharray:none;paint-order:markers fill stroke;stroke-opacity:1"
       d="m 124.20094,79.244592 h 2.82792 25.55596 2.82792 v 3.037815 13.261841 1.668179 c 0,1.682857 -1.2613,3.037153 -2.82792,3.037153 h -25.55596 c -1.56662,0 -2.82792,-1.354296 -2.82792,-3.037153 V 95.544248 82.282407 Z"
       id="path18895" />
    <path
       style="fill:#b61010;fill-opacity:1;stroke:#ff261e;stroke-width:0.1;stroke-linecap:square;stroke-miterlimit:4;stroke-dasharray:none;paint-order:markers fill stroke;stroke-opacity:1"
       d="m 139.59344,22.032198 a 3.9954094,3.9957667 0 0 1 3.99536,3.995325 3.9954094,3.9957667 0 0 1 -2.77116,3.802045 v 4.437411 c 0,0.154628 -0.0254,0.302962 -0.072,0.440173 h 4.37107 c 0.58499,0 1.07682,0.38525 1.23693,0.916699 12.52692,0.482428 22.44543,9.378853 22.44543,20.358136 v 1.837227 c 0,14.336959 -6.94643,20.380467 -23.51717,20.380467 h -11.01059 c -14.57144,0 -23.51713,-4.038074 -23.51713,-20.380467 v -1.837227 c 0,-10.924535 9.81949,-19.787741 22.25785,-20.351124 0.15789,-0.535054 0.65063,-0.923711 1.23825,-0.923711 h 4.20073 c -0.0467,-0.137211 -0.072,-0.285545 -0.072,-0.440173 v -4.433584 a 3.9954094,3.9957667 0 0 1 -2.78073,-3.805872 3.9954094,3.9957667 0 0 1 3.99533,-3.995325 z"
       id="path18885" />
    <path
       style="fill:#000000;fill-opacity:1;stroke:none;stroke-width:0.1;stroke-linecap:square;stroke-miterlimit:4;stroke-dasharray:none;paint-order:markers fill stroke;stroke-opacity:1"
       d="m 133.13636,68.32139 c -0.74639,2.4e-5 -1.35137,0.605307 -1.35111,1.351761 0,0.502068 0.32463,0.891332 0.72405,1.195478 3.85339,2.934317 7.91941,4.44467 14.4726,0.02864 0.42458,-0.286099 0.75877,-0.684102 0.75913,-1.196107 2.6e-4,-0.730962 -0.59216,-1.323664 -1.32303,-1.323702 -0.45495,4.57e-4 -0.77847,0.318997 -1.11959,0.62007 -3.65831,3.228638 -7.56189,2.593149 -9.27797,1.191639 -1.86326,-1.55162 -2.34823,-1.867926 -2.88408,-1.86784 z"
       id="path18893" />
    <path
       style="fill:#000000;fill-opacity:1;stroke:none;stroke-width:0.1;stroke-linecap:square;stroke-miterlimit:4;stroke-dasharray:none;paint-order:markers fill stroke;stroke-opacity:1"
       d="m 126.90638,48.546956 c -6.04488,0 -5.82451,0.980719 -10.9111,8.244555 -3.3922,4.844216 4.61181,8.244554 10.9111,8.244554 h 10.47795 c 0.5121,-1.352785 1.15427,-3.413535 2.37435,-3.372069 1.08438,0.18038 1.76508,1.985732 2.30099,3.372069 h 11.0795 c 6.07014,0 13.62107,-4.480196 10.91108,-8.244554 -4.9338,-6.853328 -4.86615,-8.244555 -10.91108,-8.244555 z"
       id="path18887" />
    <path
       style="fill:#4d4d4d;fill-opacity:1;stroke:none;stroke-width:0.1;stroke-linecap:square;stroke-miterlimit:4;stroke-dasharray:none;stroke-opacity:1;paint-order:markers fill stroke"
       d="m 54.459354,73.517386 c 6.854007,-7.157994 15.721027,-5.244724 23.371756,3.167334 6.057939,6.66074 5.651072,12.046588 4.640616,18.135105 -0.298963,1.801402 -3.03084,2.223266 -4.301991,4.940368 -2.365378,5.056087 0.920267,11.264037 5.471001,16.378057 4.249465,4.77547 10.057956,8.98395 17.725204,7.58037 3.04571,-0.55756 1.97299,-2.90309 5.10383,-4.20951 3.8375,-1.60125 13.67306,-1.27815 18.89886,4.53511 3.44925,3.83699 9.04878,9.53102 6.63409,16.53409 -2.62834,7.62273 -8.86032,11.11847 -17.54605,12.16263 -17.756679,2.13461 -31.222997,-9.27111 -44.474593,-21.01587 -13.396362,-11.8731 -22.961075,-26.46581 -21.421219,-45.888996 0.460985,-5.81475 3.028605,-9.321499 5.898496,-12.318688 z"
       id="path16476"
       sodipodi:nodetypes="sssssssssssss" />
    <path
       style="fill:#ffffff;fill-opacity:1;stroke:#ff261e;stroke-width:0.1;stroke-linecap:square;stroke-miterlimit:4;stroke-dasharray:none;paint-order:markers fill stroke;stroke-opacity:1"
       d="m 149.74415,52.592685 a 3.9637665,3.964121 0 0 1 3.96341,3.964068 3.9637665,3.964121 0 0 1 -3.96341,3.964069 3.9637665,3.964121 0 0 1 -3.9641,-3.964069 3.9637665,3.964121 0 0 1 3.9641,-3.964068 z"
       id="path18891" />
    <path
       style="fill:#ffffff;fill-opacity:1;stroke:#ff261e;stroke-width:0.1;stroke-linecap:square;stroke-miterlimit:4;stroke-dasharray:none;paint-order:markers fill stroke;stroke-opacity:1"
       d="m 129.64243,52.592685 a 3.9637665,3.964121 0 0 1 3.96346,3.964068 3.9637665,3.964121 0 0 1 -3.96346,3.964069 3.9637665,3.964121 0 0 1 -3.96407,-3.964069 3.9637665,3.964121 0 0 1 3.96407,-3.964068 z"
       id="path18889" />
    <path
       style="fill:#4d4d4d;fill-opacity:1;stroke:#000000;stroke-width:1.3;stroke-linecap:round;stroke-miterlimit:4;stroke-dasharray:none;stroke-opacity:1;paint-order:markers fill stroke"
       d="m 127.22573,121.87381 -0.79124,-10.58672"
       id="path22723"
       sodipodi:nodetypes="cc" />
    <path
       style="fill:#4d4d4d;fill-opacity:1;stroke:#000000;stroke-width:1.3;stroke-linecap:round;stroke-miterlimit:4;stroke-dasharray:none;stroke-opacity:1;paint-order:markers fill stroke"
       d="m 134.10649,129.63685 11.1367,-0.22048"
       id="path22989"
       sodipodi:nodetypes="cc" />
    <path
       style="fill:#4d4d4d;fill-opacity:1;stroke:#000000;stroke-width:1.3;stroke-linecap:round;stroke-miterlimit:4;stroke-dasharray:none;stroke-opacity:1;paint-order:markers fill stroke"
       d="m 129.72777,122.75823 5.95938,-12.40602"
       id="path22991"
       sodipodi:nodetypes="cc" />
    <path
       style="fill:#4d4d4d;fill-opacity:1;stroke:#000000;stroke-width:1.3;stroke-linecap:round;stroke-miterlimit:4;stroke-dasharray:none;stroke-opacity:1;paint-order:markers fill stroke"
       d="m 133.43016,126.70562 14.51449,-7.16868"
       id="path22993"
       sodipodi:nodetypes="cc" />
    <path
       style="fill:#4d4d4d;fill-opacity:1;stroke:#000000;stroke-width:1.3;stroke-linecap:round;stroke-miterlimit:4;stroke-dasharray:none;stroke-opacity:1;paint-order:markers fill stroke"
       d="m 131.82028,124.37749 14.1962,-13.78516"
       id="path23108"
       sodipodi:nodetypes="cc" />
  </g>
</svg>
