<?xml version="1.0" standalone="no"?>
<!DOCTYPE svg PUBLIC "-//W3C//DTD SVG 20010904//EN"
 "http://www.w3.org/TR/2001/REC-SVG-20010904/DTD/svg10.dtd">
<svg version="1.0" xmlns="http://www.w3.org/2000/svg"
 width="700.000000pt" height="700.000000pt" viewBox="0 0 700.000000 700.000000"
 preserveAspectRatio="xMidYMid meet">
<metadata>
Created by potrace 1.14, written by Peter Selinger 2001-2017
</metadata>
<g transform="translate(0.000000,700.000000) scale(0.100000,-0.100000)"
fill="#000000" stroke="none">
<path d="M3305 6993 c-277 -15 -618 -79 -897 -169 -371 -120 -782 -343 -1103
-600 -140 -111 -415 -386 -529 -529 -347 -434 -593 -957 -701 -1490 -53 -264
-69 -424 -69 -705 0 -282 16 -443 69 -705 109 -536 353 -1055 701 -1490 114
-142 388 -417 529 -529 773 -616 1734 -877 2708 -735 604 87 1196 346 1682
735 143 115 418 390 529 529 420 528 672 1134 752 1805 24 198 24 582 0 780
-128 1081 -717 2010 -1640 2588 -220 138 -556 290 -811 367 -388 118 -814 170
-1220 148z m593 -762 c545 -82 1048 -319 1451 -683 l52 -47 -215 -185 -215
-185 -90 19 c-462 101 -1227 160 -1696 131 -656 -41 -1159 -124 -1535 -253
-155 -54 -371 -160 -505 -250 -60 -40 -116 -77 -124 -82 -23 -14 93 198 177
323 260 393 603 703 1019 923 322 170 703 281 1078 312 121 10 473 -4 603 -23z
m2100 -1566 c-2 -2 -38 23 -81 54 l-78 56 37 34 37 34 44 -87 c24 -49 43 -89
41 -91z m-1733 -141 c-87 -78 -123 -104 -144 -104 -14 0 -21 -6 -21 -19 0 -12
-35 -49 -87 -95 l-88 -76 -522 0 -523 0 0 95 0 95 -190 0 -190 0 0 -211 c0
-175 -3 -217 -16 -246 -42 -87 -229 -180 -523 -257 -265 -71 -482 -257 -587
-506 -79 -188 -94 -325 -94 -850 0 -385 -1 -397 -20 -415 -11 -10 -22 -16 -24
-14 -19 19 -147 234 -190 318 -195 381 -289 756 -303 1199 l-6 202 47 -21
c107 -47 94 -50 703 160 304 105 566 197 582 205 53 28 81 72 81 127 0 67 -17
103 -84 179 -71 81 -116 156 -116 195 0 38 9 51 40 64 16 6 441 10 1170 10
l1145 0 -40 -35z m1219 -744 c538 -185 561 -192 615 -186 34 4 77 19 110 37
l54 31 -6 -214 c-13 -462 -112 -844 -318 -1238 -57 -109 -220 -363 -240 -375
-5 -4 -9 176 -9 465 0 260 -5 514 -10 568 -48 438 -289 737 -681 842 -63 17
-154 44 -202 62 -72 25 -86 33 -75 44 49 47 192 163 197 160 3 -2 257 -90 565
-196z m-2005 66 c-2 -2 -78 -67 -168 -145 l-164 -142 -32 31 c-28 27 -40 32
-89 33 -60 1 -91 -15 -130 -66 -28 -38 -27 -117 2 -157 12 -16 22 -31 22 -33
0 -2 -38 -36 -84 -75 -66 -56 -92 -72 -116 -72 -63 0 -140 -66 -140 -120 0
-22 -14 -40 -65 -85 -60 -52 -65 -55 -65 -32 0 82 79 287 157 404 47 72 169
201 246 260 118 91 276 160 430 188 66 12 206 20 196 11z m890 -506 c85 -142
128 -289 138 -467 16 -306 -77 -560 -286 -776 -99 -102 -185 -165 -302 -221
-136 -65 -227 -87 -396 -93 -311 -12 -520 63 -763 277 l-35 30 70 65 c39 35
72 65 75 65 3 0 6 -25 6 -55 0 -39 5 -62 20 -82 40 -55 128 -79 188 -52 42 20
81 86 80 136 -2 79 -76 148 -151 140 -24 -2 -43 -3 -43 -2 0 2 23 22 50 45
l51 43 37 -30 c109 -88 221 -126 367 -126 171 1 303 58 420 184 115 124 160
249 153 424 -5 108 -30 201 -74 267 l-24 37 103 89 c56 49 134 117 172 150
l70 61 17 -22 c10 -12 35 -51 57 -87z m951 -1909 c0 -14 -182 -155 -304 -236
-341 -225 -728 -370 -1151 -432 -168 -24 -562 -24 -730 1 -465 68 -908 246
-1259 505 l-59 44 49 44 c27 24 63 53 79 63 29 20 62 20 1703 20 928 0 1672
-4 1672 -9z"/>
<path d="M4202 3200 c-95 -58 -96 -202 -1 -250 127 -65 261 58 200 183 -38 78
-130 109 -199 67z"/>
<path d="M4213 2700 c-142 -64 -93 -270 64 -270 82 0 152 85 137 166 -9 48
-57 101 -102 114 -48 13 -50 13 -99 -10z"/>
<path d="M3914 2296 c-92 -40 -110 -168 -34 -241 23 -22 41 -29 82 -32 62 -5
106 17 138 69 72 118 -57 260 -186 204z"/>
<path d="M3462 2150 c-69 -16 -122 -101 -107 -172 9 -41 59 -94 101 -108 92
-31 184 39 184 137 0 96 -86 164 -178 143z"/>
</g>
</svg>
