<svg xmlns="http://www.w3.org/2000/svg" viewBox="0 0 135.46667 135.46666"><g transform="translate(-88.481424,-17.533533)"><path fill="#00d1b2" d="m 156.21478,17.533534 c -33.42803,1.36e-4 -60.526765,27.587367 -60.526596,61.617808 0.01016,12.683584 3.863795,25.055138 11.036526,35.425978 3.61637,12.49979 1.52076,25.30386 -6.4965,38.42288 7.43948,-0.61624 15.50982,-1.95371 34.75775,-16.07222 6.81003,2.6181 13.94936,3.83189 21.22882,3.84115 33.42808,-9e-5 60.52677,-27.58733 60.52655,-61.617788 2.2e-4,-34.030457 -27.09847,-61.617725 -60.52655,-61.617808 z"/><path fill="#fff" d="m 183.07479,102.33493 c 2.12213,0 3.83065,1.70852 3.83065,3.83064 v 13.30828 c 0,2.12212 -1.70852,3.82977 -3.83065,3.82977 -2.12212,0 -3.83059,-1.70765 -3.83065,-3.82977 v -13.30828 c 6e-5,-2.12212 1.70853,-3.83064 3.83065,-3.83064 z"/><path fill="#fff" d="m 129.35473,102.33493 c 2.12213,0 3.83066,1.70852 3.83066,3.83064 v 13.30828 c 0,2.12212 -1.70853,3.82977 -3.83066,3.82977 -2.12212,0 -3.83062,-1.70765 -3.83062,-3.82977 v -13.30828 c 0,-2.12212 1.7085,-3.83064 3.83062,-3.83064 z"/><path fill="#fff" d="m 134.83185,102.25341 h 3.88231 35.08443 3.88231 v 4.17045 18.20649 2.29015 c 0,2.31031 -1.73158,4.16955 -3.88231,4.16955 h -35.08443 c -2.15073,0 -3.88231,-1.85924 -3.88231,-4.16955 v -2.29015 -18.20649 z"/><path fill="#fff" d="m 155.96341,23.709515 a 5.4850878,5.4855783 0 0 1 5.48502,5.484972 5.4850878,5.4855783 0 0 1 -3.80438,5.219628 v 6.091888 c 0,0.212281 -0.0349,0.415921 -0.0988,0.604291 h 6.00081 c 0.8031,0 1.47831,0.528889 1.69811,1.258487 17.19755,0.662301 30.81416,12.875735 30.81416,27.948617 v 2.522232 c 0,19.682458 -9.53639,27.97927 -32.28549,27.97927 h -15.11586 c -20.00437,0 -32.28544,-5.543657 -32.28544,-27.97927 v -2.522232 c 0,-14.997721 13.48067,-27.165551 30.55664,-27.93899 0.21676,-0.734548 0.89321,-1.268114 1.69993,-1.268114 h 5.76696 c -0.0641,-0.18837 -0.0988,-0.39201 -0.0988,-0.604291 v -6.086635 a 5.4850878,5.4855783 0 0 1 -3.81752,-5.224881 5.4850878,5.4855783 0 0 1 5.48498,-5.484972 z"/><path fill="#00d1b2" d="m 147.09882,87.257516 c -1.02468,3.3e-5 -1.85522,0.830994 -1.85486,1.855762 0,0.689263 0.44566,1.223663 0.99401,1.641209 5.29011,4.02837 10.87214,6.101854 19.86867,0.03932 0.58288,-0.39277 1.04167,-0.939168 1.04217,-1.642072 3.6e-4,-1.0035 -0.81295,-1.817189 -1.81632,-1.817241 -0.62458,6.27e-4 -1.06872,0.437934 -1.53703,0.851261 -5.0223,4.432428 -10.38132,3.559998 -12.73723,1.635939 -2.55798,-2.130138 -3.22377,-2.564378 -3.95941,-2.56426 z"/><path fill="#404040" d="m 138.54601,60.110234 c -8.2987,0 -7.99616,1.346378 -14.97927,11.318517 -4.65698,6.650369 6.33131,11.318515 14.97927,11.318515 h 14.38463 c 0.70303,-1.857168 1.58464,-4.686263 3.25962,-4.629337 1.48869,0.247635 2.42319,2.726108 3.15891,4.629337 h 15.21046 c 8.33338,0 18.69965,-6.150626 14.97925,-11.318515 -6.77335,-9.408575 -6.68048,-11.318517 -14.97925,-11.318517 z"/><path fill="#fff" d="m 169.89879,65.664403 a 5.4416469,5.4421336 0 0 1 5.44115,5.442061 5.4416469,5.4421336 0 0 1 -5.44115,5.442062 5.4416469,5.4421336 0 0 1 -5.44211,-5.442062 5.4416469,5.4421336 0 0 1 5.44211,-5.442061 z"/><path fill="#fff" d="m 142.30219,65.664403 a 5.4416469,5.4421336 0 0 1 5.44123,5.442061 5.4416469,5.4421336 0 0 1 -5.44123,5.442062 5.4416469,5.4421336 0 0 1 -5.44206,-5.442062 5.4416469,5.4421336 0 0 1 5.44206,-5.442061 z"/></g></svg>