<?xml version="1.0" encoding="UTF-8" standalone="no"?>
<!-- Created with Inkscape (http://www.inkscape.org/) -->

<svg
   width="88.463341mm"
   height="96.964935mm"
   viewBox="0 0 88.463341 96.964935"
   version="1.1"
   id="svg5"
   inkscape:version="1.1.2 (0a00cf5339, 2022-02-04)"
   sodipodi:docname="spamblocker-logo.svg"
   xmlns:inkscape="http://www.inkscape.org/namespaces/inkscape"
   xmlns:sodipodi="http://sodipodi.sourceforge.net/DTD/sodipodi-0.dtd"
   xmlns:xlink="http://www.w3.org/1999/xlink"
   xmlns="http://www.w3.org/2000/svg"
   xmlns:svg="http://www.w3.org/2000/svg">
  <sodipodi:namedview
     id="namedview7"
     pagecolor="#ffffff"
     bordercolor="#666666"
     borderopacity="1.0"
     inkscape:pageshadow="2"
     inkscape:pageopacity="0.0"
     inkscape:pagecheckerboard="0"
     inkscape:document-units="mm"
     showgrid="false"
     fit-margin-top="5"
     fit-margin-left="5"
     fit-margin-right="5"
     fit-margin-bottom="5"
     inkscape:zoom="1.2810466"
     inkscape:cx="237.69628"
     inkscape:cy="215.83915"
     inkscape:window-width="2560"
     inkscape:window-height="1372"
     inkscape:window-x="0"
     inkscape:window-y="0"
     inkscape:window-maximized="1"
     inkscape:current-layer="layer1" />
  <defs
     id="defs2">
    <linearGradient
       inkscape:collect="always"
       id="linearGradient3389-6-8">
      <stop
         style="stop-color:#01c0fa;stop-opacity:1"
         offset="0"
         id="stop3769" />
      <stop
         style="stop-color:#015eea;stop-opacity:1"
         offset="1"
         id="stop3771" />
    </linearGradient>
    <linearGradient
       inkscape:collect="always"
       xlink:href="#linearGradient3389-6-8"
       id="linearGradient3617"
       gradientUnits="userSpaceOnUse"
       x1="39.426403"
       y1="24.586807"
       x2="39.95369"
       y2="112.11227"
       gradientTransform="translate(25.591774,19.566834)" />
  </defs>
  <g
     inkscape:label="Layer 1"
     inkscape:groupmode="layer"
     id="layer1"
     transform="translate(-25.591774,-19.566834)">
    <path
       id="path954"
       style="fill:url(#linearGradient3617);fill-opacity:1;stroke-width:1"
       d="m 65.080155,111.13211 c -2.494082,-0.53468 -4.896943,-1.67165 -6.33576,-2.99791 -1.257543,-1.15916 -2.131351,-2.92867 -1.978819,-4.0072 l 0.08903,-0.62952 H 69.95148 83.048355 l 0.08232,0.85198 c 0.264965,2.74231 -3.583312,5.83628 -8.471685,6.81112 -2.538817,0.5063 -7.148298,0.4926 -9.578834,-0.0285 z m 4.915571,-86.564101 c -3.59951,-0.05624 -7.266791,1.911959 -8.643916,4.82296 -0.766032,1.619266 -2.633586,3.138848 -5.577438,4.538226 -7.445983,3.539498 -11.761311,13.008933 -12.412162,27.235031 -0.20815,4.549724 -0.780267,7.837162 -1.979724,11.377083 -1.755655,5.181415 -3.589882,8.211587 -6.819738,11.267527 -2.369963,2.242349 -3.394668,4.24166 -3.803385,7.421253 -0.255948,1.991114 -0.233728,2.464319 0.171047,3.682979 1.168546,3.518167 5.93607,5.956732 12.845212,6.570142 3.700144,0.3285 47.924311,0.3422 51.642326,0.016 8.092912,-0.71002 12.907382,-3.388249 13.572812,-7.550444 0.26539,-1.660025 -0.31732,-4.791453 -1.24695,-6.700367 -0.57357,-1.177779 -1.38965,-2.230011 -2.66805,-3.439583 -3.2665,-3.090608 -5.184409,-6.296811 -6.897774,-11.53211 -1.215429,-3.713811 -1.687991,-6.483779 -1.894975,-11.1125 -0.439224,-9.822273 -2.482442,-16.983263 -6.30401,-22.092708 -1.94815,-2.604686 -3.738266,-4.048054 -6.850742,-5.523696 -2.151118,-1.019857 -4.564597,-3.155452 -4.976442,-4.403349 -0.600911,-1.820783 -3.680222,-3.878041 -6.624402,-4.425569 -0.504584,-0.09384 -1.017474,-0.14286 -1.531689,-0.150895 z m -0.176733,29.055592 c 11.343166,0 17.594791,0.09236 17.594791,0.259932 0,0.142957 -0.45857,1.00616 -1.019574,1.918229 -1.201042,1.952628 -6.432188,10.243439 -7.306533,11.580172 -0.333142,0.509323 -1.721487,2.711979 -3.085081,4.894792 l -2.479437,3.96875 -0.132291,3.827155 c -0.152721,4.418126 0.268851,3.826888 -3.869013,5.426025 -2.52499,0.975818 -2.809293,1.045773 -3.098004,0.75706 -0.09701,-0.09701 -0.176733,-2.338885 -0.176733,-4.981609 V 76.469234 L 63.699987,72.388345 C 62.299069,70.143996 60.881476,67.891257 60.549276,67.381934 59.643393,65.993049 54.41117,57.698848 53.244294,55.801762 52.68329,54.889693 52.224201,54.02649 52.224201,53.883533 c 0,-0.167571 6.251625,-0.259932 17.594792,-0.259932 z" />
  </g>
</svg>
