<?xml version="1.0" encoding="UTF-8" standalone="no"?>
<!-- Created with Inkscape (http://www.inkscape.org/) -->

<svg
   width="210mm"
   height="297mm"
   viewBox="0 0 210 297"
   version="1.1"
   id="svg1047"
   inkscape:version="1.1.2 (0a00cf5339, 2022-02-04)"
   sodipodi:docname="sticker-cut.svg"
   xmlns:inkscape="http://www.inkscape.org/namespaces/inkscape"
   xmlns:sodipodi="http://sodipodi.sourceforge.net/DTD/sodipodi-0.dtd"
   xmlns="http://www.w3.org/2000/svg"
   xmlns:svg="http://www.w3.org/2000/svg">
  <sodipodi:namedview
     id="namedview1049"
     pagecolor="#ffffff"
     bordercolor="#666666"
     borderopacity="1.0"
     inkscape:pageshadow="2"
     inkscape:pageopacity="0.0"
     inkscape:pagecheckerboard="0"
     inkscape:document-units="mm"
     showgrid="false"
     inkscape:zoom="2.5620931"
     inkscape:cx="220.32767"
     inkscape:cy="117.28692"
     inkscape:window-width="2560"
     inkscape:window-height="1372"
     inkscape:window-x="0"
     inkscape:window-y="0"
     inkscape:window-maximized="1"
     inkscape:current-layer="g16351" />
  <defs
     id="defs1044" />
  <g
     inkscape:label="Layer 1"
     inkscape:groupmode="layer"
     id="layer1">
    <text
       xml:space="preserve"
       style="font-weight:bold;font-size:17.6389px;line-height:1.25;font-family:sans-serif;-inkscape-font-specification:'sans-serif Bold';letter-spacing:0px;word-spacing:0px;stroke-width:0.264583"
       x="93.684631"
       y="104.31956"
       id="text3529"><tspan
         sodipodi:role="line"
         id="tspan3527"
         style="font-size:17.6389px;stroke-width:0.264583"
         x="93.684631"
         y="104.31956" /><tspan
         sodipodi:role="line"
         style="font-size:17.6389px;stroke-width:0.264583"
         x="93.684631"
         y="126.36818"
         id="tspan8815" /></text>
    <g
       id="g16351">
      <path
         id="path4696"
         style="fill:none;stroke:#fd0c0c;stroke-width:0.1;stroke-opacity:1"
         d="m 14.805572,7.2238514 c -0.209688,0.00279 -0.419141,0.010632 -0.628085,0.028975 -0.230698,0.020596 -0.460292,0.052271 -0.688203,0.093558 -0.227619,0.042287 -0.453106,0.095486 -0.675978,0.1581341 -0.222699,0.063682 -0.44214,0.1382553 -0.658144,0.2218167 -0.215565,0.08439 -0.426779,0.1795094 -0.633786,0.2830641 -0.206551,0.104566 -0.407919,0.2190623 -0.604091,0.3419368 -0.195721,0.1233608 -0.38501,0.2566582 -0.568613,0.3973517 C 10.165671,8.8902406 9.989876,9.0408493 9.8205221,9.1984047 9.6500337,9.3578502 9.4884089,9.5264447 9.3332467,9.700745 9.1806566,9.8744676 9.0367836,10.055616 8.9003506,10.242238 c -0.1366314,0.189111 -0.2632673,0.385143 -0.3825371,0.585585 -0.116329,0.199744 -0.2232018,0.404796 -0.3217346,0.613859 -0.096826,0.209727 -0.1835639,0.423902 -0.2616926,0.641258 -0.076392,0.218078 -0.1424203,0.439609 -0.1994327,0.663521 -0.05497,0.224256 -0.099652,0.450862 -0.1350327,0.679026 -0.033471,0.228522 -0.056379,0.458449 -0.06987,0.689031 -0.011783,0.230647 -0.012429,0.461696 -0.0039,0.692498 0.0106,0.230663 0.031807,0.460679 0.062339,0.689585 0.03233,0.228628 0.075469,0.455592 0.1275942,0.680579 0.054082,0.224544 0.1186957,0.446415 0.1920743,0.665468 0.075055,0.218489 0.1605529,0.433225 0.2545564,0.644313 0.094923,0.208296 0.1990781,0.412257 0.3118692,0.611529 0.1147327,0.200564 0.239373,0.395308 0.3716705,0.584828 0.1333942,0.188806 0.2760874,0.370903 0.4259177,0.547049 0.1494771,0.17354 0.3068804,0.340155 0.4713839,0.499652 0.1681749,0.161847 0.3444409,0.315127 0.5265269,0.461259 0.181345,0.14364 0.369773,0.278145 0.563215,0.405153 0.19416,0.125934 0.394555,0.242082 0.599287,0.350141 0.205374,0.10667 0.415748,0.203498 0.62983,0.291573 0.214561,0.08694 0.433271,0.163337 0.654801,0.230754 0.22196,0.06615 0.447053,0.121329 0.674063,0.167454 0.227198,0.0447 0.456409,0.07848 0.686711,0.102869 0.23044,0.02299 0.461864,0.03506 0.693465,0.03752 0.260802,4.93e-4 0.521764,-0.01137 0.781249,-0.03766 0.287571,-0.02989 0.573562,-0.0749 0.855532,-0.138893 0.262498,-0.05748 0.520964,-0.132555 0.775617,-0.217961 0.274835,-0.09602 0.545433,-0.204497 0.807003,-0.332372 0.223482,-0.10617 0.439521,-0.227247 0.651246,-0.355031 0.229712,-0.14324 0.453968,-0.295823 0.6665,-0.463512 0.226565,-0.175496 0.441285,-0.36574 0.645313,-0.566781 0.187477,-0.185767 0.364826,-0.381808 0.531435,-0.586385 0.03141,-0.01873 0.07969,-0.0029 0.117691,-0.0081 4.491768,-3.21e-4 8.983549,6.41e-4 13.475308,-4.69e-4 0.768425,-0.0023 1.540519,-0.198856 2.199242,-0.597597 0.767813,-0.458667 1.365861,-1.172852 1.73324,-1.982413 0.499448,-1.097256 0.610793,-2.371953 0.280674,-3.533429 -0.216471,-0.761758 -0.639529,-1.471173 -1.240758,-1.992892 -0.568801,-0.500207 -1.286315,-0.816431 -2.03028,-0.947544 -0.399084,-0.074069 -0.806081,-0.089325 -1.21115,-0.084144 -4.437315,0 -8.874631,0 -13.311946,0 C 20.347117,9.7444061 20.185184,9.5669629 20.018088,9.394678 19.830835,9.2082868 19.636616,9.0284431 19.430539,8.862834 19.210182,8.6826835 18.978562,8.5165406 18.738301,8.363804 18.538859,8.2362439 18.331962,8.1207063 18.121377,8.0124692 17.888684,7.8962257 17.650781,7.7899505 17.407307,7.6981083 17.14281,7.5986415 16.873088,7.5128871 16.598622,7.4452085 16.358774,7.3830296 16.114798,7.337989 15.86994,7.3003689 c -0.257765,-0.036196 -0.517312,-0.060976 -0.777494,-0.070451 -0.09562,-0.00183 -0.191248,-0.00521 -0.286873,-0.00606 z" />
      <rect
         style="fill:none;stroke:#070000;stroke-width:0.0999998;stroke-opacity:1"
         id="rect4526"
         width="34.900002"
         height="17.9"
         x="5.5499997"
         y="5.5499997" />
      <path
         id="path6086"
         style="fill:none;stroke:#fd0c0c;stroke-width:0.1;stroke-opacity:1"
         d="m 51.805572,7.2238514 c -0.209688,0.00279 -0.419141,0.010632 -0.628085,0.028975 -0.230698,0.020596 -0.460291,0.052271 -0.688203,0.093558 -0.227619,0.042287 -0.453105,0.095486 -0.675978,0.1581341 -0.222699,0.063682 -0.44214,0.1382553 -0.658144,0.2218167 -0.215565,0.08439 -0.426778,0.1795094 -0.633786,0.2830641 -0.206551,0.1045658 -0.407918,0.2190621 -0.604091,0.3419366 -0.195721,0.1233608 -0.38501,0.2566582 -0.568613,0.3973517 -0.183001,0.1415528 -0.358796,0.2921615 -0.52815,0.4497169 -0.170488,0.1594455 -0.332113,0.32804 -0.487275,0.5023403 -0.15259,0.1737226 -0.296463,0.3548712 -0.432896,0.5414932 -0.136632,0.18911 -0.263268,0.385143 -0.382538,0.585585 -0.116328,0.199744 -0.223201,0.404796 -0.321734,0.613859 -0.09683,0.209727 -0.183564,0.423902 -0.261693,0.641258 -0.07639,0.218078 -0.14242,0.439609 -0.199432,0.663521 -0.05497,0.224256 -0.09965,0.450862 -0.135033,0.679026 -0.03347,0.228522 -0.05638,0.458449 -0.06987,0.689031 -0.01178,0.230647 -0.01243,0.461696 -0.0039,0.692498 0.0106,0.230663 0.03181,0.460679 0.06234,0.689585 0.03233,0.228628 0.07547,0.455592 0.127594,0.680579 0.05408,0.224544 0.118696,0.446415 0.192074,0.665468 0.07505,0.218489 0.160553,0.433225 0.254557,0.644313 0.09492,0.208296 0.199078,0.412257 0.311869,0.611529 0.114733,0.200564 0.239373,0.395308 0.37167,0.584828 0.133394,0.188806 0.276088,0.370903 0.425918,0.547049 0.149477,0.17354 0.30688,0.340155 0.471384,0.499652 0.168175,0.161847 0.344441,0.315127 0.526527,0.461259 0.181344,0.14364 0.369773,0.278145 0.563215,0.405153 0.19416,0.125934 0.394555,0.242082 0.599287,0.350141 0.205374,0.10667 0.415748,0.203498 0.629831,0.291573 0.21456,0.08694 0.43327,0.163337 0.654801,0.230754 0.221959,0.06615 0.447052,0.121329 0.674063,0.167454 0.227197,0.0447 0.456409,0.07848 0.68671,0.102869 0.23044,0.02299 0.461864,0.03506 0.693465,0.03752 0.260802,4.93e-4 0.521764,-0.01137 0.781249,-0.03766 0.287572,-0.02989 0.573562,-0.0749 0.855533,-0.138893 0.262497,-0.05748 0.520963,-0.132555 0.775616,-0.217961 0.274835,-0.09602 0.545433,-0.204497 0.807003,-0.332372 0.223482,-0.10617 0.439521,-0.227247 0.651246,-0.355031 0.229712,-0.14324 0.453968,-0.295823 0.666501,-0.463512 0.226565,-0.175496 0.441284,-0.36574 0.645312,-0.566781 0.187477,-0.185767 0.364826,-0.381808 0.531436,-0.586385 0.0314,-0.01873 0.07969,-0.0029 0.11769,-0.0081 4.491768,-3.21e-4 8.983549,6.41e-4 13.475308,-4.69e-4 0.768425,-0.0023 1.540519,-0.198856 2.199242,-0.597597 0.767814,-0.458667 1.365861,-1.172852 1.73324,-1.982413 0.499448,-1.097256 0.610794,-2.371953 0.280674,-3.533429 -0.21647,-0.761758 -0.639528,-1.471173 -1.240758,-1.992892 -0.568801,-0.500207 -1.286315,-0.816431 -2.03028,-0.947544 -0.399084,-0.074069 -0.806081,-0.089325 -1.21115,-0.084144 -4.437315,0 -8.874631,0 -13.311946,0 C 57.347117,9.7444061 57.185184,9.5669629 57.018088,9.394678 56.830836,9.2082868 56.636616,9.0284431 56.430539,8.862834 56.210182,8.6826835 55.978562,8.5165406 55.738301,8.363804 55.538859,8.2362439 55.331962,8.1207063 55.121377,8.0124692 54.888684,7.8962257 54.650781,7.7899505 54.407308,7.6981083 54.14281,7.5986415 53.873088,7.5128871 53.598622,7.4452085 53.358774,7.3830296 53.114798,7.337989 52.86994,7.3003689 c -0.257765,-0.036196 -0.517312,-0.060976 -0.777493,-0.070451 -0.09562,-0.00183 -0.191248,-0.00521 -0.286874,-0.00606 z" />
      <rect
         style="fill:none;stroke:#070000;stroke-width:0.0999998;stroke-opacity:1"
         id="rect6090"
         width="34.900002"
         height="17.9"
         x="42.549999"
         y="5.5499997" />
      <path
         id="path6110"
         style="fill:none;stroke:#fd0c0c;stroke-width:0.1;stroke-opacity:1"
         d="m 14.805572,27.223852 c -0.209688,0.0028 -0.419141,0.01063 -0.628085,0.02897 -0.230698,0.0206 -0.460292,0.05227 -0.688203,0.09356 -0.227619,0.04229 -0.453106,0.09549 -0.675978,0.158134 -0.222699,0.06368 -0.44214,0.138255 -0.658144,0.221816 -0.215565,0.08439 -0.426779,0.17951 -0.633786,0.283065 -0.206551,0.104565 -0.407919,0.219062 -0.604091,0.341936 -0.195721,0.123361 -0.38501,0.256658 -0.568613,0.397352 -0.183001,0.141553 -0.358796,0.292161 -0.5281499,0.449717 -0.1704884,0.159445 -0.3321132,0.32804 -0.4872754,0.50234 -0.1525901,0.173723 -0.2964631,0.354871 -0.4328961,0.541493 -0.1366314,0.189111 -0.2632673,0.385143 -0.3825371,0.585585 -0.116329,0.199744 -0.2232018,0.404796 -0.3217346,0.61386 -0.096826,0.209726 -0.1835639,0.423901 -0.2616926,0.641258 -0.076392,0.218078 -0.1424203,0.439608 -0.1994327,0.663521 -0.05497,0.224255 -0.099652,0.450861 -0.1350327,0.679025 -0.033471,0.228523 -0.056379,0.458449 -0.06987,0.689031 -0.011783,0.230647 -0.012429,0.461696 -0.0039,0.692499 0.0106,0.230662 0.031807,0.460678 0.062339,0.689585 0.03233,0.228627 0.075469,0.455591 0.1275942,0.680579 0.054082,0.224544 0.1186957,0.446414 0.1920743,0.665468 0.075055,0.218488 0.1605529,0.433225 0.2545564,0.644313 0.094923,0.208295 0.1990781,0.412257 0.3118692,0.611528 0.1147327,0.200564 0.239373,0.395309 0.3716705,0.584828 0.1333942,0.188806 0.2760874,0.370904 0.4259177,0.54705 0.1494771,0.173539 0.3068804,0.340155 0.4713839,0.499652 0.1681749,0.161846 0.3444409,0.315127 0.5265269,0.461259 0.181345,0.14364 0.369773,0.278144 0.563215,0.405152 0.19416,0.125934 0.394555,0.242082 0.599287,0.350141 0.205374,0.106671 0.415748,0.203498 0.62983,0.291573 0.214561,0.08694 0.433271,0.163337 0.654801,0.230755 0.22196,0.06615 0.447053,0.121328 0.674063,0.167454 0.227198,0.0447 0.456409,0.07848 0.686711,0.102869 0.23044,0.02299 0.461864,0.03506 0.693465,0.03752 0.260802,4.93e-4 0.521764,-0.01137 0.781249,-0.03766 0.287571,-0.02989 0.573562,-0.0749 0.855532,-0.138892 0.262498,-0.05749 0.520964,-0.132556 0.775617,-0.217961 0.274835,-0.09602 0.545433,-0.204497 0.807003,-0.332373 0.223482,-0.10617 0.439521,-0.227247 0.651246,-0.355031 0.229712,-0.14324 0.453968,-0.295823 0.6665,-0.463512 0.226565,-0.175496 0.441285,-0.36574 0.645313,-0.566781 0.187477,-0.185767 0.364826,-0.381808 0.531435,-0.586384 0.03141,-0.01873 0.07969,-0.0029 0.117691,-0.0081 4.491768,-3.2e-4 8.983549,6.42e-4 13.475308,-4.68e-4 0.768425,-0.0023 1.540519,-0.198857 2.199242,-0.597598 0.767813,-0.458666 1.365861,-1.172851 1.73324,-1.982413 0.499448,-1.097256 0.610793,-2.371953 0.280674,-3.533429 -0.216471,-0.761758 -0.639529,-1.471173 -1.240758,-1.992891 -0.568801,-0.500208 -1.286315,-0.816432 -2.03028,-0.947545 -0.399084,-0.07407 -0.806081,-0.08932 -1.21115,-0.08414 -4.437315,0 -8.874631,0 -13.311946,0 -0.150252,-0.187123 -0.312185,-0.364566 -0.479281,-0.536851 -0.187253,-0.186391 -0.381472,-0.366235 -0.587549,-0.531844 -0.220357,-0.18015 -0.451977,-0.346293 -0.692238,-0.49903 -0.199442,-0.12756 -0.406339,-0.243098 -0.616924,-0.351335 -0.232693,-0.116243 -0.470596,-0.222518 -0.71407,-0.314361 -0.264497,-0.09947 -0.534219,-0.185221 -0.808685,-0.252899 -0.239848,-0.06218 -0.483824,-0.10722 -0.728682,-0.14484 -0.257765,-0.0362 -0.517312,-0.06098 -0.777494,-0.07045 -0.09562,-0.0018 -0.191248,-0.0052 -0.286873,-0.0061 z" />
      <rect
         style="fill:none;stroke:#070000;stroke-width:0.0999998;stroke-opacity:1"
         id="rect6114"
         width="34.900002"
         height="17.9"
         x="5.5499997"
         y="25.549999" />
      <path
         id="path6134"
         style="fill:none;stroke:#fd0c0c;stroke-width:0.1;stroke-opacity:1"
         d="m 51.805572,27.223852 c -0.209688,0.0028 -0.419141,0.01063 -0.628085,0.02897 -0.230698,0.0206 -0.460291,0.05227 -0.688203,0.09356 -0.227619,0.04229 -0.453105,0.09549 -0.675978,0.158134 -0.222699,0.06368 -0.44214,0.138255 -0.658144,0.221816 -0.215565,0.08439 -0.426778,0.17951 -0.633786,0.283065 -0.206551,0.104565 -0.407918,0.219062 -0.604091,0.341936 -0.195721,0.123361 -0.38501,0.256658 -0.568613,0.397352 -0.183001,0.141553 -0.358796,0.292161 -0.52815,0.449717 -0.170488,0.159445 -0.332113,0.32804 -0.487275,0.50234 -0.15259,0.173723 -0.296463,0.354871 -0.432896,0.541493 -0.136632,0.189111 -0.263268,0.385143 -0.382538,0.585585 -0.116328,0.199744 -0.223201,0.404796 -0.321734,0.61386 -0.09683,0.209726 -0.183564,0.423901 -0.261693,0.641258 -0.07639,0.218078 -0.14242,0.439608 -0.199432,0.663521 -0.05497,0.224255 -0.09965,0.450861 -0.135033,0.679025 -0.03347,0.228523 -0.05638,0.458449 -0.06987,0.689031 -0.01178,0.230647 -0.01243,0.461696 -0.0039,0.692499 0.0106,0.230662 0.03181,0.460678 0.06234,0.689585 0.03233,0.228627 0.07547,0.455591 0.127594,0.680579 0.05408,0.224544 0.118696,0.446414 0.192074,0.665468 0.07505,0.218488 0.160553,0.433225 0.254557,0.644313 0.09492,0.208295 0.199078,0.412257 0.311869,0.611528 0.114733,0.200564 0.239373,0.395309 0.37167,0.584828 0.133394,0.188806 0.276088,0.370904 0.425918,0.54705 0.149477,0.173539 0.30688,0.340155 0.471384,0.499652 0.168175,0.161846 0.344441,0.315127 0.526527,0.461259 0.181344,0.14364 0.369773,0.278144 0.563215,0.405152 0.19416,0.125934 0.394555,0.242082 0.599287,0.350141 0.205374,0.106671 0.415748,0.203498 0.629831,0.291573 0.21456,0.08694 0.43327,0.163337 0.654801,0.230755 0.221959,0.06615 0.447052,0.121328 0.674063,0.167454 0.227197,0.0447 0.456409,0.07848 0.68671,0.102869 0.23044,0.02299 0.461864,0.03506 0.693465,0.03752 0.260802,4.93e-4 0.521764,-0.01137 0.781249,-0.03766 0.287572,-0.02989 0.573562,-0.0749 0.855533,-0.138892 0.262497,-0.05749 0.520963,-0.132556 0.775616,-0.217961 0.274835,-0.09602 0.545433,-0.204497 0.807003,-0.332373 0.223482,-0.10617 0.439521,-0.227247 0.651246,-0.355031 0.229712,-0.14324 0.453968,-0.295823 0.666501,-0.463512 0.226565,-0.175496 0.441284,-0.36574 0.645312,-0.566781 0.187477,-0.185767 0.364826,-0.381808 0.531436,-0.586384 0.0314,-0.01873 0.07969,-0.0029 0.11769,-0.0081 4.491768,-3.2e-4 8.983549,6.42e-4 13.475308,-4.68e-4 0.768425,-0.0023 1.540519,-0.198857 2.199242,-0.597598 0.767814,-0.458666 1.365861,-1.172851 1.73324,-1.982413 0.499448,-1.097256 0.610794,-2.371953 0.280674,-3.533429 -0.21647,-0.761758 -0.639528,-1.471173 -1.240758,-1.992891 -0.568801,-0.500208 -1.286315,-0.816432 -2.03028,-0.947545 -0.399084,-0.07407 -0.806081,-0.08932 -1.21115,-0.08414 -4.437315,0 -8.874631,0 -13.311946,0 -0.150252,-0.187123 -0.312185,-0.364566 -0.479281,-0.536851 -0.187252,-0.186391 -0.381472,-0.366235 -0.587549,-0.531844 -0.220357,-0.18015 -0.451977,-0.346293 -0.692238,-0.49903 -0.199442,-0.12756 -0.406339,-0.243098 -0.616924,-0.351335 -0.232693,-0.116243 -0.470596,-0.222518 -0.714069,-0.314361 -0.264498,-0.09947 -0.53422,-0.185221 -0.808686,-0.252899 -0.239848,-0.06218 -0.483824,-0.10722 -0.728682,-0.14484 -0.257765,-0.0362 -0.517312,-0.06098 -0.777493,-0.07045 -0.09562,-0.0018 -0.191248,-0.0052 -0.286874,-0.0061 z" />
      <rect
         style="fill:none;stroke:#070000;stroke-width:0.0999998;stroke-opacity:1"
         id="rect6138"
         width="34.900002"
         height="17.9"
         x="42.549999"
         y="25.549999" />
    </g>
  </g>
</svg>
