<?xml version="1.0" encoding="UTF-8" standalone="no"?>
<!-- Created with Inkscape (http://www.inkscape.org/) -->

<svg
   width="210mm"
   height="297mm"
   viewBox="0 0 210 297"
   version="1.1"
   id="svg1047"
   inkscape:version="1.1.2 (0a00cf5339, 2022-02-04)"
   sodipodi:docname="sticker-print.svg"
   xmlns:inkscape="http://www.inkscape.org/namespaces/inkscape"
   xmlns:sodipodi="http://sodipodi.sourceforge.net/DTD/sodipodi-0.dtd"
   xmlns="http://www.w3.org/2000/svg"
   xmlns:svg="http://www.w3.org/2000/svg">
  <sodipodi:namedview
     id="namedview1049"
     pagecolor="#ffffff"
     bordercolor="#666666"
     borderopacity="1.0"
     inkscape:pageshadow="2"
     inkscape:pageopacity="0.0"
     inkscape:pagecheckerboard="0"
     inkscape:document-units="mm"
     showgrid="false"
     inkscape:zoom="2.5620931"
     inkscape:cx="210.96033"
     inkscape:cy="59.521647"
     inkscape:window-width="2560"
     inkscape:window-height="1372"
     inkscape:window-x="0"
     inkscape:window-y="0"
     inkscape:window-maximized="1"
     inkscape:current-layer="g16351" />
  <defs
     id="defs1044" />
  <g
     inkscape:label="Layer 1"
     inkscape:groupmode="layer"
     id="layer1">
    <text
       xml:space="preserve"
       style="font-weight:bold;font-size:17.6389px;line-height:1.25;font-family:sans-serif;-inkscape-font-specification:'sans-serif Bold';letter-spacing:0px;word-spacing:0px;stroke-width:0.264583"
       x="93.684631"
       y="104.31956"
       id="text3529"><tspan
         sodipodi:role="line"
         id="tspan3527"
         style="font-size:17.6389px;stroke-width:0.264583"
         x="93.684631"
         y="104.31956" /><tspan
         sodipodi:role="line"
         style="font-size:17.6389px;stroke-width:0.264583"
         x="93.684631"
         y="126.36818"
         id="tspan8815" /></text>
    <g
       id="g16351">
      <g
         id="g9380"
         transform="translate(7.1298146e-4,-7.0440294e-4)">
        <path
           id="path16539"
           style="fill:#ededed;stroke:#000000;stroke-width:0.1"
           d="m 14.318229,7.2521269 a 6.7691398,6.7485672 0 0 0 -6.769212,6.7486401 6.7691398,6.7485672 0 0 0 6.769212,6.748513 6.7691398,6.7485672 0 0 0 5.415729,-2.707666 h 13.81104 c 4.891127,0 5.511781,-8.0816938 0,-8.0816938 H 19.739584 A 6.7691398,6.7485672 0 0 0 14.318229,7.2521269 Z" />
        <g
           id="g16549"
           transform="matrix(0.0654685,0,0,0.06526953,6.9407183,8.0013977)"
           style="stroke-width:4.04754">
          <ellipse
             style="fill:#ffffff;fill-opacity:1;stroke:none;stroke-width:77.4833;stroke-linecap:square;stroke-linejoin:miter;stroke-miterlimit:4;stroke-dasharray:none;stroke-opacity:1"
             id="ellipse16541"
             cx="111.88393"
             cy="92.362587"
             rx="69.407715"
             ry="69.196426" />
          <path
             style="font-size:144px;font-family:'DejaVu Sans';stroke-width:4.04754"
             d="m 112.10082,50.923337 h 0.53161 c 23.74533,0.669528 40.6782,4.056103 50.79869,10.159737 10.67151,6.458198 16.00735,13.034455 16.00748,19.72879 -1.41777,6.025017 -4.1546,9.037484 -8.21048,9.037441 -0.23641,4.3e-5 -0.49237,-0.01971 -0.76788,-0.05911 l -24.04079,-8.269552 c -2.36283,-0.70876 -3.54419,-1.909815 -3.54409,-3.603161 -1e-4,-0.748136 0.23616,-1.61447 0.70883,-2.599001 2.67764,-2.795832 4.01653,-4.823839 4.01663,-6.08403 -1e-4,-0.905643 -0.66956,-1.417566 -2.00831,-1.535775 H 79.199807 c -1.33892,0.118209 -2.00836,0.630132 -2.00832,1.535775 -4e-5,1.260191 1.338839,3.288198 4.016641,6.08403 0.472498,0.945153 0.708779,1.811487 0.708821,2.599001 -4.2e-5,1.693346 -1.201101,2.894401 -3.603165,3.603161 L 54.273011,89.79019 c -0.275668,0.0394 -0.53163,0.05911 -0.767887,0.05911 -4.016652,5.3e-5 -6.753478,-3.012424 -8.210485,-9.037438 -8e-6,-6.694336 5.355507,-13.270593 16.066561,-19.728792 10.080944,-6.024876 26.994129,-9.411451 50.73962,-10.159736 z"
             id="path16543" />
          <ellipse
             style="fill:none;fill-opacity:1;stroke:none;stroke-width:4.7423;stroke-linecap:square;stroke-linejoin:miter;stroke-miterlimit:4;stroke-dasharray:none;stroke-opacity:1"
             id="ellipse16545"
             cx="48.491074"
             cy="31.46973"
             rx="1.5178572"
             ry="0.089285716" />
          <path
             id="path9477"
             style="font-size:144px;font-family:'DejaVu Sans';stroke-width:1"
             d="m 48.474609,47.728516 v 2.214843 c -1.2e-5,0.728585 -1.169288,1.370127 -3.507812,1.923829 -2.260592,0.922867 -3.390631,2.772512 -3.390625,5.550781 v 7.140625 h 24.919922 v -7.140625 c -3e-5,-2.778269 -1.12419,-4.627914 -3.375,-5.550781 -2.348302,-0.553702 -3.523462,-1.195244 -3.523438,-1.923829 v -2.214843 h -2.103515 v 1.09375 H 50.59375 v -1.09375 z m 5.482422,3.205078 c 1.646699,1.5e-5 3.03669,0.574429 4.171875,1.720703 1.135144,1.146295 1.703101,2.526114 1.703125,4.138672 -2.4e-5,1.622289 -0.570924,3.000148 -1.710937,4.136719 -1.140058,1.13657 -2.527106,1.70508 -4.164063,1.705078 -1.607758,2e-6 -2.986956,-0.568508 -4.136719,-1.705078 -1.149794,-1.136571 -1.724622,-2.51443 -1.724609,-4.136719 -1.3e-5,-1.612558 0.568935,-2.992377 1.708985,-4.138672 1.14002,-1.146274 2.525096,-1.720688 4.152343,-1.720703 z"
             transform="matrix(4.0413838,0,0,4.0537037,-106.01615,-122.59009)" />
          <path
             style="font-size:144px;font-family:'DejaVu Sans';stroke-width:4.04754"
             d="m 125.33209,107.56972 c -9e-5,3.66227 -1.28973,6.79288 -3.86896,9.39186 -2.5794,2.59901 -5.71986,3.89852 -9.42139,3.89851 -3.6623,1e-5 -6.78307,-1.2995 -9.36232,-3.89851 -2.57937,-2.59898 -3.869016,-5.72959 -3.868953,-9.39186 -6.3e-5,-3.74093 1.289583,-6.90106 3.868953,-9.48042 2.57925,-2.579263 5.70002,-3.868928 9.36232,-3.868971 3.70153,4.3e-5 6.84199,1.289708 9.42139,3.868971 2.57923,2.57936 3.86887,5.73949 3.86896,9.48042 z"
             id="path9481" />
          <ellipse
             style="fill:#000000;fill-opacity:1;stroke:none;stroke-width:1.52978"
             id="path9734"
             cx="101.70567"
             cy="92.257919"
             rx="2.1108437"
             ry="2.1172783" />
          <ellipse
             style="fill:#000000;fill-opacity:1;stroke:none;stroke-width:1.52978"
             id="ellipse9860"
             cx="112.6536"
             cy="88.743851"
             rx="2.1108437"
             ry="2.1172783" />
          <ellipse
             style="fill:#000000;fill-opacity:1;stroke:none;stroke-width:1.52978"
             id="ellipse9862"
             cx="123.61787"
             cy="92.391838"
             rx="2.1108437"
             ry="2.1172783" />
          <ellipse
             style="fill:#000000;fill-opacity:1;stroke:none;stroke-width:1.52978"
             id="ellipse9864"
             cx="130.23662"
             cy="101.6943"
             rx="2.1108437"
             ry="2.1172783" />
          <ellipse
             style="fill:#000000;fill-opacity:1;stroke:none;stroke-width:1.52978"
             id="ellipse9866"
             cx="130.20636"
             cy="113.2402"
             rx="2.1108437"
             ry="2.1172783" />
          <ellipse
             style="fill:#000000;fill-opacity:1;stroke:none;stroke-width:1.52978"
             id="ellipse9868"
             cx="123.55966"
             cy="122.44379"
             rx="2.1108437"
             ry="2.1172783" />
          <ellipse
             style="fill:#000000;fill-opacity:1;stroke:none;stroke-width:1.52978"
             id="ellipse9870"
             cx="112.65164"
             cy="126.03825"
             rx="2.1108437"
             ry="2.1172783" />
          <ellipse
             style="fill:#000000;fill-opacity:1;stroke:none;stroke-width:1.52978"
             id="ellipse9872"
             cx="101.62955"
             cy="122.32898"
             rx="2.1108437"
             ry="2.1172783" />
          <ellipse
             style="fill:#000000;fill-opacity:1;stroke:none;stroke-width:1.52978"
             id="ellipse9874"
             cx="94.990326"
             cy="113.1267"
             rx="2.1108437"
             ry="2.1172783" />
          <ellipse
             style="fill:#000000;fill-opacity:1;stroke:none;stroke-width:1.52978"
             id="ellipse9876"
             cx="94.886177"
             cy="101.6133"
             rx="2.1108437"
             ry="2.1172783" />
          <path
             id="path16547"
             style="fill:#ff1616;fill-opacity:1;stroke:none;stroke-width:4.7423;stroke-linecap:square;stroke-linejoin:miter;stroke-miterlimit:4;stroke-dasharray:none;stroke-opacity:1"
             d="m 220.01562,202.67969 a 79.999999,79.999999 0 0 0 -80,80 79.999999,79.999999 0 0 0 80,80 79.999999,79.999999 0 0 0 80,-80 79.999999,79.999999 0 0 0 -80,-80 z m 0,16.96484 a 63.035712,63.035712 0 0 1 43.29297,17.37109 l -94.89062,81.73243 a 63.035712,63.035712 0 0 1 -11.4375,-36.06836 63.035712,63.035712 0 0 1 63.03515,-63.03516 z m 55.01368,32.54102 a 63.035712,63.035712 0 0 1 8.02148,30.49414 63.035712,63.035712 0 0 1 -63.03516,63.03515 63.035712,63.035712 0 0 1 -38.32812,-13.1289 z"
             transform="translate(-107.32766,-190.76285)" />
        </g>
        <text
           xml:space="preserve"
           style="font-weight:bold;font-size:2.40152px;line-height:1.25;font-family:sans-serif;-inkscape-font-specification:'sans-serif Bold';letter-spacing:0px;word-spacing:0px;stroke-width:0.264583"
           x="20.1908"
           y="14.917339"
           id="text16553"
           transform="scale(1.0015231,0.9984792)"><tspan
             sodipodi:role="line"
             id="tspan16551"
             style="font-size:2.40152px;stroke-width:0.264583"
             x="20.1908"
             y="14.917339">PhoneBlock</tspan></text>
      </g>
      <g
         id="g2197"
         transform="translate(7.1298146e-4,19.999296)">
        <path
           id="path2157"
           style="fill:#ededed;stroke:#000000;stroke-width:0.1"
           d="m 14.318229,7.2521269 a 6.7691398,6.7485672 0 0 0 -6.769212,6.7486401 6.7691398,6.7485672 0 0 0 6.769212,6.748513 6.7691398,6.7485672 0 0 0 5.415729,-2.707666 h 13.81104 c 4.891127,0 5.511781,-8.0816938 0,-8.0816938 H 19.739584 A 6.7691398,6.7485672 0 0 0 14.318229,7.2521269 Z" />
        <g
           id="g2191"
           transform="matrix(0.0654685,0,0,0.06526953,6.9407183,8.0013977)"
           style="stroke-width:4.04754">
          <ellipse
             style="fill:#ffffff;fill-opacity:1;stroke:none;stroke-width:77.4833;stroke-linecap:square;stroke-linejoin:miter;stroke-miterlimit:4;stroke-dasharray:none;stroke-opacity:1"
             id="ellipse2159"
             cx="111.88393"
             cy="92.362587"
             rx="69.407715"
             ry="69.196426" />
          <path
             style="font-size:144px;font-family:'DejaVu Sans';stroke-width:4.04754"
             d="m 112.10082,50.923337 h 0.53161 c 23.74533,0.669528 40.6782,4.056103 50.79869,10.159737 10.67151,6.458198 16.00735,13.034455 16.00748,19.72879 -1.41777,6.025017 -4.1546,9.037484 -8.21048,9.037441 -0.23641,4.3e-5 -0.49237,-0.01971 -0.76788,-0.05911 l -24.04079,-8.269552 c -2.36283,-0.70876 -3.54419,-1.909815 -3.54409,-3.603161 -1e-4,-0.748136 0.23616,-1.61447 0.70883,-2.599001 2.67764,-2.795832 4.01653,-4.823839 4.01663,-6.08403 -1e-4,-0.905643 -0.66956,-1.417566 -2.00831,-1.535775 H 79.199807 c -1.33892,0.118209 -2.00836,0.630132 -2.00832,1.535775 -4e-5,1.260191 1.338839,3.288198 4.016641,6.08403 0.472498,0.945153 0.708779,1.811487 0.708821,2.599001 -4.2e-5,1.693346 -1.201101,2.894401 -3.603165,3.603161 L 54.273011,89.79019 c -0.275668,0.0394 -0.53163,0.05911 -0.767887,0.05911 -4.016652,5.3e-5 -6.753478,-3.012424 -8.210485,-9.037438 -8e-6,-6.694336 5.355507,-13.270593 16.066561,-19.728792 10.080944,-6.024876 26.994129,-9.411451 50.73962,-10.159736 z"
             id="path2161" />
          <ellipse
             style="fill:none;fill-opacity:1;stroke:none;stroke-width:4.7423;stroke-linecap:square;stroke-linejoin:miter;stroke-miterlimit:4;stroke-dasharray:none;stroke-opacity:1"
             id="ellipse2163"
             cx="48.491074"
             cy="31.46973"
             rx="1.5178572"
             ry="0.089285716" />
          <path
             id="path2165"
             style="font-size:144px;font-family:'DejaVu Sans';stroke-width:1"
             d="m 48.474609,47.728516 v 2.214843 c -1.2e-5,0.728585 -1.169288,1.370127 -3.507812,1.923829 -2.260592,0.922867 -3.390631,2.772512 -3.390625,5.550781 v 7.140625 h 24.919922 v -7.140625 c -3e-5,-2.778269 -1.12419,-4.627914 -3.375,-5.550781 -2.348302,-0.553702 -3.523462,-1.195244 -3.523438,-1.923829 v -2.214843 h -2.103515 v 1.09375 H 50.59375 v -1.09375 z m 5.482422,3.205078 c 1.646699,1.5e-5 3.03669,0.574429 4.171875,1.720703 1.135144,1.146295 1.703101,2.526114 1.703125,4.138672 -2.4e-5,1.622289 -0.570924,3.000148 -1.710937,4.136719 -1.140058,1.13657 -2.527106,1.70508 -4.164063,1.705078 -1.607758,2e-6 -2.986956,-0.568508 -4.136719,-1.705078 -1.149794,-1.136571 -1.724622,-2.51443 -1.724609,-4.136719 -1.3e-5,-1.612558 0.568935,-2.992377 1.708985,-4.138672 1.14002,-1.146274 2.525096,-1.720688 4.152343,-1.720703 z"
             transform="matrix(4.0413838,0,0,4.0537037,-106.01615,-122.59009)" />
          <path
             style="font-size:144px;font-family:'DejaVu Sans';stroke-width:4.04754"
             d="m 125.33209,107.56972 c -9e-5,3.66227 -1.28973,6.79288 -3.86896,9.39186 -2.5794,2.59901 -5.71986,3.89852 -9.42139,3.89851 -3.6623,1e-5 -6.78307,-1.2995 -9.36232,-3.89851 -2.57937,-2.59898 -3.869016,-5.72959 -3.868953,-9.39186 -6.3e-5,-3.74093 1.289583,-6.90106 3.868953,-9.48042 2.57925,-2.579263 5.70002,-3.868928 9.36232,-3.868971 3.70153,4.3e-5 6.84199,1.289708 9.42139,3.868971 2.57923,2.57936 3.86887,5.73949 3.86896,9.48042 z"
             id="path2167" />
          <ellipse
             style="fill:#000000;fill-opacity:1;stroke:none;stroke-width:1.52978"
             id="ellipse2169"
             cx="101.70567"
             cy="92.257919"
             rx="2.1108437"
             ry="2.1172783" />
          <ellipse
             style="fill:#000000;fill-opacity:1;stroke:none;stroke-width:1.52978"
             id="ellipse2171"
             cx="112.6536"
             cy="88.743851"
             rx="2.1108437"
             ry="2.1172783" />
          <ellipse
             style="fill:#000000;fill-opacity:1;stroke:none;stroke-width:1.52978"
             id="ellipse2173"
             cx="123.61787"
             cy="92.391838"
             rx="2.1108437"
             ry="2.1172783" />
          <ellipse
             style="fill:#000000;fill-opacity:1;stroke:none;stroke-width:1.52978"
             id="ellipse2175"
             cx="130.23662"
             cy="101.6943"
             rx="2.1108437"
             ry="2.1172783" />
          <ellipse
             style="fill:#000000;fill-opacity:1;stroke:none;stroke-width:1.52978"
             id="ellipse2177"
             cx="130.20636"
             cy="113.2402"
             rx="2.1108437"
             ry="2.1172783" />
          <ellipse
             style="fill:#000000;fill-opacity:1;stroke:none;stroke-width:1.52978"
             id="ellipse2179"
             cx="123.55966"
             cy="122.44379"
             rx="2.1108437"
             ry="2.1172783" />
          <ellipse
             style="fill:#000000;fill-opacity:1;stroke:none;stroke-width:1.52978"
             id="ellipse2181"
             cx="112.65164"
             cy="126.03825"
             rx="2.1108437"
             ry="2.1172783" />
          <ellipse
             style="fill:#000000;fill-opacity:1;stroke:none;stroke-width:1.52978"
             id="ellipse2183"
             cx="101.62955"
             cy="122.32898"
             rx="2.1108437"
             ry="2.1172783" />
          <ellipse
             style="fill:#000000;fill-opacity:1;stroke:none;stroke-width:1.52978"
             id="ellipse2185"
             cx="94.990326"
             cy="113.1267"
             rx="2.1108437"
             ry="2.1172783" />
          <ellipse
             style="fill:#000000;fill-opacity:1;stroke:none;stroke-width:1.52978"
             id="ellipse2187"
             cx="94.886177"
             cy="101.6133"
             rx="2.1108437"
             ry="2.1172783" />
          <path
             id="path2189"
             style="fill:#ff1616;fill-opacity:1;stroke:none;stroke-width:4.7423;stroke-linecap:square;stroke-linejoin:miter;stroke-miterlimit:4;stroke-dasharray:none;stroke-opacity:1"
             d="m 220.01562,202.67969 a 79.999999,79.999999 0 0 0 -80,80 79.999999,79.999999 0 0 0 80,80 79.999999,79.999999 0 0 0 80,-80 79.999999,79.999999 0 0 0 -80,-80 z m 0,16.96484 a 63.035712,63.035712 0 0 1 43.29297,17.37109 l -94.89062,81.73243 a 63.035712,63.035712 0 0 1 -11.4375,-36.06836 63.035712,63.035712 0 0 1 63.03515,-63.03516 z m 55.01368,32.54102 a 63.035712,63.035712 0 0 1 8.02148,30.49414 63.035712,63.035712 0 0 1 -63.03516,63.03515 63.035712,63.035712 0 0 1 -38.32812,-13.1289 z"
             transform="translate(-107.32766,-190.76285)" />
        </g>
        <text
           xml:space="preserve"
           style="font-weight:bold;font-size:2.40152px;line-height:1.25;font-family:sans-serif;-inkscape-font-specification:'sans-serif Bold';letter-spacing:0px;word-spacing:0px;stroke-width:0.264583"
           x="20.1908"
           y="14.917339"
           id="text2195"
           transform="scale(1.0015231,0.9984792)"><tspan
             sodipodi:role="line"
             id="tspan2193"
             style="font-size:2.40152px;stroke-width:0.264583"
             x="20.1908"
             y="14.917339">PhoneBlock</tspan></text>
      </g>
      <g
         id="g2151"
         transform="translate(37.00072,-7.0423985e-4)">
        <path
           id="path2111"
           style="fill:#ededed;stroke:#000000;stroke-width:0.1"
           d="m 14.318229,7.2521269 a 6.7691398,6.7485672 0 0 0 -6.769212,6.7486401 6.7691398,6.7485672 0 0 0 6.769212,6.748513 6.7691398,6.7485672 0 0 0 5.415729,-2.707666 h 13.81104 c 4.891127,0 5.511781,-8.0816938 0,-8.0816938 H 19.739584 A 6.7691398,6.7485672 0 0 0 14.318229,7.2521269 Z" />
        <g
           id="g2145"
           transform="matrix(0.0654685,0,0,0.06526953,6.9407183,8.0013977)"
           style="stroke-width:4.04754">
          <ellipse
             style="fill:#ffffff;fill-opacity:1;stroke:none;stroke-width:77.4833;stroke-linecap:square;stroke-linejoin:miter;stroke-miterlimit:4;stroke-dasharray:none;stroke-opacity:1"
             id="ellipse2113"
             cx="111.88393"
             cy="92.362587"
             rx="69.407715"
             ry="69.196426" />
          <path
             style="font-size:144px;font-family:'DejaVu Sans';stroke-width:4.04754"
             d="m 112.10082,50.923337 h 0.53161 c 23.74533,0.669528 40.6782,4.056103 50.79869,10.159737 10.67151,6.458198 16.00735,13.034455 16.00748,19.72879 -1.41777,6.025017 -4.1546,9.037484 -8.21048,9.037441 -0.23641,4.3e-5 -0.49237,-0.01971 -0.76788,-0.05911 l -24.04079,-8.269552 c -2.36283,-0.70876 -3.54419,-1.909815 -3.54409,-3.603161 -1e-4,-0.748136 0.23616,-1.61447 0.70883,-2.599001 2.67764,-2.795832 4.01653,-4.823839 4.01663,-6.08403 -1e-4,-0.905643 -0.66956,-1.417566 -2.00831,-1.535775 H 79.199807 c -1.33892,0.118209 -2.00836,0.630132 -2.00832,1.535775 -4e-5,1.260191 1.338839,3.288198 4.016641,6.08403 0.472498,0.945153 0.708779,1.811487 0.708821,2.599001 -4.2e-5,1.693346 -1.201101,2.894401 -3.603165,3.603161 L 54.273011,89.79019 c -0.275668,0.0394 -0.53163,0.05911 -0.767887,0.05911 -4.016652,5.3e-5 -6.753478,-3.012424 -8.210485,-9.037438 -8e-6,-6.694336 5.355507,-13.270593 16.066561,-19.728792 10.080944,-6.024876 26.994129,-9.411451 50.73962,-10.159736 z"
             id="path2115" />
          <ellipse
             style="fill:none;fill-opacity:1;stroke:none;stroke-width:4.7423;stroke-linecap:square;stroke-linejoin:miter;stroke-miterlimit:4;stroke-dasharray:none;stroke-opacity:1"
             id="ellipse2117"
             cx="48.491074"
             cy="31.46973"
             rx="1.5178572"
             ry="0.089285716" />
          <path
             id="path2119"
             style="font-size:144px;font-family:'DejaVu Sans';stroke-width:1"
             d="m 48.474609,47.728516 v 2.214843 c -1.2e-5,0.728585 -1.169288,1.370127 -3.507812,1.923829 -2.260592,0.922867 -3.390631,2.772512 -3.390625,5.550781 v 7.140625 h 24.919922 v -7.140625 c -3e-5,-2.778269 -1.12419,-4.627914 -3.375,-5.550781 -2.348302,-0.553702 -3.523462,-1.195244 -3.523438,-1.923829 v -2.214843 h -2.103515 v 1.09375 H 50.59375 v -1.09375 z m 5.482422,3.205078 c 1.646699,1.5e-5 3.03669,0.574429 4.171875,1.720703 1.135144,1.146295 1.703101,2.526114 1.703125,4.138672 -2.4e-5,1.622289 -0.570924,3.000148 -1.710937,4.136719 -1.140058,1.13657 -2.527106,1.70508 -4.164063,1.705078 -1.607758,2e-6 -2.986956,-0.568508 -4.136719,-1.705078 -1.149794,-1.136571 -1.724622,-2.51443 -1.724609,-4.136719 -1.3e-5,-1.612558 0.568935,-2.992377 1.708985,-4.138672 1.14002,-1.146274 2.525096,-1.720688 4.152343,-1.720703 z"
             transform="matrix(4.0413838,0,0,4.0537037,-106.01615,-122.59009)" />
          <path
             style="font-size:144px;font-family:'DejaVu Sans';stroke-width:4.04754"
             d="m 125.33209,107.56972 c -9e-5,3.66227 -1.28973,6.79288 -3.86896,9.39186 -2.5794,2.59901 -5.71986,3.89852 -9.42139,3.89851 -3.6623,1e-5 -6.78307,-1.2995 -9.36232,-3.89851 -2.57937,-2.59898 -3.869016,-5.72959 -3.868953,-9.39186 -6.3e-5,-3.74093 1.289583,-6.90106 3.868953,-9.48042 2.57925,-2.579263 5.70002,-3.868928 9.36232,-3.868971 3.70153,4.3e-5 6.84199,1.289708 9.42139,3.868971 2.57923,2.57936 3.86887,5.73949 3.86896,9.48042 z"
             id="path2121" />
          <ellipse
             style="fill:#000000;fill-opacity:1;stroke:none;stroke-width:1.52978"
             id="ellipse2123"
             cx="101.70567"
             cy="92.257919"
             rx="2.1108437"
             ry="2.1172783" />
          <ellipse
             style="fill:#000000;fill-opacity:1;stroke:none;stroke-width:1.52978"
             id="ellipse2125"
             cx="112.6536"
             cy="88.743851"
             rx="2.1108437"
             ry="2.1172783" />
          <ellipse
             style="fill:#000000;fill-opacity:1;stroke:none;stroke-width:1.52978"
             id="ellipse2127"
             cx="123.61787"
             cy="92.391838"
             rx="2.1108437"
             ry="2.1172783" />
          <ellipse
             style="fill:#000000;fill-opacity:1;stroke:none;stroke-width:1.52978"
             id="ellipse2129"
             cx="130.23662"
             cy="101.6943"
             rx="2.1108437"
             ry="2.1172783" />
          <ellipse
             style="fill:#000000;fill-opacity:1;stroke:none;stroke-width:1.52978"
             id="ellipse2131"
             cx="130.20636"
             cy="113.2402"
             rx="2.1108437"
             ry="2.1172783" />
          <ellipse
             style="fill:#000000;fill-opacity:1;stroke:none;stroke-width:1.52978"
             id="ellipse2133"
             cx="123.55966"
             cy="122.44379"
             rx="2.1108437"
             ry="2.1172783" />
          <ellipse
             style="fill:#000000;fill-opacity:1;stroke:none;stroke-width:1.52978"
             id="ellipse2135"
             cx="112.65164"
             cy="126.03825"
             rx="2.1108437"
             ry="2.1172783" />
          <ellipse
             style="fill:#000000;fill-opacity:1;stroke:none;stroke-width:1.52978"
             id="ellipse2137"
             cx="101.62955"
             cy="122.32898"
             rx="2.1108437"
             ry="2.1172783" />
          <ellipse
             style="fill:#000000;fill-opacity:1;stroke:none;stroke-width:1.52978"
             id="ellipse2139"
             cx="94.990326"
             cy="113.1267"
             rx="2.1108437"
             ry="2.1172783" />
          <ellipse
             style="fill:#000000;fill-opacity:1;stroke:none;stroke-width:1.52978"
             id="ellipse2141"
             cx="94.886177"
             cy="101.6133"
             rx="2.1108437"
             ry="2.1172783" />
          <path
             id="path2143"
             style="fill:#ff1616;fill-opacity:1;stroke:none;stroke-width:4.7423;stroke-linecap:square;stroke-linejoin:miter;stroke-miterlimit:4;stroke-dasharray:none;stroke-opacity:1"
             d="m 220.01562,202.67969 a 79.999999,79.999999 0 0 0 -80,80 79.999999,79.999999 0 0 0 80,80 79.999999,79.999999 0 0 0 80,-80 79.999999,79.999999 0 0 0 -80,-80 z m 0,16.96484 a 63.035712,63.035712 0 0 1 43.29297,17.37109 l -94.89062,81.73243 a 63.035712,63.035712 0 0 1 -11.4375,-36.06836 63.035712,63.035712 0 0 1 63.03515,-63.03516 z m 55.01368,32.54102 a 63.035712,63.035712 0 0 1 8.02148,30.49414 63.035712,63.035712 0 0 1 -63.03516,63.03515 63.035712,63.035712 0 0 1 -38.32812,-13.1289 z"
             transform="translate(-107.32766,-190.76285)" />
        </g>
        <text
           xml:space="preserve"
           style="font-weight:bold;font-size:2.40152px;line-height:1.25;font-family:sans-serif;-inkscape-font-specification:'sans-serif Bold';letter-spacing:0px;word-spacing:0px;stroke-width:0.264583"
           x="20.1908"
           y="14.917339"
           id="text2149"
           transform="scale(1.0015231,0.9984792)"><tspan
             sodipodi:role="line"
             id="tspan2147"
             style="font-size:2.40152px;stroke-width:0.264583"
             x="20.1908"
             y="14.917339">PhoneBlock</tspan></text>
      </g>
      <g
         id="g2243"
         transform="translate(37.00072,19.999296)">
        <path
           id="path2203"
           style="fill:#ededed;stroke:#000000;stroke-width:0.1"
           d="m 14.318229,7.2521269 a 6.7691398,6.7485672 0 0 0 -6.769212,6.7486401 6.7691398,6.7485672 0 0 0 6.769212,6.748513 6.7691398,6.7485672 0 0 0 5.415729,-2.707666 h 13.81104 c 4.891127,0 5.511781,-8.0816938 0,-8.0816938 H 19.739584 A 6.7691398,6.7485672 0 0 0 14.318229,7.2521269 Z" />
        <g
           id="g2237"
           transform="matrix(0.0654685,0,0,0.06526953,6.9407183,8.0013977)"
           style="stroke-width:4.04754">
          <ellipse
             style="fill:#ffffff;fill-opacity:1;stroke:none;stroke-width:77.4833;stroke-linecap:square;stroke-linejoin:miter;stroke-miterlimit:4;stroke-dasharray:none;stroke-opacity:1"
             id="ellipse2205"
             cx="111.88393"
             cy="92.362587"
             rx="69.407715"
             ry="69.196426" />
          <path
             style="font-size:144px;font-family:'DejaVu Sans';stroke-width:4.04754"
             d="m 112.10082,50.923337 h 0.53161 c 23.74533,0.669528 40.6782,4.056103 50.79869,10.159737 10.67151,6.458198 16.00735,13.034455 16.00748,19.72879 -1.41777,6.025017 -4.1546,9.037484 -8.21048,9.037441 -0.23641,4.3e-5 -0.49237,-0.01971 -0.76788,-0.05911 l -24.04079,-8.269552 c -2.36283,-0.70876 -3.54419,-1.909815 -3.54409,-3.603161 -1e-4,-0.748136 0.23616,-1.61447 0.70883,-2.599001 2.67764,-2.795832 4.01653,-4.823839 4.01663,-6.08403 -1e-4,-0.905643 -0.66956,-1.417566 -2.00831,-1.535775 H 79.199807 c -1.33892,0.118209 -2.00836,0.630132 -2.00832,1.535775 -4e-5,1.260191 1.338839,3.288198 4.016641,6.08403 0.472498,0.945153 0.708779,1.811487 0.708821,2.599001 -4.2e-5,1.693346 -1.201101,2.894401 -3.603165,3.603161 L 54.273011,89.79019 c -0.275668,0.0394 -0.53163,0.05911 -0.767887,0.05911 -4.016652,5.3e-5 -6.753478,-3.012424 -8.210485,-9.037438 -8e-6,-6.694336 5.355507,-13.270593 16.066561,-19.728792 10.080944,-6.024876 26.994129,-9.411451 50.73962,-10.159736 z"
             id="path2207" />
          <ellipse
             style="fill:none;fill-opacity:1;stroke:none;stroke-width:4.7423;stroke-linecap:square;stroke-linejoin:miter;stroke-miterlimit:4;stroke-dasharray:none;stroke-opacity:1"
             id="ellipse2209"
             cx="48.491074"
             cy="31.46973"
             rx="1.5178572"
             ry="0.089285716" />
          <path
             id="path2211"
             style="font-size:144px;font-family:'DejaVu Sans';stroke-width:1"
             d="m 48.474609,47.728516 v 2.214843 c -1.2e-5,0.728585 -1.169288,1.370127 -3.507812,1.923829 -2.260592,0.922867 -3.390631,2.772512 -3.390625,5.550781 v 7.140625 h 24.919922 v -7.140625 c -3e-5,-2.778269 -1.12419,-4.627914 -3.375,-5.550781 -2.348302,-0.553702 -3.523462,-1.195244 -3.523438,-1.923829 v -2.214843 h -2.103515 v 1.09375 H 50.59375 v -1.09375 z m 5.482422,3.205078 c 1.646699,1.5e-5 3.03669,0.574429 4.171875,1.720703 1.135144,1.146295 1.703101,2.526114 1.703125,4.138672 -2.4e-5,1.622289 -0.570924,3.000148 -1.710937,4.136719 -1.140058,1.13657 -2.527106,1.70508 -4.164063,1.705078 -1.607758,2e-6 -2.986956,-0.568508 -4.136719,-1.705078 -1.149794,-1.136571 -1.724622,-2.51443 -1.724609,-4.136719 -1.3e-5,-1.612558 0.568935,-2.992377 1.708985,-4.138672 1.14002,-1.146274 2.525096,-1.720688 4.152343,-1.720703 z"
             transform="matrix(4.0413838,0,0,4.0537037,-106.01615,-122.59009)" />
          <path
             style="font-size:144px;font-family:'DejaVu Sans';stroke-width:4.04754"
             d="m 125.33209,107.56972 c -9e-5,3.66227 -1.28973,6.79288 -3.86896,9.39186 -2.5794,2.59901 -5.71986,3.89852 -9.42139,3.89851 -3.6623,1e-5 -6.78307,-1.2995 -9.36232,-3.89851 -2.57937,-2.59898 -3.869016,-5.72959 -3.868953,-9.39186 -6.3e-5,-3.74093 1.289583,-6.90106 3.868953,-9.48042 2.57925,-2.579263 5.70002,-3.868928 9.36232,-3.868971 3.70153,4.3e-5 6.84199,1.289708 9.42139,3.868971 2.57923,2.57936 3.86887,5.73949 3.86896,9.48042 z"
             id="path2213" />
          <ellipse
             style="fill:#000000;fill-opacity:1;stroke:none;stroke-width:1.52978"
             id="ellipse2215"
             cx="101.70567"
             cy="92.257919"
             rx="2.1108437"
             ry="2.1172783" />
          <ellipse
             style="fill:#000000;fill-opacity:1;stroke:none;stroke-width:1.52978"
             id="ellipse2217"
             cx="112.6536"
             cy="88.743851"
             rx="2.1108437"
             ry="2.1172783" />
          <ellipse
             style="fill:#000000;fill-opacity:1;stroke:none;stroke-width:1.52978"
             id="ellipse2219"
             cx="123.61787"
             cy="92.391838"
             rx="2.1108437"
             ry="2.1172783" />
          <ellipse
             style="fill:#000000;fill-opacity:1;stroke:none;stroke-width:1.52978"
             id="ellipse2221"
             cx="130.23662"
             cy="101.6943"
             rx="2.1108437"
             ry="2.1172783" />
          <ellipse
             style="fill:#000000;fill-opacity:1;stroke:none;stroke-width:1.52978"
             id="ellipse2223"
             cx="130.20636"
             cy="113.2402"
             rx="2.1108437"
             ry="2.1172783" />
          <ellipse
             style="fill:#000000;fill-opacity:1;stroke:none;stroke-width:1.52978"
             id="ellipse2225"
             cx="123.55966"
             cy="122.44379"
             rx="2.1108437"
             ry="2.1172783" />
          <ellipse
             style="fill:#000000;fill-opacity:1;stroke:none;stroke-width:1.52978"
             id="ellipse2227"
             cx="112.65164"
             cy="126.03825"
             rx="2.1108437"
             ry="2.1172783" />
          <ellipse
             style="fill:#000000;fill-opacity:1;stroke:none;stroke-width:1.52978"
             id="ellipse2229"
             cx="101.62955"
             cy="122.32898"
             rx="2.1108437"
             ry="2.1172783" />
          <ellipse
             style="fill:#000000;fill-opacity:1;stroke:none;stroke-width:1.52978"
             id="ellipse2231"
             cx="94.990326"
             cy="113.1267"
             rx="2.1108437"
             ry="2.1172783" />
          <ellipse
             style="fill:#000000;fill-opacity:1;stroke:none;stroke-width:1.52978"
             id="ellipse2233"
             cx="94.886177"
             cy="101.6133"
             rx="2.1108437"
             ry="2.1172783" />
          <path
             id="path2235"
             style="fill:#ff1616;fill-opacity:1;stroke:none;stroke-width:4.7423;stroke-linecap:square;stroke-linejoin:miter;stroke-miterlimit:4;stroke-dasharray:none;stroke-opacity:1"
             d="m 220.01562,202.67969 a 79.999999,79.999999 0 0 0 -80,80 79.999999,79.999999 0 0 0 80,80 79.999999,79.999999 0 0 0 80,-80 79.999999,79.999999 0 0 0 -80,-80 z m 0,16.96484 a 63.035712,63.035712 0 0 1 43.29297,17.37109 l -94.89062,81.73243 a 63.035712,63.035712 0 0 1 -11.4375,-36.06836 63.035712,63.035712 0 0 1 63.03515,-63.03516 z m 55.01368,32.54102 a 63.035712,63.035712 0 0 1 8.02148,30.49414 63.035712,63.035712 0 0 1 -63.03516,63.03515 63.035712,63.035712 0 0 1 -38.32812,-13.1289 z"
             transform="translate(-107.32766,-190.76285)" />
        </g>
        <text
           xml:space="preserve"
           style="font-weight:bold;font-size:2.40152px;line-height:1.25;font-family:sans-serif;-inkscape-font-specification:'sans-serif Bold';letter-spacing:0px;word-spacing:0px;stroke-width:0.264583"
           x="20.1908"
           y="14.917339"
           id="text2241"
           transform="scale(1.0015231,0.9984792)"><tspan
             sodipodi:role="line"
             id="tspan2239"
             style="font-size:2.40152px;stroke-width:0.264583"
             x="20.1908"
             y="14.917339">PhoneBlock</tspan></text>
      </g>
      <g
         id="g6008"
         transform="translate(7.1298146e-4,39.998873)">
        <path
           id="path5968"
           style="fill:#ededed;stroke:#000000;stroke-width:0.1"
           d="m 14.318229,7.2521269 a 6.7691398,6.7485672 0 0 0 -6.769212,6.7486401 6.7691398,6.7485672 0 0 0 6.769212,6.748513 6.7691398,6.7485672 0 0 0 5.415729,-2.707666 h 13.81104 c 4.891127,0 5.511781,-8.0816938 0,-8.0816938 H 19.739584 A 6.7691398,6.7485672 0 0 0 14.318229,7.2521269 Z" />
        <g
           id="g6002"
           transform="matrix(0.0654685,0,0,0.06526953,6.9407183,8.0013977)"
           style="stroke-width:4.04754">
          <ellipse
             style="fill:#ffffff;fill-opacity:1;stroke:none;stroke-width:77.4833;stroke-linecap:square;stroke-linejoin:miter;stroke-miterlimit:4;stroke-dasharray:none;stroke-opacity:1"
             id="ellipse5970"
             cx="111.88393"
             cy="92.362587"
             rx="69.407715"
             ry="69.196426" />
          <path
             style="font-size:144px;font-family:'DejaVu Sans';stroke-width:4.04754"
             d="m 112.10082,50.923337 h 0.53161 c 23.74533,0.669528 40.6782,4.056103 50.79869,10.159737 10.67151,6.458198 16.00735,13.034455 16.00748,19.72879 -1.41777,6.025017 -4.1546,9.037484 -8.21048,9.037441 -0.23641,4.3e-5 -0.49237,-0.01971 -0.76788,-0.05911 l -24.04079,-8.269552 c -2.36283,-0.70876 -3.54419,-1.909815 -3.54409,-3.603161 -1e-4,-0.748136 0.23616,-1.61447 0.70883,-2.599001 2.67764,-2.795832 4.01653,-4.823839 4.01663,-6.08403 -1e-4,-0.905643 -0.66956,-1.417566 -2.00831,-1.535775 H 79.199807 c -1.33892,0.118209 -2.00836,0.630132 -2.00832,1.535775 -4e-5,1.260191 1.338839,3.288198 4.016641,6.08403 0.472498,0.945153 0.708779,1.811487 0.708821,2.599001 -4.2e-5,1.693346 -1.201101,2.894401 -3.603165,3.603161 L 54.273011,89.79019 c -0.275668,0.0394 -0.53163,0.05911 -0.767887,0.05911 -4.016652,5.3e-5 -6.753478,-3.012424 -8.210485,-9.037438 -8e-6,-6.694336 5.355507,-13.270593 16.066561,-19.728792 10.080944,-6.024876 26.994129,-9.411451 50.73962,-10.159736 z"
             id="path5972" />
          <ellipse
             style="fill:none;fill-opacity:1;stroke:none;stroke-width:4.7423;stroke-linecap:square;stroke-linejoin:miter;stroke-miterlimit:4;stroke-dasharray:none;stroke-opacity:1"
             id="ellipse5974"
             cx="48.491074"
             cy="31.46973"
             rx="1.5178572"
             ry="0.089285716" />
          <path
             id="path5976"
             style="font-size:144px;font-family:'DejaVu Sans';stroke-width:1"
             d="m 48.474609,47.728516 v 2.214843 c -1.2e-5,0.728585 -1.169288,1.370127 -3.507812,1.923829 -2.260592,0.922867 -3.390631,2.772512 -3.390625,5.550781 v 7.140625 h 24.919922 v -7.140625 c -3e-5,-2.778269 -1.12419,-4.627914 -3.375,-5.550781 -2.348302,-0.553702 -3.523462,-1.195244 -3.523438,-1.923829 v -2.214843 h -2.103515 v 1.09375 H 50.59375 v -1.09375 z m 5.482422,3.205078 c 1.646699,1.5e-5 3.03669,0.574429 4.171875,1.720703 1.135144,1.146295 1.703101,2.526114 1.703125,4.138672 -2.4e-5,1.622289 -0.570924,3.000148 -1.710937,4.136719 -1.140058,1.13657 -2.527106,1.70508 -4.164063,1.705078 -1.607758,2e-6 -2.986956,-0.568508 -4.136719,-1.705078 -1.149794,-1.136571 -1.724622,-2.51443 -1.724609,-4.136719 -1.3e-5,-1.612558 0.568935,-2.992377 1.708985,-4.138672 1.14002,-1.146274 2.525096,-1.720688 4.152343,-1.720703 z"
             transform="matrix(4.0413838,0,0,4.0537037,-106.01615,-122.59009)" />
          <path
             style="font-size:144px;font-family:'DejaVu Sans';stroke-width:4.04754"
             d="m 125.33209,107.56972 c -9e-5,3.66227 -1.28973,6.79288 -3.86896,9.39186 -2.5794,2.59901 -5.71986,3.89852 -9.42139,3.89851 -3.6623,1e-5 -6.78307,-1.2995 -9.36232,-3.89851 -2.57937,-2.59898 -3.869016,-5.72959 -3.868953,-9.39186 -6.3e-5,-3.74093 1.289583,-6.90106 3.868953,-9.48042 2.57925,-2.579263 5.70002,-3.868928 9.36232,-3.868971 3.70153,4.3e-5 6.84199,1.289708 9.42139,3.868971 2.57923,2.57936 3.86887,5.73949 3.86896,9.48042 z"
             id="path5978" />
          <ellipse
             style="fill:#000000;fill-opacity:1;stroke:none;stroke-width:1.52978"
             id="ellipse5980"
             cx="101.70567"
             cy="92.257919"
             rx="2.1108437"
             ry="2.1172783" />
          <ellipse
             style="fill:#000000;fill-opacity:1;stroke:none;stroke-width:1.52978"
             id="ellipse5982"
             cx="112.6536"
             cy="88.743851"
             rx="2.1108437"
             ry="2.1172783" />
          <ellipse
             style="fill:#000000;fill-opacity:1;stroke:none;stroke-width:1.52978"
             id="ellipse5984"
             cx="123.61787"
             cy="92.391838"
             rx="2.1108437"
             ry="2.1172783" />
          <ellipse
             style="fill:#000000;fill-opacity:1;stroke:none;stroke-width:1.52978"
             id="ellipse5986"
             cx="130.23662"
             cy="101.6943"
             rx="2.1108437"
             ry="2.1172783" />
          <ellipse
             style="fill:#000000;fill-opacity:1;stroke:none;stroke-width:1.52978"
             id="ellipse5988"
             cx="130.20636"
             cy="113.2402"
             rx="2.1108437"
             ry="2.1172783" />
          <ellipse
             style="fill:#000000;fill-opacity:1;stroke:none;stroke-width:1.52978"
             id="ellipse5990"
             cx="123.55966"
             cy="122.44379"
             rx="2.1108437"
             ry="2.1172783" />
          <ellipse
             style="fill:#000000;fill-opacity:1;stroke:none;stroke-width:1.52978"
             id="ellipse5992"
             cx="112.65164"
             cy="126.03825"
             rx="2.1108437"
             ry="2.1172783" />
          <ellipse
             style="fill:#000000;fill-opacity:1;stroke:none;stroke-width:1.52978"
             id="ellipse5994"
             cx="101.62955"
             cy="122.32898"
             rx="2.1108437"
             ry="2.1172783" />
          <ellipse
             style="fill:#000000;fill-opacity:1;stroke:none;stroke-width:1.52978"
             id="ellipse5996"
             cx="94.990326"
             cy="113.1267"
             rx="2.1108437"
             ry="2.1172783" />
          <ellipse
             style="fill:#000000;fill-opacity:1;stroke:none;stroke-width:1.52978"
             id="ellipse5998"
             cx="94.886177"
             cy="101.6133"
             rx="2.1108437"
             ry="2.1172783" />
          <path
             id="path6000"
             style="fill:#ff1616;fill-opacity:1;stroke:none;stroke-width:4.7423;stroke-linecap:square;stroke-linejoin:miter;stroke-miterlimit:4;stroke-dasharray:none;stroke-opacity:1"
             d="m 220.01562,202.67969 a 79.999999,79.999999 0 0 0 -80,80 79.999999,79.999999 0 0 0 80,80 79.999999,79.999999 0 0 0 80,-80 79.999999,79.999999 0 0 0 -80,-80 z m 0,16.96484 a 63.035712,63.035712 0 0 1 43.29297,17.37109 l -94.89062,81.73243 a 63.035712,63.035712 0 0 1 -11.4375,-36.06836 63.035712,63.035712 0 0 1 63.03515,-63.03516 z m 55.01368,32.54102 a 63.035712,63.035712 0 0 1 8.02148,30.49414 63.035712,63.035712 0 0 1 -63.03516,63.03515 63.035712,63.035712 0 0 1 -38.32812,-13.1289 z"
             transform="translate(-107.32766,-190.76285)" />
        </g>
        <text
           xml:space="preserve"
           style="font-weight:bold;font-size:2.40152px;line-height:1.25;font-family:sans-serif;-inkscape-font-specification:'sans-serif Bold';letter-spacing:0px;word-spacing:0px;stroke-width:0.264583"
           x="20.1908"
           y="14.917339"
           id="text6006"
           transform="scale(1.0015231,0.9984792)"><tspan
             sodipodi:role="line"
             id="tspan6004"
             style="font-size:2.40152px;stroke-width:0.264583"
             x="20.1908"
             y="14.917339">PhoneBlock</tspan></text>
      </g>
      <g
         id="g6050"
         transform="translate(37.00072,39.998873)">
        <path
           id="path6010"
           style="fill:#ededed;stroke:#000000;stroke-width:0.1"
           d="m 14.318229,7.2521269 a 6.7691398,6.7485672 0 0 0 -6.769212,6.7486401 6.7691398,6.7485672 0 0 0 6.769212,6.748513 6.7691398,6.7485672 0 0 0 5.415729,-2.707666 h 13.81104 c 4.891127,0 5.511781,-8.0816938 0,-8.0816938 H 19.739584 A 6.7691398,6.7485672 0 0 0 14.318229,7.2521269 Z" />
        <g
           id="g6044"
           transform="matrix(0.0654685,0,0,0.06526953,6.9407183,8.0013977)"
           style="stroke-width:4.04754">
          <ellipse
             style="fill:#ffffff;fill-opacity:1;stroke:none;stroke-width:77.4833;stroke-linecap:square;stroke-linejoin:miter;stroke-miterlimit:4;stroke-dasharray:none;stroke-opacity:1"
             id="ellipse6012"
             cx="111.88393"
             cy="92.362587"
             rx="69.407715"
             ry="69.196426" />
          <path
             style="font-size:144px;font-family:'DejaVu Sans';stroke-width:4.04754"
             d="m 112.10082,50.923337 h 0.53161 c 23.74533,0.669528 40.6782,4.056103 50.79869,10.159737 10.67151,6.458198 16.00735,13.034455 16.00748,19.72879 -1.41777,6.025017 -4.1546,9.037484 -8.21048,9.037441 -0.23641,4.3e-5 -0.49237,-0.01971 -0.76788,-0.05911 l -24.04079,-8.269552 c -2.36283,-0.70876 -3.54419,-1.909815 -3.54409,-3.603161 -1e-4,-0.748136 0.23616,-1.61447 0.70883,-2.599001 2.67764,-2.795832 4.01653,-4.823839 4.01663,-6.08403 -1e-4,-0.905643 -0.66956,-1.417566 -2.00831,-1.535775 H 79.199807 c -1.33892,0.118209 -2.00836,0.630132 -2.00832,1.535775 -4e-5,1.260191 1.338839,3.288198 4.016641,6.08403 0.472498,0.945153 0.708779,1.811487 0.708821,2.599001 -4.2e-5,1.693346 -1.201101,2.894401 -3.603165,3.603161 L 54.273011,89.79019 c -0.275668,0.0394 -0.53163,0.05911 -0.767887,0.05911 -4.016652,5.3e-5 -6.753478,-3.012424 -8.210485,-9.037438 -8e-6,-6.694336 5.355507,-13.270593 16.066561,-19.728792 10.080944,-6.024876 26.994129,-9.411451 50.73962,-10.159736 z"
             id="path6014" />
          <ellipse
             style="fill:none;fill-opacity:1;stroke:none;stroke-width:4.7423;stroke-linecap:square;stroke-linejoin:miter;stroke-miterlimit:4;stroke-dasharray:none;stroke-opacity:1"
             id="ellipse6016"
             cx="48.491074"
             cy="31.46973"
             rx="1.5178572"
             ry="0.089285716" />
          <path
             id="path6018"
             style="font-size:144px;font-family:'DejaVu Sans';stroke-width:1"
             d="m 48.474609,47.728516 v 2.214843 c -1.2e-5,0.728585 -1.169288,1.370127 -3.507812,1.923829 -2.260592,0.922867 -3.390631,2.772512 -3.390625,5.550781 v 7.140625 h 24.919922 v -7.140625 c -3e-5,-2.778269 -1.12419,-4.627914 -3.375,-5.550781 -2.348302,-0.553702 -3.523462,-1.195244 -3.523438,-1.923829 v -2.214843 h -2.103515 v 1.09375 H 50.59375 v -1.09375 z m 5.482422,3.205078 c 1.646699,1.5e-5 3.03669,0.574429 4.171875,1.720703 1.135144,1.146295 1.703101,2.526114 1.703125,4.138672 -2.4e-5,1.622289 -0.570924,3.000148 -1.710937,4.136719 -1.140058,1.13657 -2.527106,1.70508 -4.164063,1.705078 -1.607758,2e-6 -2.986956,-0.568508 -4.136719,-1.705078 -1.149794,-1.136571 -1.724622,-2.51443 -1.724609,-4.136719 -1.3e-5,-1.612558 0.568935,-2.992377 1.708985,-4.138672 1.14002,-1.146274 2.525096,-1.720688 4.152343,-1.720703 z"
             transform="matrix(4.0413838,0,0,4.0537037,-106.01615,-122.59009)" />
          <path
             style="font-size:144px;font-family:'DejaVu Sans';stroke-width:4.04754"
             d="m 125.33209,107.56972 c -9e-5,3.66227 -1.28973,6.79288 -3.86896,9.39186 -2.5794,2.59901 -5.71986,3.89852 -9.42139,3.89851 -3.6623,1e-5 -6.78307,-1.2995 -9.36232,-3.89851 -2.57937,-2.59898 -3.869016,-5.72959 -3.868953,-9.39186 -6.3e-5,-3.74093 1.289583,-6.90106 3.868953,-9.48042 2.57925,-2.579263 5.70002,-3.868928 9.36232,-3.868971 3.70153,4.3e-5 6.84199,1.289708 9.42139,3.868971 2.57923,2.57936 3.86887,5.73949 3.86896,9.48042 z"
             id="path6020" />
          <ellipse
             style="fill:#000000;fill-opacity:1;stroke:none;stroke-width:1.52978"
             id="ellipse6022"
             cx="101.70567"
             cy="92.257919"
             rx="2.1108437"
             ry="2.1172783" />
          <ellipse
             style="fill:#000000;fill-opacity:1;stroke:none;stroke-width:1.52978"
             id="ellipse6024"
             cx="112.6536"
             cy="88.743851"
             rx="2.1108437"
             ry="2.1172783" />
          <ellipse
             style="fill:#000000;fill-opacity:1;stroke:none;stroke-width:1.52978"
             id="ellipse6026"
             cx="123.61787"
             cy="92.391838"
             rx="2.1108437"
             ry="2.1172783" />
          <ellipse
             style="fill:#000000;fill-opacity:1;stroke:none;stroke-width:1.52978"
             id="ellipse6028"
             cx="130.23662"
             cy="101.6943"
             rx="2.1108437"
             ry="2.1172783" />
          <ellipse
             style="fill:#000000;fill-opacity:1;stroke:none;stroke-width:1.52978"
             id="ellipse6030"
             cx="130.20636"
             cy="113.2402"
             rx="2.1108437"
             ry="2.1172783" />
          <ellipse
             style="fill:#000000;fill-opacity:1;stroke:none;stroke-width:1.52978"
             id="ellipse6032"
             cx="123.55966"
             cy="122.44379"
             rx="2.1108437"
             ry="2.1172783" />
          <ellipse
             style="fill:#000000;fill-opacity:1;stroke:none;stroke-width:1.52978"
             id="ellipse6034"
             cx="112.65164"
             cy="126.03825"
             rx="2.1108437"
             ry="2.1172783" />
          <ellipse
             style="fill:#000000;fill-opacity:1;stroke:none;stroke-width:1.52978"
             id="ellipse6036"
             cx="101.62955"
             cy="122.32898"
             rx="2.1108437"
             ry="2.1172783" />
          <ellipse
             style="fill:#000000;fill-opacity:1;stroke:none;stroke-width:1.52978"
             id="ellipse6038"
             cx="94.990326"
             cy="113.1267"
             rx="2.1108437"
             ry="2.1172783" />
          <ellipse
             style="fill:#000000;fill-opacity:1;stroke:none;stroke-width:1.52978"
             id="ellipse6040"
             cx="94.886177"
             cy="101.6133"
             rx="2.1108437"
             ry="2.1172783" />
          <path
             id="path6042"
             style="fill:#ff1616;fill-opacity:1;stroke:none;stroke-width:4.7423;stroke-linecap:square;stroke-linejoin:miter;stroke-miterlimit:4;stroke-dasharray:none;stroke-opacity:1"
             d="m 220.01562,202.67969 a 79.999999,79.999999 0 0 0 -80,80 79.999999,79.999999 0 0 0 80,80 79.999999,79.999999 0 0 0 80,-80 79.999999,79.999999 0 0 0 -80,-80 z m 0,16.96484 a 63.035712,63.035712 0 0 1 43.29297,17.37109 l -94.89062,81.73243 a 63.035712,63.035712 0 0 1 -11.4375,-36.06836 63.035712,63.035712 0 0 1 63.03515,-63.03516 z m 55.01368,32.54102 a 63.035712,63.035712 0 0 1 8.02148,30.49414 63.035712,63.035712 0 0 1 -63.03516,63.03515 63.035712,63.035712 0 0 1 -38.32812,-13.1289 z"
             transform="translate(-107.32766,-190.76285)" />
        </g>
        <text
           xml:space="preserve"
           style="font-weight:bold;font-size:2.40152px;line-height:1.25;font-family:sans-serif;-inkscape-font-specification:'sans-serif Bold';letter-spacing:0px;word-spacing:0px;stroke-width:0.264583"
           x="20.1908"
           y="14.917339"
           id="text6048"
           transform="scale(1.0015231,0.9984792)"><tspan
             sodipodi:role="line"
             id="tspan6046"
             style="font-size:2.40152px;stroke-width:0.264583"
             x="20.1908"
             y="14.917339">PhoneBlock</tspan></text>
      </g>
    </g>
  </g>
</svg>
