<?xml version="1.0" encoding="UTF-8" standalone="no"?>
<!-- Created with Inkscape (http://www.inkscape.org/) -->

<svg
   width="512"
   height="512"
   viewBox="0 0 135.46666 135.46667"
   version="1.1"
   id="svg977"
   inkscape:version="1.1.2 (0a00cf5339, 2022-02-04)"
   sodipodi:docname="ganster-caller.svg"
   xmlns:inkscape="http://www.inkscape.org/namespaces/inkscape"
   xmlns:sodipodi="http://sodipodi.sourceforge.net/DTD/sodipodi-0.dtd"
   xmlns="http://www.w3.org/2000/svg"
   xmlns:svg="http://www.w3.org/2000/svg">
  <sodipodi:namedview
     id="namedview979"
     pagecolor="#ffffff"
     bordercolor="#666666"
     borderopacity="1.0"
     inkscape:pageshadow="2"
     inkscape:pageopacity="0.0"
     inkscape:pagecheckerboard="0"
     inkscape:document-units="mm"
     showgrid="false"
     units="px"
     inkscape:zoom="0.90583672"
     inkscape:cx="73.412789"
     inkscape:cy="340.5691"
     inkscape:window-width="2560"
     inkscape:window-height="1372"
     inkscape:window-x="0"
     inkscape:window-y="0"
     inkscape:window-maximized="1"
     inkscape:current-layer="layer1" />
  <defs
     id="defs974" />
  <g
     inkscape:label="Layer 1"
     inkscape:groupmode="layer"
     id="layer1">
    <g
       id="g58330">
      <path
         id="path11689"
         style="fill:#000000;fill-opacity:1;stroke:#070301;stroke-width:1.3;stroke-linecap:round;stroke-opacity:1;paint-order:markers fill stroke"
         d="m 83.334113,85.459897 -31.356741,0.915189 -3.674195,10.274308 c 0,0 -13.805876,0.942482 -18.675344,5.188826 -7.275727,6.34469 -10.786063,18.63555 -11.478369,26.58908 -0.193897,2.22757 2.633478,4.61919 4.869469,4.61419 32.041364,-0.0675 61.321732,0.21573 89.865827,0.078 2.51734,-0.0121 4.88863,-3.57501 4.50309,-6.06268 -1.33574,-8.61867 -4.42939,-17.90375 -10.6934,-24.04401 -5.55179,-5.44211 -19.36988,-5.879228 -19.36988,-5.879228 z m -3.961513,4.672066 2.924886,9.378756 C 73.174455,104.89219 63.51406,106.36095 52.70446,99.463692 l 3.014287,-8.057906 z" />
      <path
         style="fill:#000000;fill-opacity:1;stroke:#010000;stroke-width:1.3;stroke-linecap:round;stroke-opacity:1;paint-order:markers fill stroke"
         d="m 88.965356,74.467594 c -0.0183,0.0363 17.879144,-0.28957 18.719234,5.04207 0.49818,3.16172 -9.026694,3.2743 -9.026694,3.2743 0,0 5.671534,5.33335 3.395754,7.62432 -4.023204,4.05005 -17.133294,-9.19465 -17.293044,-9.05468 z"
         id="path13254"
         sodipodi:nodetypes="cscscc" />
      <path
         id="path3915"
         style="fill:#e4511b;fill-opacity:1;stroke:#df4e17;stroke-width:1.3;stroke-linecap:round;paint-order:markers fill stroke"
         d="M 67.34956,32.509642 C 56.7905,32.398301 36.644458,40.303998 36.644458,40.303998 l -1.346171,6.148461 c -1.158798,1.308706 -4.677251,5.926656 -4.088638,10.445358 -0.133537,7.623969 2.772027,9.466731 6.044073,12.91394 2.139524,10.439331 15.733924,25.01847 28.470614,25.53074 13.649737,0.549 29.968136,-12.817477 32.609895,-24.822258 3.025879,-3.856728 5.790649,-8.584001 5.866829,-13.485479 0.0969,-6.234927 -3.86075,-10.331153 -3.86075,-10.331153 l -1.650545,-5.530929 c 0,0 -20.502385,-8.548757 -31.340205,-8.663036 z M 46.015979,41.83517 c 14.827279,2.651509 29.274145,2.506851 43.505355,0.777214 0,0 0.566441,8.492937 1.04128,12.799734 0.184359,1.672191 3.555532,1.519831 5.003311,0.663009 1.167551,-0.69098 1.472779,-3.794601 1.472779,-3.794601 1.50358,4.347805 3.001936,10.156682 -0.787032,11.840104 -8.730247,3.878807 -18.65639,3.286977 -27.886152,3.38274 C 57.066579,67.620602 45.967988,66.418769 38.066594,63.54909 35.711209,59.891519 37.101148,56.084292 37.253722,52.326519 l 1.29553,0.06873 c 0,0 0.52769,1.936758 1.012857,3.294888 0.454141,1.271281 5.10849,1.040241 5.30407,-0.2682 z"
         sodipodi:nodetypes="sccccscsccsccsscsscccscc" />
      <path
         style="fill:#e83434;fill-opacity:1;stroke:#e83434;stroke-width:1.3;stroke-linecap:round;stroke-opacity:1;paint-order:markers fill stroke"
         d="m 22.736499,34.076549 c 0.0652,-4.839474 9.92361,-6.119352 18.71771,-7.474077 l 1.44764,-13.371063 c -0.12948,-3.3766682 2.94643,-8.0728282 11.5557,-9.1426082 4.95806,-0.616083 8.95789,3.698756 13.765267,3.588475 4.31752,-0.09904 8.90439,-3.501477 13.56208,-3.382767 6.48989,0.165407 10.00988,4.961216 10.61601,8.2969162 l 1.80321,13.873908 c 7.659584,1.541599 19.038764,3.414199 18.997084,7.816929 -0.0685,7.231951 -28.717384,9.704989 -44.419644,10.285431 C 50.279329,45.251638 22.630929,41.909681 22.736499,34.076549 Z"
         id="path1083"
         sodipodi:nodetypes="sccsssccsss" />
      <path
         style="fill:#000000;fill-opacity:1;stroke:#000000;stroke-width:1.3;stroke-linecap:round;stroke-opacity:1;paint-order:markers fill stroke"
         d="m 35.298367,46.452359 c 20.221262,2.806818 42.045659,2.622541 65.042133,0.251423 l 0.30478,5.325565 -13.155734,0.434279 c 0,0 0.21487,11.638688 -8.22868,11.496828 -10.75321,-0.18066 -9.75251,-11.153986 -9.75251,-11.153986 h -3.936568 c 0,0 0.366562,10.89625 -8.508045,10.993986 C 45.580091,63.926922 46.879491,52.075057 46.879491,52.075057 L 34.76503,50.589386 Z"
         id="path5907"
         sodipodi:nodetypes="ccccsccsccc" />
      <g
         id="g26755"
         transform="translate(-76.182858,84.43581)">
        <path
           style="fill:#00d1b2;fill-opacity:1;stroke:none;stroke-width:0.1;stroke-linecap:square;stroke-miterlimit:4;stroke-dasharray:none;stroke-opacity:1;paint-order:markers fill stroke"
           d="m 207.54589,1.0916164 c -5.24505,-14.3106334 -21.30715,-21.5831404 -35.87568,-16.2435524 -5.42817,1.994803 -10.11994,5.5853694 -13.43431,10.2832644 -4.78378,3.509453 -10.59406,4.62132396 -17.4683,3.247537 1.4311,3.088177 3.26995,6.333271 12.33422,12.3581236 -0.0523,3.326187 0.54826,6.573002 1.68648,9.690818 5.24505,14.310669 21.30714,21.583156 35.87567,16.243538 14.56859,-5.339431 22.1269,-21.269033 16.88192,-35.5797286 z"
           id="path14987" />
      </g>
    </g>
  </g>
</svg>
