<?xml version="1.0" encoding="UTF-8" standalone="no"?>
<svg
   width="1062.5233"
   height="633.25854"
   viewBox="0 0 1062.5233 633.25854"
   font-family="'Segoe UI', 'Helvetica Neue', Arial, sans-serif"
   version="1.1"
   id="svg1186"
   sodipodi:docname="how-it-works.svg"
   inkscape:version="1.1.2 (0a00cf5339, 2022-02-04)"
   inkscape:export-filename="/home/bhu/git/phoneblock/phoneblock-dongle/how-it-works.png"
   inkscape:export-xdpi="115.65"
   inkscape:export-ydpi="115.65"
   xmlns:inkscape="http://www.inkscape.org/namespaces/inkscape"
   xmlns:sodipodi="http://sodipodi.sourceforge.net/DTD/sodipodi-0.dtd"
   xmlns="http://www.w3.org/2000/svg"
   xmlns:svg="http://www.w3.org/2000/svg">
  <sodipodi:namedview
     id="namedview1188"
     pagecolor="#ffffff"
     bordercolor="#666666"
     borderopacity="1.0"
     inkscape:pageshadow="2"
     inkscape:pageopacity="0.0"
     inkscape:pagecheckerboard="0"
     showgrid="false"
     fit-margin-top="20"
     fit-margin-left="20"
     fit-margin-right="20"
     fit-margin-bottom="20"
     lock-margins="true"
     inkscape:zoom="0.92179487"
     inkscape:cx="455.0904"
     inkscape:cy="314.0612"
     inkscape:window-width="2560"
     inkscape:window-height="1372"
     inkscape:window-x="0"
     inkscape:window-y="0"
     inkscape:window-maximized="1"
     inkscape:current-layer="svg1186" />
  <defs
     id="defs1006">
    <marker
       style="overflow:visible"
       id="marker31790"
       refX="0"
       refY="0"
       orient="auto"
       inkscape:stockid="Arrow2Lend"
       inkscape:isstock="true">
      <path
         transform="matrix(-1.1,0,0,-1.1,-1.1,0)"
         d="M 8.7185878,4.0337352 -2.2072895,0.01601326 8.7185884,-4.0017078 c -1.7454984,2.3720609 -1.7354408,5.6174519 -6e-7,8.035443 z"
         style="fill:context-stroke;fill-rule:evenodd;stroke:context-stroke;stroke-width:0.625;stroke-linejoin:round"
         id="path31788" />
    </marker>
    <marker
       style="overflow:visible"
       id="Arrow1Lend"
       refX="0"
       refY="0"
       orient="auto"
       inkscape:stockid="Arrow1Lend"
       inkscape:isstock="true">
      <path
         transform="matrix(-0.8,0,0,-0.8,-10,0)"
         style="fill:context-stroke;fill-rule:evenodd;stroke:context-stroke;stroke-width:1pt"
         d="M 0,0 5,-5 -12.5,0 5,5 Z"
         id="path31115" />
    </marker>
    <marker
       style="overflow:visible"
       id="Arrow2Lend"
       refX="0"
       refY="0"
       orient="auto"
       inkscape:stockid="Arrow2Lend"
       inkscape:isstock="true">
      <path
         transform="matrix(-1.1,0,0,-1.1,-1.1,0)"
         d="M 8.7185878,4.0337352 -2.2072895,0.01601326 8.7185884,-4.0017078 c -1.7454984,2.3720609 -1.7354408,5.6174519 -6e-7,8.035443 z"
         style="fill:context-stroke;fill-rule:evenodd;stroke:context-stroke;stroke-width:0.625;stroke-linejoin:round"
         id="path31133" />
    </marker>
    <marker
       style="overflow:visible"
       id="TriangleOutL"
       refX="0"
       refY="0"
       orient="auto"
       inkscape:stockid="TriangleOutL"
       inkscape:isstock="true">
      <path
         transform="scale(0.8)"
         style="fill:context-stroke;fill-rule:evenodd;stroke:context-stroke;stroke-width:1pt"
         d="M 5.77,0 -2.88,5 V -5 Z"
         id="path31254" />
    </marker>
    <!-- Pfeilspitzen -->
    <marker
       id="arrow"
       viewBox="0 0 10 10"
       refX="9"
       refY="5"
       markerWidth="8"
       markerHeight="8"
       orient="auto-start-reverse">
      <path
         d="M 0,0 10,5 0,10 Z"
         fill="#37474f"
         id="path993" />
    </marker>
    <marker
       id="arrowBlue"
       viewBox="0 0 10 10"
       refX="9"
       refY="5"
       markerWidth="8"
       markerHeight="8"
       orient="auto-start-reverse">
      <path
         d="M 0,0 10,5 0,10 Z"
         fill="#1565c0"
         id="path996" />
    </marker>
    <marker
       id="arrowOrange"
       viewBox="0 0 10 10"
       refX="9"
       refY="5"
       markerWidth="8"
       markerHeight="8"
       orient="auto-start-reverse">
      <path
         d="M 0,0 10,5 0,10 Z"
         fill="#e65100"
         id="path999" />
    </marker>
    <marker
       id="arrowRed"
       viewBox="0 0 10 10"
       refX="9"
       refY="5"
       markerWidth="8"
       markerHeight="8"
       orient="auto-start-reverse">
      <path
         d="M 0,0 10,5 0,10 Z"
         fill="#c62828"
         id="path1002" />
    </marker>
    <filter
       id="shadow"
       x="-0.0069444445"
       y="-0.010416667"
       width="1.013889"
       height="1.0208333">
      <feDropShadow
         dx="0"
         dy="2"
         stdDeviation="3"
         flood-color="#000000"
         flood-opacity="0.18" />
    </filter>
  </defs>
  <!-- Hintergrund -->
  <!-- Titel -->
  <!-- ============ KOMPONENTEN ============ -->
  <!-- Spam-Anrufer -->
  <text
     x="74.968262"
     y="368.87506"
     text-anchor="middle"
     font-size="15.5px"
     font-weight="700"
     fill="#c62828"
     id="text1020">Spam-Anrufer</text>
  <text
     x="74.968262"
     y="390.87506"
     text-anchor="middle"
     font-size="12.5px"
     fill="#78848d"
     id="text1022">Werbung, Betrug …</text>
  <!-- Telefon-Provider (als Server dargestellt) -->
  <text
     x="269.96826"
     y="378.87506"
     text-anchor="middle"
     font-size="15.5px"
     font-weight="700"
     fill="#37474f"
     id="text1044">Telefon-Provider</text>
  <text
     x="269.96826"
     y="399.87506"
     text-anchor="middle"
     font-size="12.5px"
     fill="#78848d"
     id="text1046">Telefonnetz</text>
  <!-- Router (Fritz!Box) -->
  <text
     x="459.96826"
     y="372.87506"
     text-anchor="middle"
     font-size="15.5px"
     font-weight="700"
     fill="#37474f"
     id="text1054">Dein Router</text>
  <!-- PhoneBlock-Dongle: eigene Box, gleichberechtigt -->
  <text
     x="869.19489"
     y="361.48059"
     text-anchor="middle"
     font-size="15.5px"
     font-weight="700"
     fill="#1565c0"
     id="text1064">PhoneBlock-Dongle</text>
  <text
     x="869.49817"
     y="380.44504"
     text-anchor="middle"
     font-size="12.5px"
     fill="#5b6b78"
     id="text1066">steckt z.B. im USB-Port des Routers</text>
  <!-- PhoneBlock-Server (Cloud) -->
  <text
     x="869.00403"
     y="105.46416"
     text-anchor="middle"
     font-size="16px"
     font-weight="700"
     fill="#2e7d32"
     id="text1074">phoneblock.net</text>
  <text
     x="869.22375"
     y="121.52902"
     text-anchor="middle"
     font-size="12px"
     fill="#5b6b78"
     id="text1076">Spam-Datenbank der Gemeinschaft</text>
  <!-- Ihr Telefon zu Hause -->
  <text
     x="869.41028"
     y="590.85028"
     text-anchor="middle"
     font-size="16px"
     font-weight="700"
     fill="#37474f"
     id="text1084">Dein Telefon</text>
  <text
     x="877.11414"
     y="610.69409"
     text-anchor="middle"
     font-size="13px"
     fill="#2e7d32"
     font-weight="600"
     id="text1086">bleibt bei Spam still 🔕</text>
  <!-- ============ ABLAUF-PFEILE ============ -->
  <!-- 1: Spammer -> Provider -->
  <line
     x1="152.96826"
     y1="350.87506"
     x2="190.96826"
     y2="350.87506"
     stroke="#37474f"
     stroke-width="2.5"
     marker-end="url(#arrow)"
     id="line1088" />
  <g
     id="g23711"
     transform="translate(-32.031738,-67.124927)">
    <circle
       cx="204"
       cy="388"
       r="13"
       fill="#37474f"
       id="circle1090" />
    <text
       x="204"
       y="393"
       text-anchor="middle"
       font-size="14px"
       font-weight="700"
       fill="#ffffff"
       id="text1092">1</text>
  </g>
  <text
     x="171.96826"
     y="281.87506"
     text-anchor="middle"
     font-size="12.5px"
     fill="#37474f"
     id="text1094">wählt Deine</text>
  <text
     x="171.96826"
     y="297.87506"
     text-anchor="middle"
     font-size="12.5px"
     fill="#37474f"
     id="text1096">Nummer</text>
  <!-- 2: Provider -> Router -->
  <line
     x1="347.96826"
     y1="350.87506"
     x2="385.96826"
     y2="350.87506"
     stroke="#37474f"
     stroke-width="2.5"
     marker-end="url(#arrow)"
     id="line1098" />
  <g
     id="g23627"
     transform="translate(-32.031738,-67.124927)">
    <circle
       cx="399"
       cy="388"
       r="13"
       fill="#37474f"
       id="circle1100" />
    <text
       x="399"
       y="393"
       text-anchor="middle"
       font-size="14px"
       font-weight="700"
       fill="#ffffff"
       id="text1102">2</text>
  </g>
  <text
     x="366.96826"
     y="291.87506"
     text-anchor="middle"
     font-size="12.5px"
     fill="#37474f"
     id="text1104">Anruf</text>
  <!-- 3: Router -> Dongle -->
  <line
     x1="532.96832"
     y1="302.87506"
     x2="787.12421"
     y2="302.87506"
     stroke="#1565c0"
     stroke-width="2.5"
     marker-end="url(#arrowBlue)"
     id="line1106"
     style="marker-end:url(#Arrow2Lend)" />
  <g
     id="g23543"
     transform="translate(75.819932,-109.15735)">
    <circle
       cx="586"
       cy="388"
       r="13"
       fill="#1565c0"
       id="circle1108" />
    <text
       x="586"
       y="393"
       text-anchor="middle"
       font-size="14px"
       font-weight="700"
       fill="#ffffff"
       id="text1110">3</text>
  </g>
  <text
     x="661.41101"
     y="256.66776"
     text-anchor="middle"
     font-size="12.5px"
     fill="#1565c0"
     font-weight="600"
     id="text1112"><tspan
       sodipodi:role="line"
       id="tspan25416"
       x="661.41101"
       y="256.66776">Signalisiert Anruf</tspan></text>
  <!-- 4: Dongle -> Server (Frage) -->
  <path
     d="m 857.65615,254.01548 c -23.79459,-44.1379 -30.16521,-68.83909 9.13281,-118.7897"
     fill="none"
     stroke="#1565c0"
     stroke-width="2.5"
     marker-end="url(#arrowBlue)"
     id="path1116"
     sodipodi:nodetypes="cc" />
  <g
     id="g21808"
     transform="translate(-56.069298,-105.24611)">
    <circle
       cx="812"
       cy="282"
       r="13"
       fill="#1565c0"
       id="circle1118" />
    <text
       x="812"
       y="287"
       text-anchor="middle"
       font-size="14px"
       font-weight="700"
       fill="#ffffff"
       id="text1120">4</text>
  </g>
  <text
     x="668.60229"
     y="211.59612"
     text-anchor="start"
     font-size="12.5px"
     fill="#1565c0"
     font-weight="600"
     id="text1122">„Ist diese Nummer Spam?&quot;</text>
  <!-- 5: Server -> Dongle (Antwort) - dunkelorange + Warnsymbol -->
  <path
     d="m 919.96826,136.87507 c 35.70733,25.98701 35.96209,70.8856 4.48555,111.73546"
     fill="none"
     stroke="#e65100"
     stroke-width="2.5"
     marker-end="url(#arrowOrange)"
     stroke-dasharray="6, 5"
     id="path1124"
     sodipodi:nodetypes="cc" />
  <g
     id="g21800"
     transform="translate(45.893203,-109.78405)">
    <circle
       cx="935"
       cy="300"
       r="13"
       fill="#e65100"
       id="circle1126" />
    <text
       x="935"
       y="305"
       text-anchor="middle"
       font-size="14px"
       font-weight="700"
       fill="#ffffff"
       id="text1128">5</text>
  </g>
  <!-- Warndreieck -->
  <g
     id="g21804"
     transform="translate(-3.605406,-119.99514)">
    <text
       x="958"
       y="345"
       text-anchor="start"
       font-size="12.5px"
       fill="#e65100"
       font-weight="700"
       id="text1138">„Ja – als Spam</text>
    <text
       x="958"
       y="362"
       text-anchor="start"
       font-size="12.5px"
       fill="#e65100"
       font-weight="700"
       id="text1140">gemeldet!&quot;</text>
  </g>
  <!-- 6: Dongle -> Telefon (blockiert) -->
  <path
     d="M 531.23895,345.8881 809.66716,492.98021"
     fill="none"
     stroke="#c62828"
     stroke-width="2.5"
     marker-end="url(#arrowRed)"
     stroke-dasharray="2, 6"
     id="path1142"
     sodipodi:nodetypes="cc" />
  <g
     id="g23852"
     transform="translate(-130.03821,-57.211683)">
    <circle
       cx="757"
       cy="512"
       r="13"
       fill="#c62828"
       id="circle1144" />
    <text
       x="757"
       y="517"
       text-anchor="middle"
       font-size="14px"
       font-weight="700"
       fill="#ffffff"
       id="text1146">6</text>
  </g>
  <!-- Blockier-Symbol -->
  <g
     transform="translate(681.32376,427.91504)"
     id="g1152">
    <circle
       cx="0"
       cy="0"
       r="17"
       fill="#ffffff"
       stroke="#c62828"
       stroke-width="3"
       id="circle1148" />
    <line
       x1="-12"
       y1="12"
       x2="12"
       y2="-12"
       stroke="#c62828"
       stroke-width="3"
       id="line1150" />
  </g>
  <text
     x="634.60052"
     y="484.56079"
     text-anchor="middle"
     font-size="12.5px"
     fill="#c62828"
     font-weight="600"
     id="text1154">klingelt nicht durch</text>
  <!-- Dongle fängt Anruf ab (Ansage) -->
  <!-- ============ LEGENDE ============ -->
  <g
     id="g3253"
     transform="matrix(0.80875659,-0.02366042,0.02366042,0.80875659,937.38403,289.62371)"
     style="stroke-width:4.67126">
    <path
       id="path2234"
       style="fill:#1565c0;fill-opacity:1;stroke-width:3.77953"
       d="m 931.93945,335.45508 c -4.06789,0.0754 -8.18358,0.97334 -11.83203,2.66797 -0.82733,0.38428 -13.1882,7.76685 -27.46875,16.40625 -21.2241,12.84007 -26.02265,15.82872 -26.27929,16.36523 -0.60942,1.27393 -0.47233,2.10766 0.66406,4.05664 l 1.0664,1.82813 -12.5625,7.58398 c -13.45886,8.12534 -13.60352,8.23027 -13.71484,9.99024 -0.0463,0.73241 1.10158,2.7386 10.37891,18.125 11.13653,18.46988 10.85976,18.072 12.67187,18.18554 0.74326,0.0466 2.24933,-0.79995 13.66602,-7.68164 l 12.83008,-7.73242 0.92773,1.57812 c 1.31069,2.22881 2.52593,3.02348 4.03906,2.64258 0.91209,-0.22959 52.81852,-31.6908 54.29688,-32.91015 3.5122,-2.89687 6.41338,-6.76209 8.22851,-10.96094 0.78514,-1.81623 2.06423,-6.99582 2.21485,-8.96875 0.47198,-6.18244 -1.052,-12.38213 -4.33203,-17.61328 -3.61402,-5.76378 -8.52032,-9.68164 -15.07422,-12.03906 -2.49256,-0.89657 -5.20942,-1.396 -7.98243,-1.50586 -0.5777,-0.0229 -1.15715,-0.0284 -1.73828,-0.0176 z m 0.32813,6.40234 c 1.5404,-0.0171 2.85476,0.13093 4.74804,0.53516 10.97986,2.34431 18.44242,12.31064 17.65821,23.58203 -0.41654,5.98693 -3.48847,11.88597 -8.14649,15.64453 -0.93622,0.75543 -11.91917,7.52403 -25.6875,15.83203 l -24.04882,14.51367 -11.62305,-19.24609 -11.62109,-19.24609 24.54882,-14.79297 c 20.80932,-12.54079 24.8612,-14.9039 26.59961,-15.50977 2.55066,-0.88894 4.8188,-1.28189 7.57227,-1.3125 z m -60.79297,40.48047 8.29297,13.73633 8.29297,13.73437 -11.01367,6.65235 -11.01368,6.65039 -8.29492,-13.73438 -8.29297,-13.73633 11.01367,-6.65039 z"
       transform="matrix(1.2354086,0.03614225,-0.03614225,1.2354086,-1184.0803,-498.00457)" />
    <path
       style="fill:#1565c0;fill-opacity:1;stroke-width:4.67126"
       d="m -115.59274,32.796349 c 1.72843,1.42535 1.8996,4.06872 0.36816,5.68528 -0.83997,0.88666 -8.45058,5.06112 -9.37117,5.14013 -3.19964,0.27463 -5.35135,-3.15255 -3.70813,-5.90623 0.38334,-0.6424 1.60776,-1.49833 4.65582,-3.25461 5.03078,-2.89871 6.25259,-3.15118 8.05532,-1.66457 z"
       id="path2756" />
    <path
       style="fill:#1565c0;fill-opacity:1;stroke-width:4.67126"
       d="m -123.05382,19.335429 c 1.18421,1.26637 1.40873,2.90136 0.61954,4.51173 -0.36398,0.74272 -1.24072,1.36012 -4.89649,3.44808 -4.89794,2.79744 -5.70154,3.01129 -7.44294,1.98068 -1.12012,-0.66293 -2.01212,-2.38295 -1.90154,-3.66674 0.16184,-1.8792 0.68428,-2.38598 5.04575,-4.89418 2.2716,-1.30637 4.48516,-2.45159 4.91902,-2.54494 1.12601,-0.24226 2.85589,0.30906 3.65666,1.16537 z"
       id="path2754" />
    <path
       style="fill:#ef1515;fill-opacity:1;stroke-width:4.67126"
       d="m -74.184908,-23.705461 c 0.86257,0.92242 1.05538,1.55367 1.39293,4.56035 0.73193,6.519698 2.3402,11.5056858 5.53791,17.1686056 3.23788,5.7340702 6.88704,9.8925626 12.10558,13.7951844 1.06278,0.79478 2.13472,1.75927 2.38208,2.1433 1.40486,2.18102 0.44906,5.05474 -1.95108,5.86622 -1.53523,0.51905 -2.97518,-0.006 -5.72197,-2.0866 -11.2845,-8.5474508 -18.68582,-21.6771344 -20.18689,-35.81087 -0.37249,-3.50719 0.0354,-5.21369 1.45296,-6.079 1.73987,-1.06204 3.74794,-0.88378 4.98848,0.44281 z"
       id="path2750" />
    <path
       style="fill:#ef1515;fill-opacity:1;stroke-width:4.67126"
       d="m -60.071932,-23.359929 c 0.70466,0.81934 0.88418,1.46867 1.55884,5.63831 1.07132,6.621167 4.73185,12.7869866 10.24113,17.25021648 1.25303,1.01511008 2.44058,2.10240012 2.639,2.41619012 1.70492,2.69611 -0.4305,6.1245618 -3.73168,5.9912618 -0.98761,-0.0399 -3.37197,-1.6565414 -5.93955,-4.0271818 -6.32457,-5.8394802 -10.44597,-14.0151496 -11.36821,-22.5513066 -0.37868,-3.50504 0.61614,-5.39499 3.11829,-5.92411 1.18817,-0.25126 2.66995,0.2622 3.48218,1.20662 z"
       id="path2748" />
    <path
       style="fill:#ef1515;fill-opacity:1;stroke-width:4.67126"
       d="m -46.039506,-23.126067 c 0.49378,0.57174 0.86093,1.59399 1.22224,3.40297 0.68052,3.40726 1.86974,5.51356 4.38095,7.759269 2.18167,1.951028 2.75054,3.1310284 2.29638,4.7633884 -0.54948,1.97497 -2.1871,3.11213 -4.28977,2.97882 -1.5068,-0.0955 -4.47138,-2.57315 -6.75431,-5.64483 -2.81205,-3.7835974 -4.44616,-10.3403074 -3.13095,-12.5625774 1.32091,-2.23189 4.63227,-2.5997 6.27546,-0.69704 z"
       id="path2746" />
    <path
       style="fill:#ef1515;fill-opacity:1;stroke-width:4.67126"
       d="m -32.25769,-23.098995 c 1.20469,1.09325 1.56394,2.5531 1.00411,4.08031 -0.60111,1.63982 -1.65837,2.49431 -3.27353,2.64568 -1.76117,0.16506 -2.90494,-0.44912 -3.73264,-2.00437 -2.08102,-3.91023 2.72768,-7.69308 6.00206,-4.72162 z"
       id="path2744" />
  </g>
  <path
     id="path4685"
     style="fill:#000000;stroke-width:3.77952"
     sodipodi:type="inkscape:offset"
     inkscape:radius="-1.5989994"
     inkscape:original="M 493.34375 353.08984 C 491.84521 353.08984 490.76987 353.5541 490.10352 354.48828 C 489.61842 355.16834 489.61266 355.26447 489.50391 365.26953 L 489.39453 375.36328 L 484.32812 375.42188 L 479.26367 375.48047 L 476.3418 367.52344 C 471.82561 355.22579 471.80482 355.17748 470.95312 354.42969 C 470.02744 353.61693 468.88605 353.37871 467.56836 353.72266 C 466.36458 354.03688 465.63755 354.53648 464.98047 355.50195 C 464.06249 356.85072 464.21296 357.48694 467.64258 366.80469 L 470.79297 375.36328 L 464.8418 375.47266 C 459.00115 375.58036 458.86822 375.59296 457.68359 376.15234 C 457.01978 376.46579 456.09084 377.12379 455.61914 377.61328 C 454.7732 378.49113 454.69566 378.72133 449.97266 394.59766 C 447.33914 403.45025 444.98151 411.26993 444.73242 411.97461 C 444.29877 413.20137 444.28245 413.63613 444.34375 422.17969 L 444.4082 431.10156 L 444.98633 432.33594 C 446.05587 434.61696 448.11626 436.3789 450.44922 437.00586 C 451.48364 437.28382 457.37972 437.3294 493.24219 437.3418 C 530.13145 437.35461 534.98451 437.31725 536.14258 437.01562 C 538.56422 436.38486 540.61026 434.66251 541.70117 432.33594 L 542.2793 431.10156 L 542.34375 422.17969 C 542.40525 413.61207 542.38939 413.20484 541.95117 411.97461 C 541.70015 411.26994 539.33756 403.45284 536.70117 394.60156 C 531.97955 378.74945 531.8948 378.49511 531.05859 377.63867 C 530.59167 377.16046 529.66772 376.50184 529.00391 376.17578 C 527.80343 375.58614 527.76452 375.5818 521.8457 375.47266 L 515.89453 375.36328 L 519.04492 366.80469 C 521.38897 360.43625 522.19527 357.98782 522.19727 357.23633 C 522.20526 354.20517 518.047 352.39918 515.73438 354.42969 C 514.88114 355.17884 514.8434 355.2697 510.34961 367.52344 L 507.43164 375.48047 L 502.36328 375.42188 L 497.29297 375.36328 L 497.18359 365.26953 C 497.07484 355.26447 497.06907 355.16834 496.58398 354.48828 C 495.91762 353.5541 494.84229 353.08984 493.34375 353.08984 z M 461.01172 382.71484 L 493.3457 382.71484 C 523.95066 382.71484 525.68828 382.73613 525.79883 383.09961 C 526.99051 387.01755 532.51367 405.85107 532.51367 405.99609 C 532.51367 406.11606 516.81056 406.19531 493.34375 406.19531 C 463.27966 406.19531 454.17383 406.13532 454.17383 405.93555 C 454.17383 405.6976 459.89651 386.17775 460.67578 383.75781 L 461.01172 382.71484 z M 452.20898 413.21875 L 493.14453 413.21875 C 518.86555 413.21875 534.22543 413.29542 534.47266 413.42773 C 535.26488 413.85173 535.39312 415.20182 535.32422 422.45508 C 535.27215 427.9347 535.19503 429.46545 534.95703 429.75195 C 534.67895 430.08669 531.48614 430.11523 493.32227 430.11523 L 451.98828 430.11523 L 451.64258 429.58789 C 451.34242 429.1297 451.30598 428.10371 451.36328 421.73242 C 451.42246 415.15483 451.46912 414.3431 451.81836 413.81055 L 452.20898 413.21875 z M 470.41406 417.80859 C 467.88582 417.99637 465.71714 420.78144 467.09766 423.48633 C 467.62803 424.5255 468.19728 425.03415 469.24609 425.4082 C 470.7898 425.95876 472.14202 425.64535 473.35938 424.45508 C 475.04437 422.80754 474.84791 420.03862 472.94336 418.58594 C 472.13919 417.97257 471.25681 417.746 470.41406 417.80859 z M 481.22852 417.82617 L 480.48828 418.32617 C 479.26165 419.15279 478.75 420.11418 478.75 421.5957 C 478.75 423.71216 479.42444 424.80852 481.0957 425.41211 C 481.77464 425.65755 484.15371 425.70572 493.67188 425.66602 C 504.97024 425.61886 505.44113 425.6001 506.1582 425.17773 C 507.41953 424.43479 507.80958 423.70526 507.89648 421.92969 C 507.96363 420.55684 507.90689 420.25077 507.45703 419.58789 C 507.1723 419.16832 506.60645 418.6006 506.19922 418.32617 L 505.45703 417.82617 L 493.34375 417.82617 L 481.22852 417.82617 z M 458.84766 417.83008 C 456.72129 417.69083 454.60339 419.33734 454.61719 421.71484 C 454.62706 423.41526 455.81563 425.02675 457.41797 425.50977 C 459.90063 426.25815 462.52336 424.22047 462.50586 421.55664 C 462.49992 420.65029 461.73219 419.23945 460.89844 418.60352 C 460.26661 418.1216 459.55644 417.87649 458.84766 417.83008 z "
     d="m 493.34375,354.68945 c -1.16828,0 -1.59799,0.25059 -1.9375,0.72657 -0.1118,0.15673 -0.0274,-0.005 -0.043,0.0527 -0.0156,0.0578 -0.0681,0.36579 -0.10351,1.00195 -0.0708,1.27234 -0.10188,3.81413 -0.15625,8.81641 l -0.10938,10.09375 a 1.5991593,1.5991593 0 0 1 -1.58203,1.58203 l -5.06641,0.0586 -5.06445,0.0586 a 1.5991593,1.5991593 0 0 1 -1.51953,-1.04883 l -2.92188,-7.95703 c -2.25805,-6.14872 -3.3975,-9.24744 -4.04492,-10.82031 -0.32371,-0.78644 -0.52686,-1.17993 -0.625,-1.33399 -0.0981,-0.15405 -0.0625,-0.10562 -0.27148,-0.28906 -0.55238,-0.485 -1.001,-0.60272 -1.92578,-0.36133 -0.95525,0.24935 -1.17716,0.40877 -1.66993,1.13281 -0.18516,0.27206 -0.18137,0.27952 -0.19531,0.36914 -0.0139,0.0896 -0.021,0.38286 0.13086,1.02735 0.30366,1.28897 1.19094,3.79821 2.9043,8.45312 l 3.15039,8.5586 a 1.5991593,1.5991593 0 0 1 -1.4707,2.15234 l -5.95118,0.10938 c -2.9194,0.0538 -4.42065,0.0878 -5.20312,0.16211 -0.78247,0.0743 -0.72516,0.0915 -1.30078,0.36328 -0.40335,0.19046 -1.35504,0.87525 -1.59571,1.125 -0.19572,0.2031 -0.17341,0.15407 -0.30273,0.4082 -0.12932,0.25413 -0.35319,0.80892 -0.70117,1.85547 -0.69597,2.09308 -1.9003,6.12851 -4.26172,14.0664 -1.31726,4.42796 -2.56508,8.59773 -3.51563,11.75 -0.95054,3.15228 -1.53437,5.09507 -1.75,5.70508 -0.19914,0.56336 -0.24138,0.63406 -0.28906,1.88672 -0.0477,1.25266 -0.0385,3.50287 -0.008,7.77344 l 0.0606,8.57226 0.42968,0.91797 c 0.86902,1.85223 2.59445,3.30953 4.42969,3.80274 -0.0985,-0.0265 0.49215,0.0727 1.7207,0.11523 1.22856,0.0425 3.17572,0.0739 6.2129,0.0977 6.07434,0.0476 16.51472,0.0622 34.44531,0.0684 18.44406,0.006 28.8818,4.2e-4 34.83789,-0.0449 5.95609,-0.0453 7.59275,-0.21096 7.66015,-0.22852 1.94716,-0.50717 3.62025,-1.9071 4.51368,-3.8125 l 0.42968,-0.91602 0.0606,-8.57226 c 0.0307,-4.28264 0.0402,-6.5331 -0.008,-7.78125 -0.048,-1.24815 -0.0886,-1.30668 -0.29102,-1.875 -0.22057,-0.61919 -0.80342,-2.55542 -1.75586,-5.70703 -0.95243,-3.15161 -2.20275,-7.31864 -3.52148,-11.7461 -2.36073,-7.92579 -3.56521,-11.96282 -4.26172,-14.05664 -0.34825,-1.0469 -0.57467,-1.60285 -0.70313,-1.85547 -0.12845,-0.25261 -0.0982,-0.19516 -0.28906,-0.39062 -0.24299,-0.24886 -1.18922,-0.93528 -1.61523,-1.14453 -0.5955,-0.29249 -0.49994,-0.30012 -1.26172,-0.375 -0.76178,-0.0749 -2.26162,-0.1095 -5.2207,-0.16406 l -5.95118,-0.10938 a 1.5991593,1.5991593 0 0 1 -1.4707,-2.15234 l 3.15039,-8.5586 c 1.16961,-3.17765 1.95303,-5.37316 2.43555,-6.83789 0.48252,-1.46473 0.6177,-2.37314 0.61719,-2.18164 0.004,-1.56712 -2.56334,-2.69491 -3.8086,-1.60156 -0.20566,0.18057 -0.17252,0.13589 -0.27344,0.29492 -0.10091,0.15903 -0.30434,0.55655 -0.6289,1.3457 -0.64912,1.5783 -1.78832,4.67603 -4.03516,10.80274 l -2.91797,7.95703 a 1.5991593,1.5991593 0 0 1 -1.51953,1.04883 l -5.06836,-0.0586 -5.07031,-0.0586 a 1.5991593,1.5991593 0 0 1 -1.58203,-1.58203 l -0.10938,-10.09375 c -0.0544,-5.00228 -0.0854,-7.54407 -0.15625,-8.81641 -0.0354,-0.63616 -0.0879,-0.94412 -0.10351,-1.00195 -0.0156,-0.0578 0.0688,0.104 -0.043,-0.0527 -0.33953,-0.47599 -0.76922,-0.72657 -1.9375,-0.72657 z m -32.33203,26.42578 h 32.33398 c 15.30285,0 23.38518,0.006 27.68164,0.0566 2.14824,0.0255 3.33441,0.0603 4.08594,0.12109 0.37577,0.0304 0.63174,0.0514 0.97461,0.1543 0.17144,0.0514 0.38265,0.12375 0.63672,0.31835 0.25407,0.19461 0.51209,0.56855 0.60351,0.86915 0.60328,1.98342 2.27828,7.66073 3.8086,12.8789 0.76516,2.60909 1.49416,5.09966 2.03125,6.94922 0.26854,0.92478 0.48804,1.68786 0.64258,2.22852 0.0773,0.27032 0.13875,0.48406 0.18164,0.63867 0.0214,0.0773 0.0386,0.13941 0.0527,0.19336 0.007,0.027 0.0134,0.0497 0.0215,0.084 0.004,0.0171 0.008,0.036 0.0156,0.0723 0.004,0.0181 0.008,0.041 0.0137,0.0801 0.006,0.0391 0.0176,0.23576 0.0176,0.23632 0,4.7e-4 -0.48194,1.14602 -0.48242,1.14649 -4.8e-4,4.7e-4 -0.3243,0.24637 -0.41992,0.29297 -0.19124,0.0932 -0.26842,0.10369 -0.33203,0.11914 -0.12723,0.0309 -0.17165,0.0334 -0.21875,0.0391 -0.0942,0.0114 -0.15778,0.0169 -0.23438,0.0215 -0.1532,0.009 -0.34014,0.0144 -0.58594,0.0215 -0.4916,0.0141 -1.20138,0.0269 -2.125,0.0391 -1.84722,0.0244 -4.54663,0.047 -7.97851,0.0645 -6.86377,0.0348 -16.65738,0.0547 -28.39258,0.0547 -15.03311,0 -24.82586,-0.0147 -30.86914,-0.0547 -3.02164,-0.02 -5.10431,-0.0478 -6.44922,-0.082 -0.67246,-0.0171 -1.15668,-0.0348 -1.50977,-0.0586 -0.17654,-0.0119 -0.31278,-0.0236 -0.47656,-0.0488 -0.0819,-0.0126 -0.15965,-0.0195 -0.33789,-0.0781 -0.0891,-0.0293 -0.20388,-0.0582 -0.41992,-0.20508 -0.10802,-0.0734 -0.24847,-0.18071 -0.40039,-0.39063 -0.076,-0.10495 -0.21066,-0.39766 -0.21094,-0.39843 -2.8e-4,-7.8e-4 -0.0957,-0.54219 -0.0957,-0.54297 0,-0.4043 0.03,-0.31461 0.0391,-0.35743 0.009,-0.0428 0.0175,-0.0716 0.0254,-0.10351 0.0157,-0.0638 0.0321,-0.13269 0.0547,-0.2168 0.0452,-0.16822 0.10955,-0.39391 0.18945,-0.67773 0.1598,-0.56764 0.3853,-1.36006 0.66016,-2.3125 0.54972,-1.90488 1.29018,-4.44506 2.05469,-7.05274 1.529,-5.21535 3.13256,-10.63033 3.55664,-11.94726 l 0.33593,-1.04297 a 1.5991593,1.5991593 0 0 1 1.52149,-1.10938 z m -8.80274,30.50391 h 40.93555 c 12.8621,0 23.13371,0.019 30.22461,0.0547 3.54545,0.0179 6.29604,0.0405 8.18164,0.0664 0.9428,0.013 1.66727,0.0277 2.17774,0.043 0.25523,0.008 0.45561,0.0139 0.61718,0.0234 0.0808,0.005 0.149,0.0105 0.23242,0.0195 0.0417,0.005 0.0854,0.008 0.15821,0.0215 0.0728,0.0132 0.11034,-0.0334 0.49023,0.16992 0.4935,0.26412 0.97742,0.82244 1.20313,1.375 0.22571,0.55255 0.31437,1.11298 0.38281,1.83789 0.13689,1.44982 0.14588,3.60324 0.11133,7.24023 -0.0261,2.7459 -0.0589,4.5029 -0.11719,5.66016 -0.0291,0.57863 -0.0621,1.00464 -0.11914,1.375 -0.0571,0.37036 -0.0204,0.69025 -0.5,1.26758 -0.51172,0.61598 -0.94651,0.61146 -1.25977,0.66601 -0.31326,0.0546 -0.64616,0.081 -1.14257,0.10743 -0.99283,0.0528 -2.61419,0.0868 -5.42383,0.11132 -5.61928,0.0491 -15.95673,0.0566 -35.03906,0.0566 h -41.33399 a 1.5991593,1.5991593 0 0 1 -1.33789,-0.72265 l -0.3457,-0.52735 c -0.43362,-0.66191 -0.49132,-1.35306 -0.53321,-2.53125 -0.0419,-1.17818 -0.0365,-3.02538 -0.008,-6.21484 0.0296,-3.29198 0.0539,-5.13753 0.1211,-6.30664 0.0672,-1.16911 0.23468,-1.92801 0.5957,-2.47852 a 1.5991593,1.5991593 0 0 1 0.004,-0.004 l 0.39062,-0.5918 a 1.5991593,1.5991593 0 0 1 1.33398,-0.71875 z m 18.32422,7.7832 c -0.71548,0.0531 -1.48203,0.52445 -1.90039,1.16993 -0.41835,0.64547 -0.54645,1.33495 -0.11133,2.1875 0.41582,0.81471 0.47249,0.8611 1.26172,1.14257 1.08459,0.38682 1.56452,0.28472 2.45899,-0.58984 1.00024,-0.97801 0.89814,-2.56444 -0.26953,-3.45508 -0.50668,-0.38646 -0.96315,-0.49045 -1.43946,-0.45508 z m -11.78906,0.0234 c -1.23713,-0.081 -2.53561,0.85564 -2.52734,2.2793 0.006,0.9612 0.79152,2.011 1.66211,2.27344 1.41679,0.42708 3.03791,-0.80312 3.02734,-2.41211 -5e-5,-0.007 -0.0898,-0.44011 -0.29883,-0.82422 -0.20906,-0.38412 -0.52801,-0.7515 -0.67969,-0.86719 -0.38031,-0.29008 -0.7716,-0.42224 -1.18359,-0.44922 z m 22.9707,0 -0.33203,0.22461 a 1.5991593,1.5991593 0 0 1 0,0.002 c -0.92104,0.62069 -1.0332,0.82999 -1.0332,1.94336 0,0.88839 0.1456,1.37355 0.30859,1.63868 0.16299,0.26512 0.37112,0.45375 0.98047,0.67382 -0.19065,-0.0689 0.62652,0.10158 2.46289,0.13868 1.83638,0.0371 4.80862,0.0394 9.56446,0.0195 5.64838,-0.0236 8.59943,-0.0407 10.15429,-0.10157 0.77744,-0.0304 1.20284,-0.077 1.3711,-0.10937 0.16825,-0.0324 0.0365,0.0147 0.15429,-0.0547 0.49557,-0.29189 0.61661,-0.43334 0.71289,-0.61328 0.0963,-0.17994 0.20198,-0.55414 0.24024,-1.33594 0.0322,-0.65868 0.0155,-0.98197 0,-1.06445 -0.0155,-0.0825 0.0142,-0.0381 -0.16406,-0.30078 -0.10834,-0.15964 -0.70111,-0.74707 -0.83008,-0.83399 l -0.33594,-0.22656 h -11.625 z"
     transform="translate(-32.031738,-85.12493)" />
  <path
     style="fill:#c62828;fill-opacity:1;stroke-width:3.77954"
     d="m 64.109674,278.7028 c -5.071036,-0.44704 -12.353897,-1.58162 -12.774562,-1.99012 -0.346171,-0.33615 1.741009,-11.9215 3.220003,-17.8734 1.39025,-5.59475 2.600251,-8.77218 3.848654,-10.10652 1.289255,-1.37797 2.688244,-0.79407 5.734375,2.39339 2.63252,2.75466 3.48861,3.29166 5.262078,3.30087 1.64272,0.009 2.7869,-0.66583 5.89562,-3.47473 3.40728,-3.07864 4.60224,-3.53345 5.83158,-2.21953 0.86826,0.92803 1.26981,1.77272 2.18307,4.59237 1.54053,4.75632 5.45932,22.43546 5.15112,23.23863 -0.1613,0.42033 -2.48795,1.0725 -6.00159,1.68224 -3.21171,0.55737 -14.12731,0.82909 -18.350348,0.4568 z"
     id="path45132" />
  <path
     style="fill:#c62828;fill-opacity:1;stroke-width:3.77954"
     d="m 62.098669,303.83072 c -17.289843,-1.01943 -33.385191,-4.41076 -37.544698,-7.91076 -1.060877,-0.89266 -1.020185,-1.62267 0.147632,-2.64802 2.324594,-2.04101 9.801195,-4.59213 21.198055,-7.23306 l 4.405503,-1.02086 1.676004,0.60836 c 9.180984,3.33252 27.315727,3.39975 36.968057,0.13706 l 2.17582,-0.73548 3.83717,0.86658 c 11.490478,2.59492 19.323988,5.21506 21.786428,7.28707 2.27636,1.91543 -0.61362,4.08987 -8.32463,6.26357 -12.274348,3.46006 -31.366798,5.26752 -46.325341,4.38554 z"
     id="path45130" />
  <path
     style="fill:#020000;fill-opacity:1;stroke-width:3.77954"
     d="m 58.206437,314.36114 c -3.439425,-0.4909 -6.04148,-2.34861 -6.896864,-4.92392 -0.519692,-1.56463 -0.457491,-3.72372 0.105672,-3.6677 0.207384,0.0207 1.377935,0.21792 2.601219,0.43844 3.704915,0.66791 8.393054,0.90536 17.887358,0.906 9.24727,5e-4 13.64133,-0.2934 16.69467,-1.1171 0.74929,-0.20214 1.45628,-0.30947 1.5711,-0.23851 0.38691,0.23913 0.21263,2.58387 -0.29239,3.93363 -0.95759,2.55938 -3.4618,4.20173 -7.1658,4.69956 -1.64032,0.22047 -2.27975,0.2002 -3.46911,-0.10986 -2.44566,-0.63767 -3.27995,-1.23815 -5.52944,-3.97973 -1.05826,-1.28978 -2.2802,-1.78952 -3.72469,-1.5233 -1.23833,0.22822 -1.803,0.65501 -3.104638,2.34661 -1.32817,1.72606 -2.82749,2.70702 -4.873475,3.1886 -1.580758,0.37207 -1.532485,0.37147 -3.803608,0.0473 z"
     id="path45128" />
  <path
     style="fill:#c62828;fill-opacity:1;stroke-width:3.77954"
     d="m 61.093172,340.80827 c -8.368572,-4.24066 -12.86549,-6.30645 -17.842502,-8.19652 -1.932773,-0.73399 -3.547754,-1.43539 -3.588844,-1.55865 -0.04113,-0.12321 1.856101,-1.89754 4.215961,-3.94286 2.359861,-2.04532 4.24854,-3.8451 4.197065,-3.99954 -0.112088,-0.33627 -4.69462,-1.73707 -10.736603,-3.282 -5.919851,-1.5137 -9.23245,-2.17075 -11.940305,-2.36836 -1.547335,-0.11294 -2.262373,-0.26387 -2.262373,-0.47764 0,-0.17191 3.22388,-3.0828 7.164187,-6.46868 5.978355,-5.13717 7.288998,-6.15424 7.918301,-6.14472 0.414767,0.006 2.393589,0.26138 4.39737,0.56689 l 3.643244,0.55547 2.140602,4.26786 c 5.117653,10.2034 11.383929,18.0931 19.920917,25.08189 1.34799,1.10353 2.4509,2.09867 2.4509,2.21143 0,0.6016 -1.85261,6.93053 -2.09846,7.1688 -0.2149,0.20828 -2.169788,-0.67209 -7.57946,-3.41337 z"
     id="path45126" />
  <path
     style="fill:#c62828;fill-opacity:1;stroke-width:3.77954"
     d="m 70.126112,354.34626 c -0.31399,-0.50806 -0.1358,-5.39481 0.27029,-7.4125 2.16397,-10.75182 9.39255,-21.10806 21.52147,-30.83344 2.08804,-1.67427 2.18294,-1.79547 2.57421,-3.28821 0.7282,-2.77817 0.90131,-3.78867 0.91145,-5.32047 0.005,-0.82955 0.0993,-1.649 0.20861,-1.82103 0.12076,-0.19021 2.06345,-0.55942 4.958028,-0.94227 l 4.75939,-0.6295 1.63673,1.13218 c 8.63041,5.96998 16.19001,11.35117 16.20189,11.5331 0.008,0.12269 -2.13491,0.58698 -4.76206,1.03186 -8.61944,1.45958 -14.1822,2.79185 -18.989138,4.54786 -2.72785,0.99652 -4.18384,1.79474 -3.85618,2.11411 0.12218,0.1191 2.31479,1.20333 4.872518,2.40947 2.55774,1.20615 4.80751,2.33694 4.99946,2.51287 0.28954,0.26538 0.16103,0.36589 -0.75412,0.58978 -5.662358,1.38536 -9.320688,2.68195 -13.546208,4.80104 -8.38125,4.20319 -15.2221,10.46932 -19.54738,17.90514 -0.62326,1.07149 -1.16782,1.94815 -1.21013,1.94815 -0.0423,0 -0.15428,-0.12513 -0.24883,-0.27814 z"
     id="path4069" />
  <g
     id="g5937"
     transform="matrix(0.75946957,0,0,0.75946957,1014.5257,611.3746)"
     style="stroke-width:4.97654">
    <path
       style="fill:#000000;stroke-width:4.97654"
       d="m -226.68819,-59.441596 c -3.0828,-0.774263 -5.15692,-2.958661 -5.91636,-6.230908 l -0.40151,-1.730018 -1.71516,-0.401513 c -2.1595,-0.505532 -3.68715,-1.491115 -4.7854,-3.087373 -1.3726,-1.995 -1.5512,-3.319756 -1.55583,-11.539896 l -0.004,-7.3466 1.45451,-2.9002 c 2.82266,-5.62822 5.68921,-9.780416 9.20874,-13.338856 l 2.33149,-2.35726 1.19832,-3.86045 c 2.09693,-6.75531 4.74042,-12.87658 7.19796,-16.66762 0.60421,-0.93207 1.09856,-1.77126 1.09856,-1.86488 0,-0.0936 -1.04179,-0.0656 -2.3151,0.0622 -1.27331,0.12782 -5.58932,0.1755 -9.59115,0.10594 -5.7984,-0.10078 -7.88856,-0.23776 -10.29217,-0.67451 -4.91528,-0.89313 -7.92279,-2.11575 -8.64634,-3.51494 -0.52116,-1.0078 -0.47025,-3.04503 0.16479,-6.59422 1.40292,-7.84088 5.89344,-14.65049 12.0525,-18.27693 7.05929,-4.1565 17.71999,-7.04916 31.72435,-8.60805 6.08534,-0.67739 22.76134,-0.67237 28.97187,0.009 15.66005,1.71739 27.80987,5.40491 34.3862,10.43634 5.66787,4.33639 9.62597,12.56408 9.84459,20.46387 0.0662,2.39258 -0.28234,3.09931 -1.96747,3.9893 -1.70519,0.90059 -3.71341,1.49659 -7.20602,2.13862 -2.88599,0.5305 -4.02162,0.58363 -12.47553,0.58363 -9.2165,0 -9.29802,0.005 -9.02341,0.52917 0.15242,0.29104 0.84674,1.48167 1.54295,2.64583 0.6962,1.16417 1.94116,3.66448 2.76656,5.55625 1.38572,3.17596 4.05612,10.78118 4.47587,12.74712 0.14565,0.68215 0.91295,1.42812 4.06529,3.95226 2.13717,1.71126 3.9205,3.13371 3.96297,3.16098 0.0425,0.0273 1.27069,2.878186 2.72941,6.335356 l 2.65222,6.28576 -0.0836,7.83635 c -0.0832,7.799045 -0.0868,7.843262 -0.7689,9.291547 -0.37692,0.800364 -0.99215,1.817878 -1.36718,2.261142 -0.94471,1.116605 -3.0972,2.229223 -4.674,2.415971 l -1.32154,0.156517 -0.17249,1.221206 c -0.40069,2.836751 -2.21436,5.305684 -4.71792,6.422435 -1.24528,0.555479 -1.80703,0.609735 -7.30218,0.7053 -7.05166,0.122629 -8.81041,-0.107985 -10.92876,-1.433021 -1.8218,-1.139544 -2.97218,-2.866072 -3.43571,-5.156446 l -0.3437,-1.698313 -15.1355,-0.06831 -15.1355,-0.06831 v 0.699074 c 0,1.71006 -1.1864,4.257741 -2.60691,5.598088 -0.38521,0.363477 -1.35523,0.971519 -2.15559,1.351206 -1.43308,0.679842 -1.55379,0.691182 -7.9375,0.745729 -4.59376,0.03925 -6.87977,-0.04444 -7.84661,-0.287272 z"
       id="path4984" />
    <path
       style="fill:#fdfdfd;fill-opacity:1;stroke-width:4.97654"
       d="m -183.30481,-103.7909 c 4.22531,-0.8208 8.51946,-2.52306 11.55906,-4.58218 1.7536,-1.18795 3.46393,-2.67934 4.62201,-4.12432 1.52997,-1.6456 2.00984,-2.337 2.7152,-3.90911 0.70359,-1.62197 0.98242,-2.5486 1.41153,-4.78709 0.53133,-2.77168 -0.39854,-6.89314 -2.19812,-9.74269 -3.25426,-5.15298 -9.11476,-8.88415 -17.12229,-10.90114 -2.56206,-0.64534 -3.23253,-0.70325 -8.21374,-0.70934 -5.81679,-0.007 -7.55837,0.23153 -11.82556,1.62039 -7.13342,2.32174 -12.6789,6.66392 -15.166,11.87518 -3.96503,8.30796 0.20946,17.5497 10.1312,22.42911 4.07396,2.00352 7.47116,2.90766 13.0239,3.46621 2.38719,0.24012 8.30699,-0.0997 11.06281,-0.63502 z"
       id="path5702" />
    <path
       style="fill:#fdfdfd;fill-opacity:1;stroke-width:4.97654"
       d="m -186.8579,-147.5907 c 2.32217,-0.19153 4.97568,-0.96374 5.95282,-1.73235 0.71527,-0.56264 1.62788,-2.04068 1.40044,-2.26812 -0.0688,-0.0687 -3.38152,-0.19366 -7.3617,-0.27757 -8.14499,-0.17171 -15.57107,0.0807 -15.57107,0.52937 0,0.68461 1.27233,2.04702 2.3744,2.54252 1.74872,0.78622 3.26572,1.12147 6.09226,1.34635 2.47026,0.19653 3.20595,0.18203 7.11285,-0.1402 z"
       id="path5722" />
    <path
       style="fill:#fdfdfd;fill-opacity:1;stroke-width:4.97654"
       d="m -206.62178,-141.0797 c 9.44017,-4.28037 20.79932,-4.53336 30.04196,-0.66909 3.38171,1.41387 3.29677,1.43311 5.47961,-1.24108 2.39736,-2.937 4.16575,-5.92106 5.02398,-8.47768 1.49129,-4.44246 0.40399,-6.56403 -3.36404,-6.56403 -0.77862,0 -2.0243,0.18074 -2.76817,0.40164 -1.6543,0.49128 -2.29061,1.25201 -4.42222,5.2869 -2.37603,4.49757 -3.2384,5.28323 -6.88904,6.27625 -2.71247,0.73782 -9.76073,0.93905 -13.01322,0.37153 -5.12559,-0.89436 -6.26495,-1.7775 -9.03937,-7.00665 -0.92383,-1.74119 -2.02556,-3.51957 -2.44831,-3.95197 -1.22429,-1.25223 -4.29276,-1.75485 -6.67493,-1.09337 -1.18673,0.32953 -1.76672,1.3873 -1.76166,3.2129 0.009,3.30443 2.64862,8.38831 6.59936,12.71105 0.76346,0.83534 1.41921,1.5188 1.45725,1.5188 0.038,0 0.83849,-0.34884 1.7788,-0.7752 z"
       id="path5720" />
    <path
       style="fill:#010101;fill-opacity:1;stroke-width:4.97654"
       d="m -192.11866,-135.7869 c -1.12836,-0.2311 -2.4251,-0.89012 -2.91646,-1.48217 -0.47718,-0.57497 -0.46635,-2.06874 0.0193,-2.65683 1.12804,-1.36606 4.86609,-1.94568 6.90764,-1.07109 1.13595,0.48664 2.07497,1.5783 2.07497,2.41228 0,1.85374 -3.29604,3.36911 -6.08542,2.79781 z"
       id="path5718" />
    <path
       style="fill:#010101;fill-opacity:1;stroke-width:4.97654"
       d="m -180.87387,-132.87015 c -2.80483,-1.30266 -3.25771,-3.29618 -1.11106,-4.89064 1.0433,-0.77493 4.18274,-0.92642 5.8672,-0.28312 2.40051,0.91677 3.26982,3.0445 1.7923,4.38687 -0.40019,0.36358 -1.06063,0.80257 -1.46766,0.97554 -1.13364,0.48176 -3.85484,0.38072 -5.08078,-0.18865 z"
       id="path5716" />
    <path
       style="fill:#010101;fill-opacity:1;stroke-width:4.97654"
       d="m -205.877,-132.66353 c -1.17239,-0.46612 -2.11666,-1.57936 -2.11666,-2.49541 0,-1.89882 2.24696,-3.29348 5.30617,-3.29348 2.00458,0 2.61227,0.20589 3.75581,1.27246 2.09562,1.95457 -0.7997,4.84181 -4.80964,4.79619 -0.81082,-0.009 -1.77187,-0.13511 -2.13568,-0.27976 z"
       id="path5714" />
    <path
       style="fill:#010101;fill-opacity:1;stroke-width:4.97654"
       d="m -212.50703,-123.34104 c -1.90766,-0.62515 -2.87309,-1.59104 -2.88616,-2.88754 -0.0247,-2.44871 2.59883,-4.28634 6.11946,-4.28634 2.82255,0 4.71965,1.30349 4.71965,3.24285 0,1.86151 -2.74015,3.83364 -5.60692,4.03539 -0.91801,0.0646 -1.97373,0.0176 -2.34603,-0.10436 z"
       id="path5712" />
    <path
       style="fill:#010101;fill-opacity:1;stroke-width:4.97654"
       d="m -193.70616,-117.7877 c -3.29298,-0.58893 -5.35407,-1.64542 -7.02449,-3.60067 -1.07073,-1.25331 -1.31621,-1.755 -1.60437,-3.27899 -0.32207,-1.70328 -0.3066,-1.88257 0.29006,-3.3604 1.66414,-4.12183 7.54316,-6.72398 13.3845,-5.92419 4.21999,0.5778 7.75664,2.94603 8.94558,5.99019 0.46967,1.20254 0.49872,1.5643 0.2474,3.08097 -0.23718,1.43138 -0.48893,1.97098 -1.50703,3.23022 -1.52524,1.88649 -4.34253,3.40988 -7.08585,3.83153 -0.99514,0.15296 -2.107,0.32372 -2.4708,0.37949 -0.36381,0.0558 -1.79256,-0.10091 -3.175,-0.34815 z"
       id="path5710" />
    <path
       style="fill:#010101;fill-opacity:1;stroke-width:4.97654"
       d="m -177.83288,-112.22576 c -2.87796,-0.94287 -4.66026,-3.31611 -4.11674,-5.48167 0.29738,-1.18486 1.23154,-2.1691 2.62956,-2.77051 1.11787,-0.4809 1.66727,-0.55486 3.23882,-0.436 1.04093,0.0787 2.29342,0.34555 2.78332,0.59295 3.62423,1.83025 4.17704,5.6937 1.08061,7.55219 -1.06832,0.64121 -4.3479,0.95835 -5.61557,0.54304 z"
       id="path5708" />
    <path
       style="fill:#010101;fill-opacity:1;stroke-width:4.97654"
       d="m -209.52895,-112.54415 c -1.37374,-0.6967 -2.43346,-2.1592 -2.43346,-3.35835 0,-2.69448 3.10923,-5.08447 6.61458,-5.08447 1.91971,0 3.21731,0.49042 4.29948,1.62496 0.79847,0.83711 0.99219,1.24131 0.99219,2.07018 0,3.04768 -2.4295,5.04962 -6.35,5.23248 -1.63651,0.0763 -2.18395,-0.009 -3.12279,-0.4848 z"
       id="path5706" />
    <path
       style="fill:#010101;fill-opacity:1;stroke-width:4.97654"
       d="m -192.64783,-106.68123 c -3.20272,-0.66711 -5.27419,-3.34759 -4.4739,-5.78921 0.83833,-2.55764 2.82282,-3.82062 6.0614,-3.85762 1.59575,-0.0182 2.21755,0.0987 3.175,0.59738 3.80308,1.9806 3.90804,6.15442 0.20876,8.30166 -1.24336,0.7217 -3.48076,1.05826 -4.97126,0.74779 z"
       id="path5704" />
    <path
       style="fill:#010101;fill-opacity:1;stroke-width:4.97654"
       d="m -169.61907,-123.34104 c 1.90766,-0.62515 2.87309,-1.59104 2.88616,-2.88754 0.0247,-2.44871 -2.59883,-4.28634 -6.11946,-4.28634 -2.82255,0 -4.71965,1.30349 -4.71965,3.24285 0,1.86151 2.74015,3.83364 5.60692,4.03539 0.91801,0.0646 1.97373,0.0176 2.34603,-0.10436 z"
       id="path5922" />
  </g>
  <path
     style="fill:#0a841d;fill-opacity:1;stroke-width:3.77954"
     d="m 833.15193,83.028863 c -3.46089,-0.62523 -6.61629,-2.24799 -9.26694,-4.76583 -2.65012,-2.51735 -4.3453,-5.22779 -5.26661,-8.42071 -0.25851,-0.89579 -0.56226,-1.79921 -0.67508,-2.00759 -0.23099,-0.42667 -0.2871,-6.86697 -0.0577,-6.63769 0.081,0.081 0.32529,-0.56537 0.5428,-1.4364 1.60444,-6.42502 7.08473,-11.89069 13.54714,-13.51101 0.98976,-0.24816 1.82859,-0.47692 1.86403,-0.50833 0.0356,-0.0314 0.24925,-0.82998 0.47522,-1.7746 2.60005,-10.86865 10.80964,-19.46424 21.71559,-22.73653 3.54881,-1.06483 4.87481,-1.23667 9.49117,-1.22999 3.83537,0.006 4.49602,0.0634 6.7038,0.58684 5.25493,1.24589 10.19899,3.79445 13.87028,7.14981 l 1.20573,1.10197 2.03772,-0.33049 c 12.08531,-1.95998 23.99255,4.4033 29.32055,15.66892 0.913,1.93046 2.0635,5.43105 2.0635,6.27844 0,0.22659 0.098,0.41198 0.2182,0.41198 0.1389,0 0.2182,1.7455 0.2182,4.80014 0,3.05463 -0.079,4.80013 -0.2182,4.80013 -0.12,0 -0.2182,0.18844 -0.2182,0.41875 0,0.62745 -0.6228,2.93604 -1.2205,4.52396 -3.6223,9.62356 -12.24998,16.40803 -22.56199,17.7419 -0.99298,0.12844 -13.51868,0.20662 -31.85546,0.19883 -25.10414,-0.0106 -30.50919,-0.0652 -31.93311,-0.3225 z m 65.56596,-6.78328 c 7.64928,-2.17821 13.12284,-7.55699 15.28254,-15.01796 0.4458,-1.53997 0.5031,-2.19611 0.4947,-5.66893 -0.01,-3.71237 -0.043,-4.02892 -0.6255,-5.78199 -2.3034,-6.93543 -7.06932,-11.81922 -13.69192,-14.03082 -3.53995,-1.18216 -8.07618,-1.32541 -11.80055,-0.37265 -2.75864,0.70572 -3.02447,0.61661 -5.72579,-1.91945 -3.46706,-3.25488 -6.84695,-5.15911 -11.3821,-6.41272 -1.48485,-0.41043 -2.27476,-0.47317 -5.96612,-0.47388 -3.89222,-6.5e-4 -4.43119,0.0471 -6.32744,0.56153 -8.72683,2.3676 -15.07769,8.30586 -17.80183,16.64538 l -0.71192,2.17944 2.1112,0.67391 c 3.30486,1.05492 5.83089,2.46953 8.75488,4.90292 1.53995,1.28155 1.97477,2.01496 1.97477,3.33067 0,1.7225 -1.49525,3.20567 -3.23258,3.20649 -0.89822,4.3e-4 -1.38431,-0.24851 -2.76756,-1.41724 -5.41861,-4.57832 -11.1456,-5.64097 -16.41825,-3.04639 -3.99852,1.96759 -6.41361,6.02652 -6.41361,10.77909 0,2.33345 0.28797,3.56853 1.35083,5.79431 1.56444,3.27617 4.49911,5.58082 8.17154,6.41724 0.5071,0.1155 13.8984,0.18357 31.96458,0.16246 l 31.0918,-0.0363 z"
     id="path16722" />
  <g
     id="g27310"
     transform="translate(-83.14371,-167.28017)"
     style="fill:#0a841d;fill-opacity:1">
    <circle
       cx="757"
       cy="512"
       r="13"
       fill="#c62828"
       id="circle27306"
       style="fill:#0a841d;fill-opacity:1" />
    <text
       x="757"
       y="517"
       text-anchor="middle"
       font-size="14px"
       font-weight="700"
       fill="#ffffff"
       id="text27308"
       style="fill:#fdfffe;fill-opacity:1">6</text>
  </g>
  <path
     d="m 784.64762,326.26822 -247.43365,0.0761"
     fill="none"
     stroke="#1565c0"
     stroke-width="2.5"
     marker-end="url(#arrowBlue)"
     id="path30882"
     sodipodi:nodetypes="cc"
     style="stroke:#0a841d;stroke-opacity:1;marker-end:url(#marker31790)" />
  <text
     x="673.81189"
     y="371.55167"
     text-anchor="middle"
     font-size="13px"
     fill="#2e7d32"
     font-weight="600"
     id="text31878">Nimmt Anruf sofort an</text>
  <g
     id="g44380"
     transform="translate(-32.031738,-85.12493)">
    <rect
       style="fill:none;fill-opacity:1;stroke:#000000;stroke-width:2.64567;stroke-opacity:1"
       id="rect44018"
       width="79.580292"
       height="23.174311"
       x="263.70792"
       y="359.20529"
       ry="5.1095791"
       rx="5.1095791" />
    <path
       style="fill:#ef1515;fill-opacity:1;stroke:none;stroke-width:2.64567;stroke-opacity:1"
       id="path44064"
       sodipodi:type="arc"
       sodipodi:cx="316.57819"
       sodipodi:cy="370.18405"
       sodipodi:rx="2.9667444"
       sodipodi:ry="2.9667444"
       sodipodi:start="0"
       sodipodi:end="6.2820857"
       sodipodi:open="true"
       sodipodi:arc-type="arc"
       d="m 319.54493,370.18405 a 2.9667444,2.9667444 0 0 1 -2.96593,2.96675 2.9667444,2.9667444 0 0 1 -2.96756,-2.96512 2.9667444,2.9667444 0 0 1 2.9643,-2.96837 2.9667444,2.9667444 0 0 1 2.96919,2.96348" />
    <path
       style="fill:#ef1515;fill-opacity:1;stroke:#010902;stroke-width:4.346;stroke-linecap:round;stroke-miterlimit:4;stroke-dasharray:none;stroke-opacity:1"
       d="m 273.48173,370.68547 h 33.28366"
       id="path44223" />
    <path
       style="fill:#ef1515;fill-opacity:1;stroke:none;stroke-width:2.64567;stroke-opacity:1"
       id="path44371"
       sodipodi:type="arc"
       sodipodi:cx="325.62659"
       sodipodi:cy="370.18405"
       sodipodi:rx="2.9667444"
       sodipodi:ry="2.9667444"
       sodipodi:start="0"
       sodipodi:end="6.2820857"
       sodipodi:open="true"
       sodipodi:arc-type="arc"
       d="m 328.59333,370.18405 a 2.9667444,2.9667444 0 0 1 -2.96593,2.96675 2.9667444,2.9667444 0 0 1 -2.96756,-2.96512 2.9667444,2.9667444 0 0 1 2.9643,-2.96837 2.9667444,2.9667444 0 0 1 2.96919,2.96348" />
    <path
       style="fill:#ef1515;fill-opacity:1;stroke:none;stroke-width:2.64567;stroke-opacity:1"
       id="path44373"
       sodipodi:type="arc"
       sodipodi:cx="333.82269"
       sodipodi:cy="370.18405"
       sodipodi:rx="2.9667444"
       sodipodi:ry="2.9667444"
       sodipodi:start="0"
       sodipodi:end="6.2820857"
       sodipodi:open="true"
       sodipodi:arc-type="arc"
       d="m 336.78944,370.18405 a 2.9667444,2.9667444 0 0 1 -2.96593,2.96675 2.9667444,2.9667444 0 0 1 -2.96756,-2.96512 2.9667444,2.9667444 0 0 1 2.9643,-2.96837 2.9667444,2.9667444 0 0 1 2.96919,2.96348" />
  </g>
  <g
     id="g44392"
     transform="translate(-32.031738,-56.283238)">
    <rect
       style="fill:none;fill-opacity:1;stroke:#000601;stroke-width:2.64567;stroke-opacity:1"
       id="rect44382"
       width="79.580292"
       height="23.174311"
       x="263.70792"
       y="359.20529"
       ry="5.1095791"
       rx="5.1095791" />
    <path
       style="fill:#ef1515;fill-opacity:1;stroke:none;stroke-width:2.64567;stroke-opacity:1"
       id="path44384"
       sodipodi:type="arc"
       sodipodi:cx="316.57819"
       sodipodi:cy="370.18405"
       sodipodi:rx="2.9667444"
       sodipodi:ry="2.9667444"
       sodipodi:start="0"
       sodipodi:end="6.2820857"
       sodipodi:open="true"
       sodipodi:arc-type="arc"
       d="m 319.54493,370.18405 a 2.9667444,2.9667444 0 0 1 -2.96593,2.96675 2.9667444,2.9667444 0 0 1 -2.96756,-2.96512 2.9667444,2.9667444 0 0 1 2.9643,-2.96837 2.9667444,2.9667444 0 0 1 2.96919,2.96348" />
    <path
       style="fill:#ef1515;fill-opacity:1;stroke:#000601;stroke-width:4.346;stroke-linecap:round;stroke-miterlimit:4;stroke-dasharray:none;stroke-opacity:1"
       d="m 273.48173,370.68547 h 33.28366"
       id="path44386" />
    <path
       style="fill:#ef1515;fill-opacity:1;stroke:none;stroke-width:2.64567;stroke-opacity:1"
       id="path44388"
       sodipodi:type="arc"
       sodipodi:cx="325.62659"
       sodipodi:cy="370.18405"
       sodipodi:rx="2.9667444"
       sodipodi:ry="2.9667444"
       sodipodi:start="0"
       sodipodi:end="6.2820857"
       sodipodi:open="true"
       sodipodi:arc-type="arc"
       d="m 328.59333,370.18405 a 2.9667444,2.9667444 0 0 1 -2.96593,2.96675 2.9667444,2.9667444 0 0 1 -2.96756,-2.96512 2.9667444,2.9667444 0 0 1 2.9643,-2.96837 2.9667444,2.9667444 0 0 1 2.96919,2.96348" />
    <path
       style="fill:#ef1515;fill-opacity:1;stroke:none;stroke-width:2.64567;stroke-opacity:1"
       id="path44390"
       sodipodi:type="arc"
       sodipodi:cx="333.82269"
       sodipodi:cy="370.18405"
       sodipodi:rx="2.9667444"
       sodipodi:ry="2.9667444"
       sodipodi:start="0"
       sodipodi:end="6.2820857"
       sodipodi:open="true"
       sodipodi:arc-type="arc"
       d="m 336.78944,370.18405 a 2.9667444,2.9667444 0 0 1 -2.96593,2.96675 2.9667444,2.9667444 0 0 1 -2.96756,-2.96512 2.9667444,2.9667444 0 0 1 2.9643,-2.96837 2.9667444,2.9667444 0 0 1 2.96919,2.96348" />
  </g>
  <g
     id="g44404"
     transform="translate(-32.031738,-28.22641)">
    <rect
       style="fill:none;fill-opacity:1;stroke:#000000;stroke-width:2.64567;stroke-opacity:1"
       id="rect44394"
       width="79.580292"
       height="23.174311"
       x="263.70792"
       y="359.20529"
       ry="5.1095791"
       rx="5.1095791" />
    <path
       style="fill:#ef1515;fill-opacity:1;stroke:none;stroke-width:2.64567;stroke-opacity:1"
       id="path44396"
       sodipodi:type="arc"
       sodipodi:cx="316.57819"
       sodipodi:cy="370.18405"
       sodipodi:rx="2.9667444"
       sodipodi:ry="2.9667444"
       sodipodi:start="0"
       sodipodi:end="6.2820857"
       sodipodi:open="true"
       sodipodi:arc-type="arc"
       d="m 319.54493,370.18405 a 2.9667444,2.9667444 0 0 1 -2.96593,2.96675 2.9667444,2.9667444 0 0 1 -2.96756,-2.96512 2.9667444,2.9667444 0 0 1 2.9643,-2.96837 2.9667444,2.9667444 0 0 1 2.96919,2.96348" />
    <path
       style="fill:#ef1515;fill-opacity:1;stroke:#000000;stroke-width:4.346;stroke-linecap:round;stroke-miterlimit:4;stroke-dasharray:none;stroke-opacity:1"
       d="m 273.48173,370.68547 h 33.28366"
       id="path44398" />
    <path
       style="fill:#ef1515;fill-opacity:1;stroke:none;stroke-width:2.64567;stroke-opacity:1"
       id="path44400"
       sodipodi:type="arc"
       sodipodi:cx="325.62659"
       sodipodi:cy="370.18405"
       sodipodi:rx="2.9667444"
       sodipodi:ry="2.9667444"
       sodipodi:start="0"
       sodipodi:end="6.2820857"
       sodipodi:open="true"
       sodipodi:arc-type="arc"
       d="m 328.59333,370.18405 a 2.9667444,2.9667444 0 0 1 -2.96593,2.96675 2.9667444,2.9667444 0 0 1 -2.96756,-2.96512 2.9667444,2.9667444 0 0 1 2.9643,-2.96837 2.9667444,2.9667444 0 0 1 2.96919,2.96348" />
    <path
       style="fill:#ef1515;fill-opacity:1;stroke:none;stroke-width:2.64567;stroke-opacity:1"
       id="path44402"
       sodipodi:type="arc"
       sodipodi:cx="333.82269"
       sodipodi:cy="370.18405"
       sodipodi:rx="2.9667444"
       sodipodi:ry="2.9667444"
       sodipodi:start="0"
       sodipodi:end="6.2820857"
       sodipodi:open="true"
       sodipodi:arc-type="arc"
       d="m 336.78944,370.18405 a 2.9667444,2.9667444 0 0 1 -2.96593,2.96675 2.9667444,2.9667444 0 0 1 -2.96756,-2.96512 2.9667444,2.9667444 0 0 1 2.9643,-2.96837 2.9667444,2.9667444 0 0 1 2.96919,2.96348" />
  </g>
  <rect
     style="fill:#000000;fill-opacity:1;stroke:none;stroke-width:4.946;stroke-linecap:round;stroke-miterlimit:4;stroke-dasharray:none;stroke-opacity:1"
     id="rect44463"
     width="6.2496104"
     height="6.0289669"
     x="241.159"
     y="297.5675"
     ry="1.8002549"
     rx="1.8002549" />
  <rect
     style="fill:#000000;fill-opacity:1;stroke:none;stroke-width:4.946;stroke-linecap:round;stroke-miterlimit:4;stroke-dasharray:none;stroke-opacity:1"
     id="rect44487"
     width="6.2496104"
     height="6.0289669"
     x="241.159"
     y="325.45447"
     ry="1.8002549"
     rx="1.8002549" />
  <rect
     style="fill:#000000;fill-opacity:1;stroke:none;stroke-width:4.946;stroke-linecap:round;stroke-miterlimit:4;stroke-dasharray:none;stroke-opacity:1"
     id="rect44569"
     width="6.2496104"
     height="6.0289669"
     x="293.8884"
     y="297.5675"
     ry="1.8002549"
     rx="1.8002549" />
  <rect
     style="fill:#000000;fill-opacity:1;stroke:none;stroke-width:4.946;stroke-linecap:round;stroke-miterlimit:4;stroke-dasharray:none;stroke-opacity:1"
     id="rect44571"
     width="6.2496104"
     height="6.0289669"
     x="293.8884"
     y="325.45447"
     ry="1.8002549"
     rx="1.8002549" />
</svg>
