<?xml version="1.0" encoding="UTF-8" standalone="no"?>
<!-- Created with Inkscape (http://www.inkscape.org/) -->

<svg
   xmlns:dc="http://purl.org/dc/elements/1.1/"
   xmlns:cc="http://creativecommons.org/ns#"
   xmlns:rdf="http://www.w3.org/1999/02/22-rdf-syntax-ns#"
   xmlns:svg="http://www.w3.org/2000/svg"
   xmlns="http://www.w3.org/2000/svg"
   xmlns:sodipodi="http://sodipodi.sourceforge.net/DTD/sodipodi-0.dtd"
   xmlns:inkscape="http://www.inkscape.org/namespaces/inkscape"
   width="1200"
   height="627"
   id="svg2"
   sodipodi:version="0.32"
   inkscape:version="0.92.5 (2060ec1f9f, 2020-04-08)"
   version="1.0"
   sodipodi:docname="app-preview.svg"
   inkscape:output_extension="org.inkscape.output.svg.inkscape"
   inkscape:export-filename="/home/bhu/git/phoneblock/phoneblock/src/main/webapp/app-preview.png"
   inkscape:export-xdpi="96"
   inkscape:export-ydpi="96">
  <defs
     id="defs4" />
  <sodipodi:namedview
     id="base"
     pagecolor="#ffffff"
     bordercolor="#666666"
     borderopacity="1.0"
     gridtolerance="10000"
     guidetolerance="10"
     objecttolerance="10"
     inkscape:pageopacity="0.0"
     inkscape:pageshadow="2"
     inkscape:zoom="0.98994949"
     inkscape:cx="566.66033"
     inkscape:cy="307.4398"
     inkscape:document-units="px"
     inkscape:current-layer="layer1"
     inkscape:window-width="2560"
     inkscape:window-height="1369"
     inkscape:window-x="0"
     inkscape:window-y="0"
     showgrid="false"
     inkscape:window-maximized="1" />
  <metadata
     id="metadata7">
    <rdf:RDF>
      <cc:Work
         rdf:about="">
        <dc:format>image/svg+xml</dc:format>
        <dc:type
           rdf:resource="http://purl.org/dc/dcmitype/StillImage" />
        <dc:title></dc:title>
      </cc:Work>
    </rdf:RDF>
  </metadata>
  <g
     inkscape:label="Layer 1"
     inkscape:groupmode="layer"
     id="layer1"
     transform="translate(-32.6875,455.08384)">
    <g
       id="g838"
       transform="translate(0,-11.000006)">
      <g
         style="stroke-width:0.29090908"
         transform="matrix(3.4375,0,0,3.4375,245.32422,-457.54563)"
         id="g822">
        <ellipse
           style="fill:#ffffff;fill-opacity:1;stroke:none;stroke-width:5.5689621;stroke-linecap:square;stroke-linejoin:miter;stroke-miterlimit:4;stroke-dasharray:none;stroke-opacity:1"
           id="path903"
           cx="111.88393"
           cy="92.362587"
           rx="69.407715"
           ry="69.196426" />
        <path
           style="font-size:144px;font-family:'DejaVu Sans';stroke-width:0.29090905"
           d="m 112.10082,50.923337 h 0.53161 c 23.74533,0.669528 40.6782,4.056103 50.79869,10.159737 10.67151,6.458198 16.00735,13.034455 16.00748,19.72879 -1.41777,6.025017 -4.1546,9.037484 -8.21048,9.037441 -0.23641,4.3e-5 -0.49237,-0.01971 -0.76788,-0.05911 l -24.04079,-8.269552 c -2.36283,-0.70876 -3.54419,-1.909815 -3.54409,-3.603161 -1e-4,-0.748136 0.23616,-1.61447 0.70883,-2.599001 2.67764,-2.795832 4.01653,-4.823839 4.01663,-6.08403 -1e-4,-0.905643 -0.66956,-1.417566 -2.00831,-1.535775 H 79.199807 c -1.33892,0.118209 -2.00836,0.630132 -2.00832,1.535775 -4e-5,1.260191 1.338839,3.288198 4.016641,6.08403 0.472498,0.945153 0.708779,1.811487 0.708821,2.599001 -4.2e-5,1.693346 -1.201101,2.894401 -3.603165,3.603161 L 54.273011,89.79019 c -0.275668,0.0394 -0.53163,0.05911 -0.767887,0.05911 -4.016652,5.3e-5 -6.753478,-3.012424 -8.210485,-9.037438 -8e-6,-6.694336 5.355507,-13.270593 16.066561,-19.728792 10.080944,-6.024876 26.994129,-9.411451 50.73962,-10.159736 z m 14.23544,24.395183 v -4.430118 h 8.50583 v 8.978371 c -1e-4,2.953466 4.74505,5.552468 14.23544,7.79701 9.09639,3.741031 13.64464,11.242687 13.64476,22.504967 v 28.94344 H 62.010951 v -28.94344 c -2.5e-5,-11.26228 4.567913,-18.763936 13.703831,-22.504967 9.450872,-2.244542 14.176323,-4.843544 14.176375,-7.79701 v -8.978371 h 8.564893 v 4.430118 z m -37.980878,32.3103 c -5.3e-5,6.57628 2.323296,12.16807 6.970056,16.77539 4.64663,4.60732 10.218732,6.91098 16.716302,6.91097 6.61557,1e-5 12.22704,-2.30365 16.83445,-6.91097 4.60723,-4.60732 6.91088,-10.19911 6.91098,-16.77539 -1e-4,-6.53683 -2.2939,-12.128613 -6.88145,-16.775352 -4.58772,-4.646654 -10.20904,-6.969996 -16.86398,-6.970056 -6.57633,6e-5 -12.168116,2.323402 -16.775375,6.970056 -4.607378,4.646739 -6.911036,10.238522 -6.910983,16.775352 z m 36.976708,-0.0591 c -9e-5,3.66227 -1.28973,6.79288 -3.86896,9.39186 -2.5794,2.59901 -5.71986,3.89852 -9.42139,3.89851 -3.6623,1e-5 -6.78307,-1.2995 -9.36232,-3.89851 -2.57937,-2.59898 -3.869016,-5.72959 -3.868953,-9.39186 -6.3e-5,-3.74093 1.289583,-6.90106 3.868953,-9.48042 2.57925,-2.579263 5.70002,-3.868928 9.36232,-3.868971 3.70153,4.3e-5 6.84199,1.289708 9.42139,3.868971 2.57923,2.57936 3.86887,5.73949 3.86896,9.48042 z m -9.39184,-18.724599 c -8e-5,0.86638 -0.31511,1.634273 -0.94509,2.303659 -0.63014,0.669491 -1.41771,1.004214 -2.36273,1.004162 -0.90578,5.2e-5 -1.68352,-0.334671 -2.3332,-1.004162 -0.64982,-0.669386 -0.97471,-1.437279 -0.97462,-2.303659 -9e-5,-0.945047 0.3248,-1.7523 0.97462,-2.421802 0.64968,-0.669381 1.42742,-1.004103 2.3332,-1.004153 0.94502,5e-5 1.73259,0.334772 2.36273,1.004153 0.62998,0.669502 0.94501,1.476755 0.94509,2.421802 z m 0,37.153889 c -8e-5,0.94511 -0.31511,1.74254 -0.94509,2.39228 -0.63014,0.64975 -1.41771,0.97463 -2.36273,0.97462 -0.90578,10e-6 -1.68352,-0.32487 -2.3332,-0.97462 -0.64982,-0.64974 -0.97471,-1.44717 -0.97462,-2.39228 -9e-5,-0.90568 0.3248,-1.69327 0.97462,-2.36272 0.64968,-0.66943 1.42742,-1.00415 2.3332,-1.00416 0.94502,1e-5 1.73259,0.33473 2.36273,1.00416 0.62998,0.66945 0.94501,1.45704 0.94509,2.36272 z M 102.76803,89.140454 c 0.55123,0.07881 1.08286,0.492294 1.59484,1.240443 0.51186,0.748244 0.70876,1.575199 0.5907,2.480866 -0.11822,0.905761 -0.5514,1.61457 -1.29952,2.126449 -0.74826,0.590728 -1.57522,0.817158 -2.48086,0.67929 -0.90578,-0.137785 -1.634292,-0.580793 -2.185525,-1.329038 -0.55137,-0.78753 -0.748257,-1.624325 -0.590677,-2.510395 0.157454,-0.885976 0.610305,-1.624327 1.358565,-2.215065 0.590617,-0.393734 1.220677,-0.590633 1.890177,-0.590674 0.19684,4.1e-5 0.57092,0.0394 1.1223,0.118124 z m 23.4501,31.306156 c 0.59058,0.7482 0.81701,1.57516 0.67927,2.48085 -0.13791,0.90574 -0.6006,1.65393 -1.3881,2.2446 -0.59076,0.39379 -1.22082,0.59069 -1.89017,0.59068 -0.19699,1e-5 -0.56126,-0.0394 -1.09279,-0.11814 -0.53167,-0.0787 -1.09284,-0.5119 -1.68342,-1.2995 -0.51202,-0.74818 -0.69907,-1.56529 -0.56115,-2.45134 0.13773,-0.88599 0.58075,-1.60466 1.32903,-2.15598 0.74811,-0.5119 1.57506,-0.7088 2.48087,-0.59068 0.90562,0.11816 1.61443,0.55132 2.12646,1.29951 z M 95.916124,98.47323 c 0.945025,0.31507 1.614463,0.87621 2.008314,1.68344 0.393722,0.8073 0.452795,1.64409 0.177207,2.51039 -0.275716,0.86637 -0.827018,1.50627 -1.65391,1.9197 -0.827017,0.41351 -1.673663,0.50212 -2.539937,0.26581 -0.86639,-0.27563 -1.476766,-0.74815 -1.831118,-1.41763 -0.354458,-0.6694 -0.531665,-1.26008 -0.531612,-1.77204 -5.3e-5,-0.35437 0.05899,-0.70878 0.177207,-1.06322 0.31497,-0.86628 0.876125,-1.50619 1.683442,-1.91972 0.807211,-0.41344 1.644006,-0.48235 2.510407,-0.20673 z m 32.930536,11.69548 c 0.80717,-0.39376 1.64398,-0.45283 2.51039,-0.1772 0.86624,0.27568 1.46677,0.74822 1.80159,1.41763 0.33463,0.66947 0.50198,1.26015 0.50209,1.77205 -1.1e-4,0.31505 -0.0591,0.64978 -0.17722,1.00416 -0.31512,0.86636 -0.87626,1.50627 -1.68344,1.91972 -0.80736,0.4135 -1.64416,0.46272 -2.5104,0.14767 -0.86643,-0.27563 -1.50634,-0.81709 -1.91972,-1.62437 -0.41356,-0.80724 -0.48248,-1.66374 -0.20674,-2.56948 0.31495,-0.86629 0.8761,-1.49636 1.68345,-1.89018 z m -36.76998,1.24043 c 0.354352,-0.66941 0.964728,-1.14195 1.831118,-1.41763 0.866274,-0.27563 1.71292,-0.21656 2.539937,0.1772 0.826892,0.39382 1.378194,1.02389 1.65391,1.89018 0.275588,0.94512 0.216515,1.82129 -0.177207,2.62854 -0.393851,0.8073 -1.023907,1.36843 -1.89018,1.68345 -0.945153,0.23628 -1.82133,0.14769 -2.628541,-0.26581 -0.807317,-0.41345 -1.368472,-1.05336 -1.683442,-1.91972 -0.118188,-0.35438 -0.17726,-0.68911 -0.177207,-1.00416 -5.3e-5,-0.5119 0.177154,-1.10258 0.531612,-1.77205 z m 37.21299,-12.93591 c 0.86624,-0.27562 1.70304,-0.20671 2.5104,0.20673 0.80718,0.41353 1.36832,1.05344 1.68344,1.91972 0.11804,0.35444 0.17711,0.68916 0.17722,1.00415 -1.1e-4,0.51197 -0.16746,1.09279 -0.50209,1.7425 -0.33482,0.64978 -0.93535,1.13218 -1.80159,1.44717 -0.86641,0.27568 -1.72291,0.20677 -2.56946,-0.20674 -0.84674,-0.41343 -1.38819,-1.05333 -1.62438,-1.9197 -0.27574,-0.8663 -0.20682,-1.70309 0.20674,-2.51039 0.41338,-0.80723 1.05329,-1.36838 1.91972,-1.68344 z m -30.302005,21.97335 c 0.551233,-0.7088 1.279745,-1.13211 2.185525,-1.26996 0.90564,-0.13781 1.7326,0.0492 2.48086,0.56114 0.74812,0.55133 1.20099,1.28968 1.35857,2.21507 0.15746,0.92541 -0.0591,1.72284 -0.64975,2.39225 -0.51198,0.7876 -1.04361,1.22076 -1.59484,1.2995 -0.55138,0.0788 -0.92546,0.11816 -1.1223,0.11814 -0.6695,2e-5 -1.29956,-0.19688 -1.890177,-0.59067 -0.74826,-0.59068 -1.17158,-1.16168 -1.269972,-1.71299 -0.09851,-0.55128 -0.14773,-0.92538 -0.147666,-1.1223 -6.4e-5,-0.66942 0.216527,-1.29947 0.64975,-1.89018 z M 120.84292,90.380876 c 0.59058,-0.74815 1.15175,-1.161627 1.68342,-1.240433 0.53153,-0.0787 0.8958,-0.118081 1.09279,-0.118135 0.66935,5.4e-5 1.29941,0.196941 1.89017,0.590675 0.7875,0.590738 1.22065,1.151882 1.2995,1.683452 0.0786,0.531666 0.11805,0.876219 0.11814,1.033693 -9e-5,0.708863 -0.23636,1.378312 -0.70881,2.008316 -0.51203,0.748244 -1.03379,1.161722 -1.56532,1.240443 -0.5317,0.07881 -0.89596,0.118177 -1.09276,0.118134 -0.70891,4.3e-5 -1.35866,-0.236238 -1.94925,-0.708819 -0.74828,-0.51188 -1.16176,-1.043492 -1.24044,-1.594848 -0.0788,-0.551251 -0.11822,-0.925347 -0.11814,-1.122287 -8e-5,-0.669397 0.19682,-1.299453 0.5907,-1.890191 z"
           id="flowRoot2168"
           inkscape:connector-curvature="0" />
        <ellipse
           style="fill:none;fill-opacity:1;stroke:none;stroke-width:0.34084463;stroke-linecap:square;stroke-linejoin:miter;stroke-miterlimit:4;stroke-dasharray:none;stroke-opacity:1"
           id="path884"
           cx="48.491074"
           cy="31.46973"
           rx="1.5178572"
           ry="0.089285716" />
        <path
           inkscape:connector-curvature="0"
           style="fill:#ff1616;fill-opacity:1;stroke:none;stroke-width:0.34084463;stroke-linecap:square;stroke-linejoin:miter;stroke-miterlimit:4;stroke-dasharray:none;stroke-opacity:1"
           d="M 80,0 A 80,80 0 0 0 0,80 80,80 0 0 0 80,160 80,80 0 0 0 160,80 80,80 0 0 0 80,0 Z m 0,16.964844 A 63.035713,63.035713 0 0 1 143.03516,80 63.035713,63.035713 0 0 1 80,143.03516 63.035713,63.035713 0 0 1 16.964844,80 63.035713,63.035713 0 0 1 80,16.964844 Z"
           transform="translate(32.6875,11.916158)"
           id="path891" />
        <path
           style="fill:none;stroke:#ff1616;stroke-width:5.5689621;stroke-linecap:butt;stroke-linejoin:miter;stroke-miterlimit:4;stroke-dasharray:none;stroke-opacity:1"
           d="M 57.508929,143.70188 166.97321,49.416159"
           id="path901"
           inkscape:connector-curvature="0" />
      </g>
      <text
         id="text828"
         y="154.05679"
         x="311.92188"
         style="font-style:normal;font-variant:normal;font-weight:bold;font-stretch:normal;font-size:96px;line-height:1.25;font-family:sans-serif;-inkscape-font-specification:'sans-serif Bold';letter-spacing:0px;word-spacing:0px;fill:#000000;fill-opacity:1;stroke:none"
         xml:space="preserve"><tspan
           y="154.05679"
           x="311.92188"
           id="tspan826"
           sodipodi:role="line">PhoneBlock</tspan></text>
    </g>
  </g>
</svg>
